<?xml version="1.0" encoding="UTF-8" standalone="no"?>
<!-- Created with Inkscape (http://www.inkscape.org/) -->

<svg
   width="2000"
   height="2000"
   viewBox="0 0 529.16667 529.16668"
   version="1.1"
   id="svg1"
   xml:space="preserve"
   inkscape:version="1.3 (0e150ed6c4, 2023-07-21)"
   sodipodi:docname="Try_This_At_Home-Shonk.svg"
   inkscape:export-filename="Try_This_At_Home-Sticker.png"
   inkscape:export-xdpi="1016"
   inkscape:export-ydpi="1016"
   xmlns:inkscape="http://www.inkscape.org/namespaces/inkscape"
   xmlns:sodipodi="http://sodipodi.sourceforge.net/DTD/sodipodi-0.dtd"
   xmlns="http://www.w3.org/2000/svg"
   xmlns:svg="http://www.w3.org/2000/svg"><sodipodi:namedview
     id="namedview1"
     pagecolor="#505050"
     bordercolor="#ffffff"
     borderopacity="1"
     inkscape:showpageshadow="0"
     inkscape:pageopacity="0"
     inkscape:pagecheckerboard="1"
     inkscape:deskcolor="#d1d1d1"
     inkscape:document-units="mm"
     inkscape:zoom="0.28255964"
     inkscape:cx="1088.2658"
     inkscape:cy="1304.1495"
     inkscape:current-layer="layer1"
     showguides="true"
     showgrid="false"
     inkscape:window-width="1920"
     inkscape:window-height="1011"
     inkscape:window-x="1080"
     inkscape:window-y="510"
     inkscape:window-maximized="1" /><defs
     id="defs1"><inkscape:path-effect
       effect="perspective-envelope"
       down_left_point="105.26699,87.562047"
       down_right_point="142.30195,87.507346"
       id="path-effect5"
       is_visible="true"
       lpeversion="1"
       deform_type="perspective"
       horizontal_mirror="false"
       vertical_mirror="false"
       overflow_perspective="false"
       up_left_point="105.09076,60.81708"
       up_right_point="142.30195,73.978816" /><inkscape:path-effect
       effect="perspective-envelope"
       down_left_point="66.205508,87.46151"
       down_right_point="103.09726,87.46151"
       id="path-effect4"
       is_visible="true"
       lpeversion="1"
       deform_type="perspective"
       horizontal_mirror="false"
       vertical_mirror="false"
       overflow_perspective="false"
       up_left_point="66.205508,77.098739"
       up_right_point="103.09726,63.134236" /></defs><g
     inkscape:label="Layer 1"
     inkscape:groupmode="layer"
     id="layer1"><rect
       style="fill:#00ff00;fill-rule:evenodd;stroke:none;stroke-width:3.98053;stroke-linecap:round;stroke-linejoin:round;stroke-dashoffset:2.84519;paint-order:stroke markers fill"
       id="rect1"
       width="529.16669"
       height="529.16669"
       x="0"
       y="0" /><path
       style="color:#000000;mix-blend-mode:normal;fill:none;fill-opacity:1;stroke:none;stroke-width:2;stroke-dasharray:none"
       d="m 143.3595,470.08279 c 87.90644,-5.06459 174.81149,-3.80613 261.31302,0 12.12443,-223.03666 -245.17984,-296.78049 -261.31302,0 z"
       id="path252" /><g
       id="g194"
       style="stroke-width:0.96"
       transform="scale(1.0416666)"><g
         id="g7"
         transform="matrix(1.8527081,0,0,1.8526691,-604.01864,597.48669)"
         style="stroke-width:0.518166"><path
           style="color:#000000;fill:#fefefe;stroke-width:0.518166;stroke-linecap:round;stroke-linejoin:round;-inkscape-stroke:none;paint-order:stroke markers fill"
           d="m 464.48828,-225.59375 c -5.19585,-0.0256 -13.10369,2.68431 -22.01953,8.20703 -8.91664,5.5232 -18.78667,13.89525 -27.58398,25.32813 -17.59478,22.86591 -30.86161,57.99091 -23.4668,106.751949 a 0.50005,0.50005 0 0 0 0.5625,0.416016 0.50005,0.50005 0 0 0 0.48828,0.431641 c 4.39616,-0.269585 8.80592,-0.482741 13.2168,-0.697266 1.98517,-0.09589 3.96908,-0.207234 5.94531,-0.291016 2.89688,-0.124786 5.80409,-0.214355 8.71094,-0.316406 3.41378,-0.116039 6.82799,-0.246578 10.23047,-0.330078 0.12192,-0.0031 0.25001,-0.0044 0.38281,-0.0078 31.05609,-0.751373 61.90871,-0.178468 92.66015,1.05664 4.15843,0.186665 8.31359,0.366064 12.47461,0.585938 l 0.46289,0.02539 a 0.50005,0.50005 0 0 0 0.52344,-0.435547 l 0.0586,-0.46289 a 0.50005,0.50005 0 0 0 0,-0.002 c 5.6086,-44.583831 -4.79486,-79.581001 -20.45899,-103.458981 -15.66379,-23.87741 -36.5158,-36.72355 -52.1875,-36.80078 z m -0.0117,2 c 14.56974,0.0718 35.13419,12.43059 50.5293,35.89844 4.43051,6.75375 8.35323,14.52715 11.68164,23.07617 -2.37555,-3.34913 -5.87388,-5.53695 -9.45117,-5.55664 -1.47281,-0.008 -2.87856,0.34522 -4.11133,1.04297 a 0.50005,0.50005 0 0 0 -0.002,0.002 c -1.86474,1.05957 -3.11845,2.9219 -3.79883,5.125 -11.13186,-13.01922 -25.09258,-21.15692 -39.45508,-23.19922 -4.25968,-0.60571 -8.55452,-0.67676 -12.81055,-0.18554 -12.76802,1.47392 -25.20577,8.01935 -35.49414,20.32421 -0.54025,0.64614 -1.06318,1.32601 -1.58593,2.00391 -0.75637,-1.72771 -1.88718,-3.18702 -3.44336,-4.06836 a 0.50005,0.50005 0 0 0 0,-0.002 c -1.23277,-0.69775 -2.63852,-1.05121 -4.11133,-1.04297 -4.02095,0.0221 -8.03026,2.69177 -10.34766,6.78516 -3.26748,5.77157 -2.22515,12.66642 2.51758,15.35156 1.39548,0.78923 3.02211,1.04063 4.69336,0.92773 -7.04638,15.36104 -11.89105,35.33162 -13.37109,60.472658 -0.86733,0.04644 -1.7389,0.08804 -2.61329,0.136719 -7.01375,-47.785517 5.98876,-82.012607 23.16602,-104.335937 8.6441,-11.23377 18.34403,-19.4552 27.05273,-24.84961 8.70789,-5.3939 16.49299,-7.92823 20.95508,-7.90625 z m -35.17578,17.39844 c -2.31902,2.08682 -4.63458,4.35742 -6.91601,6.81445 2.28166,-2.45724 4.59677,-4.72759 6.91601,-6.81445 z m 34.13867,19.97851 c 2.07314,0.0318 4.14782,0.19605 6.2168,0.49024 14.24298,2.02529 28.18997,10.22857 39.22656,23.49023 -0.36382,2.78111 0.22382,5.7898 1.72266,8.45508 a 0.50005,0.50005 0 0 0 0.002,0.002 c 1.89477,3.3327 4.9407,5.72177 8.24414,6.48243 8.56078,16.09344 13.50492,36.63669 12.39844,60.617183 -45.01005,-2.238329 -89.6661,-2.521593 -133.81836,-0.03125 1.51054,-25.352933 6.43805,-45.390563 13.56641,-60.611333 3.23648,-0.81494 6.20186,-3.1849 8.05468,-6.45703 1.73715,-3.07025 2.2923,-6.58487 1.54688,-9.66211 0.69526,-0.91639 1.39576,-1.81448 2.10937,-2.66796 10.07653,-12.05149 22.14106,-18.37601 34.52149,-19.80079 2.06343,-0.23745 4.13586,-0.33842 6.20898,-0.30664 z m -54.05273,3.8125 c -2.00358,3.19614 -3.90778,6.58363 -5.68555,10.16407 1.77833,-3.57876 3.68197,-6.96914 5.68555,-10.16407 z m 111.99414,3.52149 c 1.37289,2.5763 2.62634,5.34274 3.86523,8.125 -1.23837,-2.7832 -2.49255,-5.548 -3.86523,-8.125 z m -117.69531,6.66992 c -10.5907,21.34423 -16.56541,49.59978 -11.42578,85.322265 -5.13973,-35.723735 0.82859,-63.981585 11.42578,-85.322265 z m 8.74414,3.03711 c 1.30914,-0.007 2.53713,0.30496 3.61328,0.91406 1.5648,0.88622 2.74962,2.36469 3.38672,4.25977 a 0.50005,0.50005 0 0 0 0.23242,0.19726 0.50005,0.50005 0 0 0 -0.0684,0.35157 c 0.76582,2.84141 0.25899,6.22961 -1.41016,9.17968 -1.7798,3.14318 -4.65809,5.39898 -7.67382,6.07032 a 0.50005,0.50005 0 0 0 -0.22266,0.17773 0.50005,0.50005 0 0 0 -0.3457,-0.0703 c -1.76106,0.27495 -3.43644,-0.0115 -4.85352,-0.8125 h -0.002 c -4.15119,-2.35137 -5.1938,-8.59377 -2.13867,-13.99024 2.16475,-3.82375 5.90573,-6.25765 9.48242,-6.27734 z m 104.80078,0 c 3.57669,0.0197 7.31767,2.45359 9.48242,6.27734 3.0554,5.39717 2.01182,11.63962 -2.14062,13.99024 -1.36638,0.76562 -2.97074,1.05455 -4.66211,0.82422 a 0.50005,0.50005 0 0 0 -0.28907,0.12695 0.50005,0.50005 0 0 0 -0.31054,-0.23242 c -3.06655,-0.6206 -6.01695,-2.88691 -7.83399,-6.08203 v -0.002 c -1.44575,-2.57167 -2.02102,-5.48971 -1.61523,-8.09375 a 0.50005,0.50005 0 0 0 -0.10742,-0.39648 c -0.003,-0.003 -0.005,-0.007 -0.008,-0.01 a 0.50005,0.50005 0 0 0 0.21485,-0.2207 c 0.51266,-2.36476 1.81742,-4.22273 3.65625,-5.26758 1.07615,-0.6091 2.30414,-0.92138 3.61328,-0.91406 z m 9.08789,0.67383 c 9.15065,21.68164 13.90848,49.32416 9.88672,82.296872 4.02096,-32.970262 -0.74253,-60.612222 -9.88672,-82.296872 z m -112.4082,1.2832 c -1.91545,0.0106 -3.77633,1.26666 -4.85157,3.16602 -1.51511,2.67631 -1.05084,5.93097 1.22657,7.2207 2.27779,1.28993 5.3069,0.0127 6.82226,-2.66406 1.51507,-2.67649 1.05111,-5.93124 -1.22656,-7.22071 -0.59287,-0.33577 -1.26879,-0.50573 -1.9707,-0.50195 z m 101.18359,0 c -0.70191,-0.004 -1.37783,0.16618 -1.9707,0.50195 -2.27768,1.28947 -2.74163,4.54422 -1.22657,7.22071 1.51515,2.67656 4.54441,3.95339 6.82227,2.66406 2.27801,-1.28942 2.74197,-4.54404 1.22656,-7.2207 -1.07523,-1.89936 -2.93611,-3.15538 -4.85156,-3.16602 z m -51.63672,0.7832 -0.20508,0.002 c -16.06136,0.17732 -31.62303,7.38182 -41.77148,21.20117 l -0.56836,0.32226 a 0.50005,0.50005 0 0 0 -0.20508,0.64649 l 0.0488,0.10547 c -2.3606,3.36815 -4.48511,7.04324 -6.1543,11.18164 -7.9e-4,0.002 -10e-4,0.004 -0.002,0.006 -5.6e-4,0.001 -0.001,0.003 -0.002,0.004 -4.0433,9.38569 -6.15144,20.73997 -5.51758,34.06055 l -0.002,-0.04102 -0.0527,1.691407 a 0.50005,0.50005 0 0 0 0.91211,0.298828 l 0.93555,-1.367188 0.0195,-0.02539 v -0.002 c 11.4213,-15.903527 22.42132,-26.064217 33.05664,-31.597657 l 0.006,-0.002 c 7.5e-4,-3.9e-4 0.001,-0.002 0.002,-0.002 6.11817,-3.02813 12.37762,-4.68548 18.77149,-4.90625 7.77547,-0.26848 15.78565,1.59187 24.00976,5.74414 11.89099,6.28357 23.59668,17.1021 35.15234,30.826167 l 0.89844,1.066406 a 0.50005,0.50005 0 0 0 0.88086,-0.326172 l -0.0137,-1.394531 v -0.002 c -0.13198,-12.07102 -2.44682,-22.49756 -6.28906,-31.32813 a 0.50005,0.50005 0 0 0 0.22461,-0.65234 l -0.65039,-1.31055 c -4.02384,-8.13472 -9.34276,-14.73493 -15.39063,-19.95508 l -0.22266,-0.39062 a 0.50005,0.50005 0 0 0 -0.41992,-0.14453 c -3.16096,-2.64747 -6.52926,-4.84249 -10.01758,-6.70508 a 0.50005,0.50005 0 0 0 -0.2871,-0.27539 l -0.58594,-0.20899 a 0.50005,0.50005 0 0 0 -0.01,-0.004 l -0.006,-0.002 c -8.38661,-4.30954 -17.48368,-6.55632 -26.50781,-6.49805 a 0.50005,0.50005 0 0 0 -0.0371,-0.0156 z m -49.54101,0.2168 c 0.53821,-0.003 1.03639,0.12596 1.47265,0.37305 1.68719,0.95517 2.15265,3.55549 0.84961,5.85742 -1.3033,2.30217 -3.77365,3.24068 -5.46094,2.28516 -1.68699,-0.95537 -2.15268,-3.55565 -0.84961,-5.85743 0.9226,-1.62972 2.51708,-2.65002 3.98829,-2.6582 z m 101.17382,0 c 1.47121,0.008 3.06373,1.02848 3.98633,2.6582 1.30334,2.30208 0.83784,4.90423 -0.84961,5.85938 -1.68732,0.95507 -4.15587,0.0149 -5.45898,-2.28711 -1.30304,-2.30193 -0.83758,-4.90225 0.84961,-5.85742 0.43626,-0.24709 0.93444,-0.37595 1.47265,-0.37305 z m -51.64453,0.7832 a 0.50005,0.50005 0 0 0 0.0332,0.0137 c 8.88522,-0.061 17.8588,2.15407 26.13476,6.41992 a 0.50005,0.50005 0 0 0 0.0723,0.0293 l 0.16406,0.0586 0.0762,-0.33203 a 0.50005,0.50005 0 0 0 0.25391,0.55468 c 3.56485,1.88412 6.99538,4.11457 10.20312,6.81641 a 0.50005,0.50005 0 0 0 0.51172,0.0801 l -0.21875,0.0898 0.043,0.0742 a 0.50005,0.50005 0 0 0 0.10937,0.13086 c 5.98118,5.14671 11.23699,11.66132 15.2168,19.70703 l 0.32031,0.64649 a 0.50005,0.50005 0 0 0 -0.1875,0.56054 c 0.62242,1.38733 1.13219,2.89189 1.67383,4.36328 -0.62231,-1.70295 -1.25537,-3.39615 -1.98633,-4.98632 a 0.50005,0.50005 0 0 0 -0.36914,-0.28321 c -5.2576,-0.90281 -9.91014,-1.95972 -12.07812,-3.97656 -1.08713,-1.0114 -1.51279,-2.36765 -0.9336,-3.91016 0.22372,-0.59581 0.71708,-1.2717 1.35547,-1.97851 a 0.50005,0.50005 0 0 0 -0.5625,-0.79688 c -0.96445,0.40298 -1.81665,0.62726 -2.51757,0.64258 -1.61719,0.0353 -2.67064,-0.84168 -3.08204,-2.04492 -0.41885,-1.22502 -0.27735,-2.77243 0.25586,-4.26563 0.22844,-0.63974 0.56892,-1.22741 0.97461,-1.77929 a 0.50005,0.50005 0 0 0 -0.57812,-0.76367 c -2.41386,0.90745 -4.51097,1.54475 -5.88281,1.62109 -1.89957,0.10574 -3.07958,-0.49151 -3.64258,-1.51172 -0.57317,-1.03861 -0.56054,-2.41965 -0.35742,-3.95508 0.0563,-0.42537 0.17324,-0.90412 0.26757,-1.39843 a 0.50005,0.50005 0 0 0 -0.89453,-0.38868 c -1.11822,1.52478 -2.22656,2.74556 -3.22656,3.30078 -1.62997,0.90492 -3.17816,0.74883 -4.35156,-0.11914 -1.70368,-1.26021 -2.57334,-3.90369 -2.60352,-6.90429 a 0.50005,0.50005 0 0 0 -0.95117,-0.21289 c -1.04802,2.1646 -2.10626,3.88634 -3.11328,4.70898 -1.52431,1.24516 -3.127,1.21512 -4.51758,0.38477 -1.92726,-1.1508 -3.56534,-3.74834 -5.07617,-6.49219 l 0.008,0.0176 a 0.50005,0.50005 0 0 0 -0.94531,0.25 c 0.0512,0.97429 -0.008,1.87612 -0.24024,2.64843 -0.55074,1.834 -1.72383,3.16001 -3.2207,3.68165 -1.49569,0.52119 -3.29883,0.22804 -5.04687,-1.06055 -0.98639,-0.72715 -1.95179,-2.00522 -2.87696,-3.51563 a 0.50005,0.50005 0 0 0 -0.92383,0.3125 c 0.16385,1.56582 0.15749,2.93657 -0.16992,3.81836 -0.60406,1.62699 -1.93,2.35651 -3.39843,2.33985 -1.4878,-0.0172 -3.15223,-0.71256 -4.67774,-1.80078 -0.57347,-0.4091 -1.08147,-0.91341 -1.56055,-1.45899 a 0.50005,0.50005 0 0 0 -0.86328,0.4375 c 0.32,1.464 0.46898,2.78163 0.29102,3.73438 -0.31694,1.69681 -1.29239,2.77255 -2.54297,3.2207 -1.59017,0.56986 -3.47362,-0.11385 -5.32031,-1.28906 a 0.50005,0.50005 0 0 0 -0.70508,0.66601 c 0.66938,1.19505 1.12503,2.32254 1.13476,3.25586 0.0179,1.75397 -0.86016,3.13253 -2.13671,3.95508 -1.82005,1.17274 -4.38678,1.13447 -6.54688,-0.13672 a 0.50005,0.50005 0 0 0 -0.70703,0.63867 c 0.91943,1.99906 1.66206,3.94125 1.38672,5.68164 -0.20257,1.28035 -0.96536,2.44274 -2.4961,3.31641 -1.53704,0.87724 -3.8408,1.50225 -7.20703,1.82031 -7.4e-4,7e-5 -10e-4,-7e-5 -0.002,0 a 0.50005,0.50005 0 0 0 -0.002,0 l -0.11328,0.01 a 0.50005,0.50005 0 0 0 -0.30274,0.22851 c 0.25734,-0.65869 0.45081,-1.38167 0.72656,-2.02148 a 0.50005,0.50005 0 0 0 0.004,-0.01 c 1.67663,-4.15935 3.81247,-7.85987 6.20703,-11.24414 a 0.50005,0.50005 0 0 0 0.0449,-0.5 l 0.0293,0.0664 0.24609,-0.13867 a 0.50005,0.50005 0 0 0 0.15625,-0.14063 c 9.95631,-13.62403 25.2447,-20.71024 41.05274,-20.88476 z m 0.45117,5.8711 c 1.32248,2.2845 2.74697,4.4478 4.64649,5.58203 1.69323,1.01107 3.84982,1.0136 5.66211,-0.4668 0.98208,-0.80227 1.83843,-2.17877 2.67969,-3.75976 0.27286,2.55771 1.01797,4.90546 2.76171,6.19531 1.47834,1.09351 3.51405,1.25513 5.4336,0.18945 0.82414,-0.45758 1.59615,-1.24024 2.35742,-2.1289 -0.16856,1.46881 -0.19947,2.9299 0.49023,4.17968 0.77636,1.40681 2.43136,2.14674 4.57618,2.02735 1.32187,-0.0736 3.04982,-0.5967 4.95507,-1.26953 -0.15251,0.29019 -0.35533,0.53979 -0.46875,0.85742 -0.58676,1.64314 -0.78145,3.39998 -0.25976,4.92578 0.53994,1.57921 2.04423,2.76447 4.05078,2.7207 0.48147,-0.0105 1.0351,-0.24613 1.55664,-0.38867 -0.272,0.38733 -0.63537,0.76059 -0.78906,1.16992 -0.71053,1.89227 -0.14735,3.75228 1.1875,4.99414 2.49391,2.32005 7.14851,3.27606 12.30859,4.16797 3.04299,6.68477 5.08488,14.44475 5.98438,23.16797 -1.0264,-3.60772 -1.98541,-6.99026 -3.26368,-9.42188 -1.1077,-2.10715 -2.65247,-3.69893 -4.8496,-3.94726 -1.21724,-0.13758 -2.57072,0.32392 -3.9961,0.97656 0.32889,-0.84404 0.69181,-1.68432 0.7832,-2.58398 0.24959,-2.45675 -0.25792,-4.96031 -1.32031,-6.79297 -0.53111,-0.91618 -1.21794,-1.68963 -2.10351,-2.13477 -0.89947,-0.45211 -1.99179,-0.49434 -3.00782,-0.0176 -0.61757,0.2901 -1.19565,0.80717 -1.75781,1.42969 0.14724,-1.42451 0.32957,-2.88213 0.13477,-3.98047 -0.49112,-2.76919 -2.05882,-4.56757 -4.06055,-5.03906 -1.99124,-0.46901 -4.17873,0.32955 -5.97852,1.99414 -0.57344,0.53038 -1.01044,1.31492 -1.49023,2.02344 0.0197,-1.95994 -0.0892,-3.75894 -0.56836,-5.12305 -0.90227,-2.56924 -2.63774,-4.11735 -4.63086,-4.39258 -1.98624,-0.27428 -4.02707,0.68263 -5.5918,2.46094 -0.44516,0.50593 -0.75362,1.18266 -1.0957,1.81836 -0.93447,-3.58897 -3.45634,-5.99457 -6.26562,-6.51562 -2.11124,-0.39159 -4.34849,0.27453 -5.77344,2.11718 -0.77504,1.00226 -1.07896,2.43039 -1.22461,3.9961 -2.41294,-4.62161 -5.80346,-7.21704 -8.96289,-6.92578 -2.02796,0.18695 -3.753,1.60967 -4.48047,3.88281 -0.19271,0.60216 -0.16278,1.36517 -0.20703,2.07422 -0.781,-1.20967 -1.61236,-2.23534 -2.5918,-2.78516 -2.27253,-1.27571 -4.76026,-0.5997 -6.5,0.94922 -1.73,1.54021 -2.90189,3.90586 -3.04883,6.375 -0.0368,0.61782 0.17764,1.17391 0.31641,1.75195 -1.42429,-0.97171 -2.80451,-1.76472 -4.08203,-2.07617 -2.47179,-0.60259 -4.63267,0.0295 -5.9707,1.51758 -2.0068,2.23195 -1.93316,5.93895 -0.14258,9.59375 -1.91021,-1.13162 -3.62267,-1.98166 -4.99024,-2.14649 -1.06297,-0.12811 -2.0227,0.0399 -2.79492,0.51563 -0.77061,0.47472 -1.29354,1.21111 -1.63672,2.03125 -0.68271,1.63156 -0.7728,3.68336 -0.75195,5.86328 0.0124,1.29069 0.0645,2.5907 0.10547,3.88086 -0.63228,-0.77425 -1.25401,-1.61245 -1.9336,-2.11719 -0.64643,-0.48011 -1.3294,-0.84606 -2.08398,-0.95508 -0.77126,-0.11138 -1.57631,0.0951 -2.23242,0.61133 -0.25446,0.20022 -0.42768,0.5658 -0.64258,0.8418 0.76164,-4.34393 1.77411,-8.46564 3.18945,-12.18945 3.31149,-0.33225 5.70086,-0.94687 7.38868,-1.91016 1.74524,-0.99609 2.73802,-2.44752 2.98828,-4.0293 0.27324,-1.72709 -0.31034,-3.43916 -1.02149,-5.11914 2.1872,0.87489 4.5877,0.81679 6.44336,-0.3789 1.53509,-0.98913 2.6171,-2.7084 2.5957,-4.80664 -0.008,-0.81194 -0.29126,-1.63152 -0.65429,-2.45313 1.60134,0.80923 3.27093,1.34913 4.88281,0.77149 1.58435,-0.56776 2.81482,-1.98328 3.1875,-3.97852 0.15229,-0.8153 -0.0572,-1.82522 -0.20117,-2.80078 0.25914,0.23932 0.47696,0.50865 0.77148,0.71875 1.63839,1.16875 3.46216,1.96565 5.2461,1.98633 1.82798,0.0207 3.60528,-0.9927 4.34765,-2.99219 0.26688,-0.71877 0.32696,-1.57494 0.31641,-2.48438 0.66058,0.91848 1.34834,1.75364 2.125,2.32618 1.95799,1.44336 4.12467,1.84181 5.96875,1.19921 1.84113,-0.6416 3.22374,-2.25373 3.84961,-4.33789 0.13432,-0.44726 0.0913,-0.95606 0.13476,-1.43554 z m 65.36524,1.91406 c 6.43356,19.68395 9.31248,43.50295 5.96484,71.152343 -0.82672,-0.04042 -1.6509,-0.07634 -2.47265,-0.115234 1.09861,-23.790269 -3.71327,-44.281639 -12.125,-60.494139 1.57779,0.0663 3.11002,-0.18742 4.43359,-0.92969 a 0.50005,0.50005 0 0 0 0.002,-0.002 c 3.20961,-1.81689 4.56572,-5.59123 4.19727,-9.61133 z m -73.16406,11.1875 c 2.83725,-0.26156 6.44983,2.39086 8.75781,7.79102 a 0.50005,0.50005 0 0 0 0.96094,-0.19922 c -0.008,-2.19031 0.35651,-3.99559 1.16796,-5.04493 1.18933,-1.53796 3.00807,-2.08055 4.80079,-1.74804 2.65256,0.49198 5.23688,2.92112 5.79296,6.82812 a 0.50005,0.50005 0 0 0 0.95118,0.13477 c 0.45426,-1.00609 0.96336,-1.9203 1.55078,-2.58789 1.39873,-1.58966 3.12345,-2.349 4.70312,-2.13086 1.57287,0.21719 3.0109,1.4184 3.82422,3.73437 0.52239,1.48736 0.65107,3.71226 0.51758,6.27149 a 0.50005,0.50005 0 0 0 0.94336,0.2539 c 0.62966,-1.22699 1.38632,-2.25352 2.21875,-3.02343 1.62043,-1.49871 3.49125,-2.12825 5.07226,-1.75586 1.57049,0.36991 2.86084,1.75048 3.30274,4.24218 0.23832,1.34373 0.16175,3.12216 -0.1875,5.18555 a 0.50005,0.50005 0 0 0 0.91016,0.35938 c 0.78486,-1.19104 1.56713,-1.91447 2.31054,-2.26368 0.75334,-0.35349 1.49893,-0.31668 2.13672,0.004 0.65169,0.32758 1.2201,0.94122 1.68555,1.74414 0.93071,1.60553 1.41988,3.94242 1.1914,6.19141 -0.11873,1.16883 -0.45002,2.31363 -1.0039,3.31836 a 0.50005,0.50005 0 0 0 0.66992,0.68359 c 1.75244,-0.91082 3.2992,-1.42856 4.42969,-1.30078 1.78014,0.2012 3.04686,1.4619 4.07617,3.41992 1.72745,3.2861 2.82706,8.54689 4.63086,14.12695 a 0.50005,0.50005 0 0 0 0.94726,-0.11914 c 0.0538,1.14756 0.1844,2.23473 0.19727,3.414066 v 0.002 l -0.002,-0.002 c -11.60548,-13.783226 -23.38425,-24.690666 -35.45703,-31.068356 a 0.50005,0.50005 0 0 0 -0.008,-0.006 c -8.35017,-4.21591 -16.53551,-6.12637 -24.49414,-5.85156 -6.54681,0.22605 -12.95552,1.92698 -19.18945,5.01367 a 0.50005,0.50005 0 0 0 -0.01,0.004 c -10.83193,5.63367 -21.93206,15.91716 -33.41601,31.908206 a 0.50005,0.50005 0 0 0 -0.002,0 0.50005,0.50005 0 0 0 0,-0.02148 c -0.25154,-5.286106 0.0414,-10.162556 0.60938,-14.810556 a 0.50005,0.50005 0 0 0 0.92969,0.11524 c 0.54615,-2.14872 1.21624,-3.45115 1.98242,-4.05469 0.45,-0.35405 0.96513,-0.48122 1.4707,-0.4082 0.52224,0.0755 1.06162,0.34479 1.63086,0.76758 0.81078,0.60216 1.73915,1.7809 2.67188,2.95117 a 0.50005,0.50005 0 0 0 0.89062,-0.32422 c -0.0391,-1.72027 -0.1223,-3.49451 -0.13867,-5.20313 -0.0205,-2.14135 0.0995,-4.09161 0.67578,-5.46875 0.2863,-0.6842 0.68741,-1.22509 1.23828,-1.56445 0.54926,-0.33837 1.25884,-0.48245 2.15039,-0.375 1.3724,0.16541 3.47082,1.1904 5.9961,2.81641 a 0.50005,0.50005 0 0 0 0.69336,-0.68946 c -2.44991,-3.85828 -2.55226,-7.83098 -0.69336,-9.89843 1.0801,-1.20123 2.79734,-1.74945 4.99023,-1.21485 1.33508,0.32548 2.97168,1.26857 4.71094,2.5586 a 0.50005,0.50005 0 0 0 0.77148,-0.56446 c -0.30488,-0.88432 -0.53176,-1.75085 -0.48242,-2.58007 0.13019,-2.1878 1.20242,-4.33926 2.7168,-5.6875 1.50458,-1.33956 3.46665,-1.87795 5.34375,-0.82422 1.02655,0.57626 2.05471,1.84129 2.99219,3.60547 a 0.50005,0.50005 0 0 0 0.9414,-0.25 c -0.042,-1.2427 0.0356,-2.36602 0.30664,-3.21289 0.62785,-1.96185 1.99234,-3.04126 3.6211,-3.19141 z m -41.98829,17.81445 c -0.59569,1.697 -1.16511,3.4202 -1.63476,5.23633 0.47479,-1.81334 1.03511,-3.54175 1.63476,-5.23633 z m 104.35547,4.02344 c 0.61394,1.80552 1.12286,3.70953 1.60938,5.63672 -0.48226,-1.93005 -0.99941,-3.82819 -1.60938,-5.63672 z m -106.52929,3.57812 c -0.4573,2.06194 -0.85772,4.17265 -1.14844,6.37891 0.2951,-2.20401 0.68539,-4.32029 1.14844,-6.37891 z m 108.49804,3.41993 c 0.47205,2.02964 0.83914,4.14967 1.16211,6.31054 -0.31945,-2.16246 -0.69452,-4.27833 -1.16211,-6.31054 z m 1.35743,7.56054 c 0.29189,2.17868 0.48105,4.43882 0.61328,6.74805 -0.13112,-2.30862 -0.32465,-4.56821 -0.61328,-6.74805 z m -57.8125,22.589848 c 3.78511,0.0067 7.59151,0.127681 11.38281,0.167968 -13.76134,-0.161683 -27.55806,-0.10327 -41.39258,0.19336 9.98314,-0.23066 19.98081,-0.379163 30.00977,-0.361328 z m 16.54687,0.24414 c 12.22889,0.177847 24.48711,0.512156 36.77539,1.011719 -12.23951,-0.453878 -24.49312,-0.823459 -36.77539,-1.011719 z m 55.65625,1.31836 c -0.0192,0.15573 -0.0194,0.299109 -0.0391,0.455078 v 0.002 c -0.15977,-0.0084 -0.31878,-0.01511 -0.47852,-0.02344 a 0.50005,0.50005 0 0 0 0.51758,-0.433593 z m -139.62109,0.0918 a 0.50005,0.50005 0 0 0 0.33593,0.128907 c -0.16339,0.0088 -0.32685,0.01646 -0.49023,0.02539 a 0.50005,0.50005 0 0 0 0.1543,-0.154297 z m 135.51757,0.0293 a 0.50005,0.50005 0 0 0 0.13672,0.150391 c -0.16214,-0.0078 -0.3242,-0.01378 -0.48632,-0.02148 a 0.50005,0.50005 0 0 0 0.3496,-0.128907 z"
           id="path6" /><path
           style="color:#000000;fill:#fefefe;stroke-width:0.518166;stroke-linecap:round;stroke-linejoin:round;-inkscape-stroke:none;paint-order:stroke markers fill"
           d="m 464.48536,-225.0928 c -5.01624,-0.0247 -12.8895,2.6397 -21.75423,8.13077 -8.86473,5.49104 -18.69201,13.82568 -27.45104,25.2088 -17.51807,22.76622 -30.74326,57.73291 -23.36705,106.371281 l 0.49403,-0.07648 0.031,0.500228 c 4.40048,-0.269849 8.81167,-0.483111 13.22245,-0.697632 1.98261,-0.09577 3.9677,-0.206965 5.94847,-0.290939 2.90172,-0.124995 5.81029,-0.213717 8.71626,-0.315743 3.41227,-0.115988 6.82684,-0.247631 10.234,-0.331246 0.12803,-0.0033 0.25644,-0.0045 0.38448,-0.0078 31.07092,-0.751731 61.93423,-0.179187 92.69356,1.056266 4.15793,0.186643 8.31467,0.367006 12.47883,0.587045 l 0.46457,0.02532 0.0589,-0.463021 c 5.59501,-44.475789 -4.78422,-79.347329 -20.38118,-103.122909 -15.59697,-23.77555 -36.37454,-36.49811 -51.77307,-36.57399 z m -0.006,0.99994 c 14.84761,0.0732 35.48103,12.55209 50.94366,36.12286 15.40788,23.48734 25.69949,57.95924 20.26336,101.994289 -1.14843,-0.06034 -2.29368,-0.103399 -3.44165,-0.161231 1.20451,-24.267788 -3.75028,-45.102968 -12.40286,-61.452578 a 11.619294,9.2540146 60.484626 0 0 4.97696,-0.88419 11.619294,9.2540146 60.484626 0 0 2.32905,-14.67042 11.619294,9.2540146 60.484626 0 0 -9.91464,-6.53242 11.619294,9.2540146 60.484626 0 0 -3.86281,0.97979 11.619294,9.2540146 60.484626 0 0 -3.89847,5.59707 c -11.14682,-13.29523 -25.22707,-21.55532 -39.67251,-23.60941 -4.21882,-0.5999 -8.4716,-0.6717 -12.68398,-0.18552 -12.63751,1.45886 -24.9506,7.92828 -35.16788,20.14813 -0.69325,0.82912 -1.37035,1.70264 -2.04381,2.58485 a 9.2540146,11.619294 29.515374 0 0 -3.61425,-4.53512 9.2540146,11.619294 29.515374 0 0 -3.86281,-0.97979 9.2540146,11.619294 29.515374 0 0 -9.91464,6.53242 9.2540146,11.619294 29.515374 0 0 2.32854,14.67042 9.2540146,11.619294 29.515374 0 0 5.17798,0.87127 c -7.22129,15.46882 -12.18084,35.76705 -13.64568,61.440177 -1.1718,0.06732 -2.34757,0.113216 -3.51865,0.184485 -7.18598,-48.152152 5.90909,-82.668742 23.21874,-105.164122 8.68243,-11.28358 18.4252,-19.54393 27.18594,-24.97057 8.76075,-5.42665 16.57084,-8.00329 21.22041,-7.98039 z m -1.0325,37.37601 c 2.0945,0.0321 4.19036,0.19849 6.27972,0.49558 14.42614,2.05134 28.52201,10.36442 39.64151,23.77632 a 11.619294,9.2540146 60.484626 0 0 1.67328,8.41861 11.619294,9.2540146 60.484626 0 0 8.16953,6.32778 c 8.71936,16.3155 13.73658,37.17938 12.52895,61.538364 -45.36726,-2.270992 -90.37216,-2.562435 -134.8605,-0.02842 1.47747,-25.770314 6.47897,-46.096584 13.73818,-61.526484 a 9.2540146,11.619294 29.515374 0 0 8.00054,-6.31124 9.2540146,11.619294 29.515374 0 0 1.45831,-9.55755 c 0.73903,-0.97796 1.48648,-1.93328 2.24948,-2.84583 10.14743,-12.13629 22.33699,-18.53727 34.848,-19.97707 2.08517,-0.23996 4.17851,-0.34217 6.273,-0.31006 z m -49.53393,19.99826 a 4.1250114,5.1793436 29.515374 0 1 1.72186,0.43719 4.1250114,5.1793436 29.515374 0 1 1.03818,6.53913 4.1250114,5.1793436 29.515374 0 1 -6.14174,2.47479 4.1250114,5.1793436 29.515374 0 1 -1.03766,-6.53914 4.1250114,5.1793436 29.515374 0 1 4.41936,-2.91197 z m 101.17884,0 a 5.1793435,4.1250114 60.484626 0 1 4.41937,2.91197 5.1793435,4.1250114 60.484626 0 1 -1.03818,6.53965 5.1793435,4.1250114 60.484626 0 1 -6.14123,-2.4753 5.1793435,4.1250114 60.484626 0 1 1.03818,-6.53913 5.1793435,4.1250114 60.484626 0 1 1.72186,-0.43719 z m -51.62992,0.78393 -0.20516,0.002 c -15.95405,0.17614 -31.39918,7.33536 -41.4507,21.08967 l -0.64647,0.36742 0.16382,0.3514 c -2.41286,3.41013 -4.56841,7.14399 -6.26164,11.34453 -4.01296,9.31098 -6.1138,20.59014 -5.48287,33.849094 l -0.0543,1.690853 0.93948,-1.371493 0.0217,-0.03049 c 11.45412,-15.949504 22.50647,-26.172474 33.24139,-31.755684 6.17732,-3.05866 12.51315,-4.73799 18.98488,-4.96145 7.86706,-0.27164 15.96512,1.614 24.25227,5.79809 11.98317,6.33035 23.72666,17.19496 35.30844,30.95005 l 0.89814,1.066601 -0.0155,-1.394746 C 523.0208,-111.2659 520.6302,-121.88227 516.63377,-130.7901 l 0.51004,0.0858 -0.6506,-1.31051 c -4.00986,-8.10646 -9.31012,-14.67508 -15.33964,-19.86339 l -0.25993,-0.45682 -0.18965,0.078 c -3.23831,-2.72759 -6.69893,-4.97868 -10.29085,-6.8771 l 0.0233,-0.10128 -0.58756,-0.20929 -0.006,-0.002 c -8.34417,-4.301 -17.39628,-6.5361 -26.36687,-6.47454 z m 0.0801,4.84364 c 1.51855,2.75786 3.16091,5.42744 5.25807,6.67969 1.54191,0.92071 3.42132,0.93697 5.08962,-0.42581 1.13068,-0.92366 2.18945,-2.69163 3.24838,-4.87877 0.0311,3.09191 0.90634,5.89526 2.80654,7.30084 1.32587,0.98074 3.11797,1.1393 4.89273,0.154 1.12726,-0.62588 2.25201,-1.89437 3.38635,-3.44113 -0.091,0.47685 -0.20995,0.96202 -0.2713,1.42575 -0.20741,1.5679 -0.24826,3.06182 0.41393,4.26175 0.66968,1.21351 2.08712,1.88197 4.10931,1.7694 1.49163,-0.083 3.60034,-0.73884 6.02961,-1.65209 -0.42684,0.58064 -0.79457,1.21116 -1.04335,1.90789 -0.55999,1.56817 -0.72762,3.22018 -0.25735,4.59559 0.47567,1.39123 1.75432,2.42232 3.56619,2.3828 0.79597,-0.0174 1.70027,-0.26429 2.69906,-0.68161 -0.65689,0.7273 -1.19036,1.43902 -1.45314,2.13888 -0.64486,1.71739 -0.15007,3.32426 1.06092,4.45089 2.35538,2.19117 7.0645,3.19823 12.33413,4.10311 3.70899,8.06879 6.05885,17.61295 6.57531,28.6179 -1.79348,-5.54813 -2.87626,-10.80648 -4.6638,-14.20689 -1.06851,-2.03259 -2.47414,-3.45924 -4.46278,-3.68401 -1.31853,-0.14903 -2.92996,0.42693 -4.7165,1.35547 0.5907,-1.07151 0.93764,-2.28065 1.06246,-3.50935 0.23903,-2.35287 -0.2597,-4.77352 -1.25625,-6.49262 -0.49828,-0.85955 -1.12583,-1.55306 -1.89446,-1.93942 -0.76863,-0.38635 -1.68726,-0.42513 -2.57194,-0.01 -0.85941,0.40369 -1.6984,1.2011 -2.5156,2.4412 0.35499,-2.09728 0.44152,-3.92258 0.18706,-5.3573 -0.46651,-2.63045 -1.89531,-4.21984 -3.68142,-4.64054 -1.78613,-0.4207 -3.81514,0.29317 -5.52525,1.87482 -0.88385,0.81747 -1.67224,1.89124 -2.3244,3.16208 0.13505,-2.58922 0.0194,-4.85664 -0.54467,-6.46266 -0.8578,-2.44261 -2.4457,-3.81814 -4.22869,-4.06435 -1.78296,-0.24621 -3.66472,0.61251 -5.14645,2.2965 -0.64114,0.72865 -1.16626,1.68393 -1.63091,2.71302 -0.58259,-4.09322 -3.31217,-6.71462 -6.19704,-7.24969 -1.95198,-0.36205 -3.98039,0.2429 -5.28753,1.93321 -0.93058,1.20339 -1.28165,3.11016 -1.27331,5.35368 -2.35836,-5.51803 -6.09298,-8.38429 -9.26352,-8.09201 v 5.2e-4 c -1.82836,0.16855 -3.37325,1.41976 -4.05091,3.53725 -0.30046,0.93886 -0.37479,2.10819 -0.33176,3.38067 -0.9607,-1.80787 -2.01943,-3.15261 -3.18792,-3.80855 -2.07482,-1.16472 -4.29944,-0.55747 -5.9216,0.88677 -1.62219,1.44423 -2.74447,3.70268 -2.88303,6.03115 -0.0558,0.93771 0.19568,1.86766 0.50798,2.77348 -1.76472,-1.30891 -3.43548,-2.28798 -4.89066,-2.64274 -2.33234,-0.5686 -4.27122,0.0227 -5.48029,1.36736 -2.07137,2.30377 -1.88719,6.51646 0.64234,10.50014 -2.54845,-1.64093 -4.66349,-2.70477 -6.20686,-2.89078 -0.97726,-0.11778 -1.81197,0.0384 -2.47271,0.44545 -0.66074,0.40704 -1.1229,1.04462 -1.43764,1.79679 -0.62948,1.50435 -0.73536,3.50516 -0.71469,5.6658 0.0165,1.7218 0.10163,3.49948 0.14056,5.21105 -0.92961,-1.16636 -1.85785,-2.36688 -2.76572,-3.04116 -0.60784,-0.45145 -1.21884,-0.76921 -1.85725,-0.86144 -0.63842,-0.0922 -1.29851,0.0749 -1.85157,0.51004 -0.92001,0.7239 -1.59978,2.13112 -2.15749,4.32532 0.72919,-6.0487 2.09931,-11.55652 4.01113,-16.51785 l 0.11317,-0.0103 h 0.002 c 3.40656,-0.32169 5.77582,-0.95048 7.40988,-1.88309 1.63799,-0.93488 2.51606,-2.24055 2.74247,-3.67161 0.30499,-1.92777 -0.49901,-3.9542 -1.42575,-5.96914 2.30501,1.35647 5.06823,1.41719 7.07036,0.12712 1.40582,-0.90584 2.38487,-2.4545 2.36523,-4.38061 -0.0113,-1.08334 -0.51131,-2.26959 -1.19734,-3.49436 1.90092,1.20973 3.93696,1.99042 5.75779,1.3379 1.41747,-0.50795 2.52013,-1.75375 2.86494,-3.59978 0.20129,-1.07762 0.0313,-2.44284 -0.29455,-3.93361 0.494,0.56258 1.02906,1.09491 1.64641,1.53531 1.58195,1.12849 3.32506,1.8755 4.96093,1.89446 1.64821,0.0187 3.20148,-0.85275 3.8747,-2.66599 0.38161,-1.02776 0.36409,-2.45182 0.19741,-4.04471 0.93945,1.53373 1.92487,2.86002 3.00757,3.65817 1.85302,1.36598 3.8383,1.71051 5.50819,1.12861 1.669,-0.58162 2.94687,-2.05049 3.53518,-4.00957 0.25577,-0.85166 0.3125,-1.80893 0.25942,-2.81843 z"
           id="path7" /></g><path
         id="path272"
         style="color:#000000;fill:#f9f9f9;stroke:#f9f9f9;stroke-width:0.096;stroke-dasharray:none;stroke-opacity:1"
         d="m 256.64638,179.53801 -231.841497,0.49211 0.0037,0.92676 8.355343,-0.0185 v 259.12216 h -9.054258 v 0.9258 h 9.054258 v 0.0296 h 0.925817 v -0.0296 h 89.444437 v -0.9258 H 34.089878 V 180.93676 l 222.556502,-0.47199 z m -0.004,69.18167 -204.714153,0.4921 0.0037,0.9258 8.979854,-0.023 v 185.31408 l -8.983689,0.0383 0.0037,0.92676 120.680038,-0.48827 -0.004,-0.92676 -110.769583,0.44616 V 250.1127 l 194.803683,-0.46722 z m -95.17936,33.53931 -92.454547,-0.70933 0.0037,0.92676 10.388616,-0.0306 v 41.82321 l -10.392452,0.0317 0.0037,0.9258 87.731623,-0.25274 -0.004,-0.92676 -76.413369,0.21924 V 282.44404 L 161.467,283.1859 Z m -0.007,3.43809 -62.923122,0.25276 0.0037,0.92676 8.614722,-0.0374 v 17.57008 l -8.618539,0.0383 0.0037,0.92676 8.614719,-0.0383 v 0.0383 h 0.92582 v -0.0421 l 47.58779,-0.21541 -0.004,-0.9258 -47.58396,0.21445 v -17.57009 l 53.3826,-0.21253 z"
         sodipodi:nodetypes="cccccccccccccccccccccccccccccccccccccccccccccccccccccccccccc" /><path
         id="path9"
         style="color:#000000;fill:#f9f9f9;stroke:#f9f9f9;stroke-width:0.096;stroke-dasharray:none;stroke-opacity:1"
         d="m 232.43542,341.76415 v 106.25708 h -20.39048 v -95.59726 h -0.50023 v 95.59726 H 194.2269 v -77.80145 h -0.92604 v 77.80145 h -18.84174 v -56.88231 h -0.92708 v 56.88231 0.92604 8.22844 h 0.92708 v -8.22844 h 18.84174 v 8.22844 h 0.92604 v -8.22844 h 17.31781 v 8.23051 h 0.50023 v -8.23051 h 20.39048 v 8.22844 h 0.92656 v -8.22844 h 24.3458 v 8.22844 h 0.92605 v -8.22844 h 22.12113 v 8.22844 h 0.92552 v -8.22844 h 19.72851 v 8.22844 h 0.92708 v -8.22844 h 20.54603 v 8.22844 h 0.92553 v -8.22844 h 14.59394 v 8.22844 h 0.92707 v -76.78446 h -0.92707 v 67.62998 h -14.59394 v -83.64554 h -0.92553 v 83.64554 h -20.54603 v -95.59778 h -0.92708 v 95.59778 H 281.68048 V 341.76415 h -0.92552 V 448.02123 H 258.63383 V 341.76415 h -0.92605 v 106.25708 h -24.3458 V 341.76415 Z m 132.81205,73.3609 v 50.21089 H 154.74508 V 416.06246 H 153.818 v 59.55399 h 0.92708 v -9.35499 h 210.50239 v 9.35499 h 0.92708 v -60.4914 z" /></g></g></svg>
