<?xml version="1.0" encoding="UTF-8" standalone="no"?>
<!-- Created with Inkscape (http://www.inkscape.org/) -->

<svg
   width="230.354"
   height="80"
   viewBox="0 0 60.947829 21.166667"
   version="1.1"
   id="svg1"
   inkscape:version="1.3 (0e150ed6c4, 2023-07-21)"
   sodipodi:docname="Fireshonks_Logo.svg"
   xmlns:inkscape="http://www.inkscape.org/namespaces/inkscape"
   xmlns:sodipodi="http://sodipodi.sourceforge.net/DTD/sodipodi-0.dtd"
   xmlns:xlink="http://www.w3.org/1999/xlink"
   xmlns="http://www.w3.org/2000/svg"
   xmlns:svg="http://www.w3.org/2000/svg">
  <sodipodi:namedview
     id="namedview1"
     pagecolor="#505050"
     bordercolor="#ffffff"
     borderopacity="1"
     inkscape:showpageshadow="0"
     inkscape:pageopacity="0"
     inkscape:pagecheckerboard="1"
     inkscape:deskcolor="#d1d1d1"
     inkscape:document-units="mm"
     inkscape:zoom="0.50867705"
     inkscape:cx="397.10854"
     inkscape:cy="286.0361"
     inkscape:current-layer="layer1" />
  <defs
     id="defs1">
    <linearGradient
       inkscape:collect="always"
       xlink:href="#linearGradient14"
       id="linearGradient15"
       x1="643.99664"
       y1="-93.535217"
       x2="643.99664"
       y2="-68.698082"
       gradientUnits="userSpaceOnUse"
       gradientTransform="rotate(-3.7260981,804.47799,-170.73631)" />
    <linearGradient
       id="linearGradient14"
       inkscape:collect="always">
      <stop
         style="stop-color:#e77900;stop-opacity:1;"
         offset="0"
         id="stop14" />
      <stop
         style="stop-color:#f09e00;stop-opacity:1;"
         offset="0.99972057"
         id="stop15" />
    </linearGradient>
  </defs>
  <g
     inkscape:label="Layer 1"
     inkscape:groupmode="layer"
     id="layer1">
    <g
       id="g16"
       transform="matrix(0.68199366,-0.02463579,0.02463579,0.68199366,-411.71904,74.359486)"
       style="stroke-width:1.46533"
       inkscape:export-filename="Fireshonks_Logo.png"
       inkscape:export-xdpi="422.98325"
       inkscape:export-ydpi="422.98325">
      <path
         style="color:#000000;-inkscape-font-specification:'Jolly Lodger';fill:#121c2d;stroke-width:1.46533;-inkscape-stroke:none;paint-order:stroke markers fill"
         d="m 679.99023,-84.466797 -0.42382,0.01172 -0.17188,0.189453 c -0.0885,0.04549 -0.22885,0.05432 -0.31641,0.105469 -0.34955,0.204222 -0.67403,0.469805 -0.99609,0.789062 -0.33241,0.329511 -0.63437,0.7037 -0.9043,1.119141 l -0.002,0.0039 -0.002,0.002 c -0.29019,0.453816 -0.47965,0.96129 -0.53516,1.486328 l -0.002,0.02148 -0.002,0.02148 c -0.0363,0.598767 0.0142,1.445708 0.1289,2.6875 0.0259,0.280575 0.0634,0.680476 0.0957,1.029297 -0.0215,-0.05049 -0.0322,-0.108396 -0.0547,-0.158203 -0.18073,-0.44003 -0.39202,-0.837268 -0.64258,-1.189453 -0.22817,-0.347119 -0.46382,-0.643838 -0.82227,-0.873047 l -0.0371,-0.02539 -0.0391,-0.01953 c -0.41278,-0.214492 -0.88303,-0.30603 -1.3457,-0.292969 -0.43829,-0.0041 -0.87739,0.07244 -1.30469,0.220703 -0.3757,0.117813 -0.74685,0.284094 -1.11328,0.486329 l -0.006,-0.01172 -0.0566,-0.08008 c -0.24222,-0.345804 -0.53361,-0.509554 -0.83789,-0.652344 -0.27129,-0.143145 -0.55905,-0.255273 -0.85742,-0.335938 -0.29759,-0.102854 -0.59936,-0.174152 -0.9043,-0.197265 -0.0626,-0.0054 -0.12682,-0.0062 -0.19141,-0.0059 l 0.0156,1.982422 c -1.6e-4,5e-6 -0.002,-5e-6 -0.002,0 l -0.0137,-1.982422 c -0.0185,9e-5 -0.0359,-0.0026 -0.0547,-0.002 -6.7e-4,2.4e-5 -10e-4,-2.4e-5 -0.002,0 -0.13437,0.0048 -0.28931,0.01796 -0.49414,0.105469 -0.19074,0.0815 -0.42747,0.297192 -0.55859,0.570313 -0.10372,0.21755 -0.14432,0.388291 -0.15625,0.523437 -0.0146,0.164953 -0.0145,0.327957 -0.008,0.513672 l 0.002,0.02734 0.002,0.02734 c 0.0277,0.301934 0.0622,0.664588 0.10157,1.089844 l 0.002,0.02148 0.002,0.02148 c 0.0551,0.403936 0.11416,0.843844 0.17578,1.318359 0.0249,0.18975 0.0468,0.340656 0.0703,0.515625 -0.13157,-0.418429 -0.27667,-0.794163 -0.44922,-1.128906 -0.16795,-0.364141 -0.33042,-0.686889 -0.72266,-0.964844 l -0.0312,-0.02148 -0.0352,-0.02148 c -0.34187,-0.20339 -0.72225,-0.314935 -1.12109,-0.373047 -0.37972,-0.07186 -0.77088,-0.101493 -1.16797,-0.08594 h -0.002 c -0.13565,-0.0011 -0.27018,0.0064 -0.4043,0.01563 l -0.0449,-0.0039 -0.0762,0.0078 h -0.002 c -0.18135,0.01674 -0.35906,0.04403 -0.53515,0.08008 -0.32133,0.05081 -0.60745,0.115411 -0.88281,0.226562 l -0.0195,0.0078 -0.0215,0.0098 c -0.38654,0.176693 -0.79877,0.400053 -1.24609,0.667969 l -0.008,0.0039 -0.006,0.0039 c -0.48998,0.304308 -0.89797,0.644398 -1.17382,1.117188 l -0.008,0.01367 -0.008,0.01367 c -0.26126,0.482856 -0.26518,0.859541 -0.29492,1.40039 l -0.002,0.01758 v 0.01758 c -0.009,0.496178 -0.0101,1.06735 -0.004,1.716796 v 0.01367 0.0098 c -0.15651,-0.290205 -0.31668,-0.576081 -0.50195,-0.822266 -0.24097,-0.346605 -0.51812,-0.654001 -0.92774,-0.853515 -0.6529,-0.323117 -1.39592,-0.342715 -2.14843,-0.185547 l -0.002,0.002 h -0.002 c -0.26937,0.05719 -0.55562,0.214195 -0.83008,0.306641 -0.0454,-0.550405 -0.089,-1.123687 -0.13672,-1.640625 -0.0872,-0.94445 -0.17344,-1.77437 -0.25781,-2.492188 v -0.002 c -0.087,-0.743443 -0.17898,-1.340433 -0.2832,-1.814453 -0.038,-0.214935 -0.074,-0.398713 -0.11914,-0.5625 -0.0243,-0.08817 -0.0499,-0.171198 -0.0937,-0.273438 -0.0438,-0.102239 -0.0644,-0.230917 -0.32227,-0.445312 l -0.043,-0.03516 -0.0449,-0.03125 c -0.18463,-0.121637 -0.40575,-0.181623 -0.5918,-0.189454 -5.5e-4,-2.3e-5 -0.001,2.3e-5 -0.002,0 -0.0318,-0.0013 -0.0308,0.02126 -0.0606,0.02148 v -0.02148 h -0.002 v 0.02148 c -0.46141,0.0042 -0.70599,0.158777 -0.94727,0.318359 -0.33594,0.210562 -0.64382,0.482058 -0.95703,0.814453 l -0.01,0.0098 -0.01,0.01172 c -0.30554,0.344481 -0.57882,0.731826 -0.82226,1.15625 -0.18534,0.30827 -0.24785,0.657665 -0.33789,0.998047 -0.24018,-0.263906 -0.48483,-0.525864 -0.79102,-0.751954 -0.38507,-0.300486 -0.80865,-0.579079 -1.27148,-0.841796 -0.45018,-0.267039 -0.917,-0.49556 -1.4004,-0.685547 -0.47077,-0.210034 -0.93829,-0.367675 -1.40234,-0.470703 -0.47327,-0.122242 -0.92781,-0.184062 -1.37695,-0.142579 -0.68439,0.06334 -1.08928,0.48031 -1.4375,0.923829 -0.33038,0.400406 -0.63264,0.877284 -0.92578,1.441406 -0.2894,0.556931 -0.5625,1.154187 -0.82032,1.792969 -0.25466,0.631035 -0.48293,1.252516 -0.68554,1.863281 l -0.004,0.01172 -0.004,0.01172 c -0.18337,0.606145 -0.32887,1.160117 -0.43554,1.667969 -3.2e-4,0.0014 3.2e-4,0.0025 0,0.0039 -0.11299,0.511172 -0.18659,0.902505 -0.10156,1.382813 0.1142,0.644279 0.43764,0.959905 0.8457,1.392578 l 0.008,0.0098 0.01,0.0078 c 0.3926,0.394831 0.85564,0.831004 1.39257,1.310547 l 0.0137,0.01172 0.0137,0.01172 c 0.54172,0.450114 1.11264,0.925081 1.71289,1.423829 l 0.006,0.0039 0.006,0.0059 c 0.60624,0.487654 1.16646,0.959399 1.67773,1.416016 l 0.0137,0.01172 0.0137,0.01172 c 0.51912,0.431339 0.94027,0.821408 1.25976,1.160157 l 0.0156,0.01758 0.0176,0.01563 c 0.29519,0.28416 0.33638,0.473802 0.30665,0.294922 -0.002,0.0292 -2.3e-4,0.09094 -0.0312,0.255859 -0.0308,0.163147 -0.0793,0.330988 -0.12891,0.5 -0.14283,-0.138379 -0.26784,-0.251877 -0.43164,-0.421875 -0.31262,-0.32444 -0.64542,-0.673009 -0.99805,-1.046875 -10e-4,-0.0014 -0.003,-0.0025 -0.004,-0.0039 -0.33336,-0.388489 -0.64952,-0.749346 -0.94532,-1.076172 -0.30783,-0.340141 -0.58839,-0.625053 -0.85351,-0.865235 -0.12968,-0.126729 -0.25104,-0.236034 -0.40625,-0.339843 -0.16049,-0.107339 -0.35147,-0.277816 -0.82227,-0.234375 h -0.002 c -0.41448,0.03836 -0.74954,0.328072 -0.90039,0.55664 -0.15085,0.228569 -0.20796,0.427897 -0.25586,0.632813 l -0.006,0.02148 -0.004,0.02148 c -0.059,0.312906 -0.095,0.658843 -0.11718,1.048828 l -0.002,0.02148 v 0.02344 c -0.004,0.377091 0.0116,0.766368 0.0488,1.169921 l 0.004,0.02539 0.002,0.02344 c 0.0559,0.391017 0.13784,0.728294 0.27344,1.050781 0.14644,0.40111 0.3349,0.611881 0.59961,0.921875 l 0.0215,0.02539 0.0234,0.02539 c 0.27199,0.278018 0.58831,0.580615 0.94922,0.914063 l 0.01,0.0098 0.01,0.0098 c 0.37642,0.32945 0.7712,0.665159 1.18359,1.007812 l 0.0176,0.01367 0.0195,0.01563 c 0.43605,0.328541 0.86172,0.631518 1.2793,0.910156 0.42703,0.284942 0.83171,0.513228 1.22656,0.689454 0.42222,0.206877 0.83649,0.372756 1.38867,0.27539 0.74154,-0.120726 1.19547,-0.615999 1.59375,-1.189453 l 0.002,-0.0039 c 0.39158,-0.560653 0.73575,-1.194007 1.03711,-1.896485 0.30042,-0.700331 0.53371,-1.4161 0.69921,-2.146484 v -0.0039 c 0.16421,-0.679423 0.1958,-1.262906 0.13477,-1.833985 0.19865,1.23517 0.41587,2.552511 0.68164,4.06836 l 0.0117,0.06641 0.0215,0.06445 c 0.0829,0.257983 0.20076,0.49909 0.35157,0.759766 l 0.0156,0.02539 0.0156,0.02539 c 0.17521,0.263914 0.3752,0.506604 0.59179,0.728516 0.20961,0.229977 0.4261,0.435122 0.66016,0.607422 l 0.0195,0.01563 0.0215,0.01367 c 0.31584,0.208127 0.74822,0.394855 1.25586,0.283204 l 0.0586,-0.01367 0.0566,-0.01953 c 0.62797,-0.219834 0.62134,-0.574345 0.66601,-0.722656 0.0447,-0.148311 0.0584,-0.251992 0.0703,-0.365234 0.0231,-0.219295 0.0281,-0.465617 0.0273,-0.773438 v -0.01758 c 0.0138,-0.656322 10e-4,-1.476072 -0.0371,-2.478515 v -0.002 c -0.0405,-1.025036 -0.10234,-2.169686 -0.18359,-3.4375 -0.0674,-1.048801 -0.14769,-2.127841 -0.23047,-3.21289 0.0124,-0.0059 0.0225,-0.01155 0.0352,-0.01758 0.0471,0.07883 0.10179,0.183781 0.15235,0.361328 l 0.01,0.03516 0.0137,0.03516 c 0.0581,0.157806 0.0903,0.321112 0.0957,0.503907 v 0.0332 l 0.004,0.03516 c -0.0111,-0.112275 0.005,0.21089 0.006,0.599609 v 0.02148 l 0.002,0.02344 c 0.018,0.381655 0.0337,0.848106 0.0488,1.396485 0.0135,0.527124 0.0213,1.099866 0.0254,1.71875 v 0.01367 l 0.002,0.01563 c 0.0218,0.620433 0.0392,1.195127 0.0527,1.726563 v 0.01758 0.01758 c 0.0314,0.529002 0.0559,0.987326 0.0742,1.375 l 0.002,0.02148 0.002,0.02148 c 0.0179,0.194058 0.0351,0.351961 0.0527,0.484375 0.0177,0.132414 0.006,0.189239 0.0859,0.416016 l 0.0137,0.03516 0.0156,0.03516 c 0.19826,0.450999 0.59154,0.67286 0.90625,0.779297 0.23712,0.08017 0.48461,0.133749 0.73437,0.160156 h 0.008 l 0.01,0.002 c 0.27218,0.02396 0.54327,0.01601 0.81445,-0.03906 0.13053,-0.02548 0.25876,-0.05496 0.41407,-0.123047 0.15752,-0.06906 0.38925,-0.171653 0.57422,-0.513672 l 0.0293,-0.05469 0.0234,-0.05859 c 0.11365,-0.29265 0.0675,-0.237779 0.0879,-0.345703 0.0204,-0.107925 0.0448,-0.24537 0.0742,-0.421875 0.0612,-0.367055 0.11991,-0.80606 0.18164,-1.322266 0.0609,-0.508963 0.12667,-1.071211 0.19531,-1.6875 0.0415,-0.372014 0.0751,-0.72506 0.11133,-1.083984 0.0407,0.102007 0.0133,0.185599 0.0957,0.318359 l 0.0195,0.03125 0.0234,0.03125 c 0.22412,0.305777 0.45766,0.566998 0.7461,0.779297 l 0.0195,0.01563 0.0215,0.01367 c 0.40246,0.265215 0.8193,0.358514 1.29883,0.421875 l 0.0215,0.0039 0.0234,0.002 c 0.25673,0.02258 0.56694,0.02988 0.97461,0.0293 0.39515,-5.81e-4 0.80888,-0.004 1.24024,-0.0078 h 0.0215 0.0215 c 0.44237,-0.02312 0.84793,-0.04404 1.21875,-0.06055 h 0.0234 l 0.0234,-0.002 c 0.40482,-0.0374 0.68506,-0.06886 0.92969,-0.119141 h 0.002 c 0.3777,-0.07765 0.72741,-0.187575 1.05078,-0.337891 l 0.0176,-0.0078 0.0156,-0.0078 c 0.46742,-0.238953 0.85117,-0.704486 1.00196,-1.207031 0.0853,-0.272628 0.0898,-0.512606 0.0879,-0.773437 0.0106,0.06183 0.0248,0.136278 0.0352,0.197265 l 0.002,0.01367 0.004,0.01367 c 0.13326,0.668009 0.24772,1.238406 0.34571,1.714844 v 0.002 0.002 c 0.0513,0.244446 0.0985,0.441253 0.15234,0.617187 0.0269,0.08797 0.0553,0.171233 0.0996,0.269532 0.0232,0.05145 0.11971,0.151504 0.16602,0.224609 0.17622,0.240554 0.51594,0.490178 0.84179,0.513672 0.34843,0.02512 0.57777,-0.08414 0.75196,-0.181641 l 0.0391,-0.02148 0.0352,-0.02539 c 0.23092,-0.157724 0.4397,-0.346975 0.64063,-0.564453 0.19693,-0.213156 0.37458,-0.439982 0.53125,-0.677734 l 0.0117,-0.01758 0.0117,-0.01953 c 0.14728,-0.247627 0.26304,-0.438126 0.33789,-0.757812 0.0867,-0.365579 0.0358,-0.330687 0.0332,-0.46875 -0.003,-0.139209 -0.0105,-0.312419 -0.0215,-0.53125 -0.0223,-0.437281 -0.0605,-0.949158 -0.11329,-1.529297 l -0.002,-0.0293 c -0.0382,-0.598261 -0.0878,-1.238318 -0.15039,-1.917969 l -0.002,-0.02539 c -0.0466,-0.697367 -0.0995,-1.343181 -0.1543,-1.939453 l -0.002,-0.0293 c -0.0379,-0.594229 -0.0749,-1.110253 -0.11524,-1.542969 v -0.002 c -0.0406,-0.440118 -0.0656,-0.696062 -0.0723,-0.767578 v -0.002 c -0.0157,-0.1741 -0.0133,-0.311095 -0.004,-0.40625 0.0155,-0.05429 0.0588,-0.196272 0.0156,-0.08594 v -0.002 c 0.009,-0.0234 0.0189,-0.03868 0.041,-0.0625 0.01,-0.0097 0.0513,-0.03532 0.0781,-0.05469 0.0505,0.113959 0.10255,0.228068 0.15234,0.410156 l 0.01,0.0332 0.0117,0.0332 c 0.068,0.194067 0.114,0.410357 0.13671,0.65625 -0.004,-0.04004 0.01,0.272725 0.0137,0.695313 v 0.01953 l 0.002,0.02148 c 0.0207,0.404657 0.0327,0.907297 0.0352,1.503906 v 0.01367 0.01367 c 0.0187,0.591505 0.0418,1.236563 0.0703,1.933594 0.0266,0.673997 0.0502,1.3131 0.0703,1.916016 v 0.01367 l 0.002,0.01367 c 0.0361,0.583828 0.0648,1.086463 0.0859,1.507813 v 0.02148 l 0.002,0.02148 c 0.0203,0.219646 0.0401,0.395277 0.0586,0.539062 0.0185,0.143785 4.9e-4,0.184841 0.0898,0.439453 l 0.0117,0.03516 0.0156,0.03516 c 0.17918,0.407573 0.53661,0.650184 0.83789,0.767578 l 0.0215,0.0078 0.0215,0.0078 c 0.23543,0.07959 0.4828,0.131596 0.73438,0.158203 l 0.008,0.002 h 0.008 c 0.24172,0.02129 0.46677,0.02652 0.68946,0.0059 l 0.0547,-0.0039 0.0527,-0.01172 c 0.25699,-0.0528 0.62472,-0.01824 0.95703,-0.632812 l 0.0293,-0.05469 0.0215,-0.05859 c 0.0809,-0.208416 0.0598,-0.207443 0.0684,-0.259766 0.009,-0.05232 0.0142,-0.102497 0.0215,-0.162109 0.0132,-0.107677 0.0285,-0.251983 0.0449,-0.419922 l 0.006,-0.04492 c 0.0541,-0.384635 0.10663,-0.84182 0.16015,-1.376953 l 0.004,-0.03125 c 0.0737,-0.569294 0.13369,-1.184725 0.17969,-1.847656 v -0.0098 c 0.0618,-0.684897 0.11686,-1.343315 0.16601,-1.974609 l 0.002,-0.002 v -0.002 c 0.0128,-0.175117 0.0117,-0.316488 0.0215,-0.484375 0.0713,0.513612 0.13402,0.945462 0.21094,1.519532 l 0.002,0.0059 v 0.0078 c 0.18938,1.273715 0.41231,2.713186 0.66797,4.31836 l 0.004,0.02148 0.004,0.02148 c 0.0657,0.320033 0.19282,0.587451 0.35352,0.865234 l 0.0234,0.04102 0.0273,0.03906 c 0.15569,0.218009 0.3208,0.434139 0.49414,0.648438 l 0.0137,0.01563 0.0137,0.01563 c 0.20101,0.228778 0.41746,0.433074 0.6543,0.607421 l 0.0273,0.01953 0.0273,0.01758 c 0.31019,0.198363 0.74976,0.351853 1.21289,0.25 l 0.0977,-0.02148 0.0898,-0.03906 c 0.42167,-0.185292 0.49075,-0.432481 0.54687,-0.5625 0.0561,-0.130019 0.0745,-0.217021 0.0918,-0.302734 0.0321,-0.158711 0.0466,-0.310477 0.0586,-0.486329 v -0.0098 c 0.0431,-0.412733 0.0636,-0.902191 0.0645,-1.492188 v -0.002 c -6.4e-4,-0.449764 -0.0105,-0.987194 -0.0195,-1.52539 0.26122,0.317785 0.49754,0.601665 0.80078,0.976562 l 0.006,0.0078 0.006,0.0059 c 0.55016,0.656317 1.16621,1.367023 1.84961,2.132812 l 0.0488,0.05469 0.0566,0.04883 c 0.20423,0.169741 0.38763,0.257314 0.60157,0.351563 l 0.0586,0.02539 0.0606,0.01758 c 0.22209,0.06589 0.45075,0.11884 0.68554,0.160157 l 0.041,0.0078 0.043,0.0039 c 0.22136,0.01949 0.43741,0.03162 0.64648,0.0332 h 0.0488 l 0.0488,-0.0059 c 0.27634,-0.0255 0.56828,-0.06925 0.88672,-0.302734 l 0.0195,-0.01563 0.0176,-0.01367 c 0.39826,-0.322121 0.39548,-0.74095 0.3789,-0.921875 -0.0166,-0.180925 -0.0546,-0.276884 -0.0898,-0.371094 -0.0705,-0.188419 -0.15384,-0.345504 -0.26367,-0.539062 -0.047,-0.09108 -0.12948,-0.221774 -0.1836,-0.320313 0.34252,0.285074 0.68596,0.572148 1.07813,0.859375 l 0.0156,0.01172 0.0156,0.0098 c 0.54048,0.363142 1.07346,0.684414 1.5957,0.960938 l 0.0195,0.0098 0.0195,0.0098 c 0.58089,0.275501 1.05075,0.488107 1.7129,0.378906 v 0.002 c 0.65688,-0.108303 1.05801,-0.516255 1.41992,-0.976563 0.33667,-0.428232 0.63547,-0.913898 0.90234,-1.453125 0.26705,-0.539611 0.47281,-1.098438 0.62109,-1.669922 0.17039,-0.589599 0.26439,-1.118745 0.1836,-1.662109 l -0.002,-0.0059 v -0.0059 c -0.0856,-0.534338 -0.35005,-0.955789 -0.69141,-1.378906 -0.29096,-0.383671 -0.62918,-0.768481 -1.01758,-1.160156 l -0.01,-0.0078 c -0.23328,-0.244165 -0.50149,-0.473053 -0.75782,-0.707031 0.56273,-0.107279 1.08096,-0.444878 1.36914,-0.898438 0.28142,-0.419818 0.48608,-0.891095 0.61328,-1.398437 0.13266,-0.464618 0.22022,-0.930285 0.25977,-1.396485 0.0551,-0.450774 0.0852,-0.796793 0.0156,-1.1875 -0.10935,-0.665691 -0.52408,-1.090438 -1.00391,-1.46875 -0.44817,-0.35337 -0.96145,-0.66571 -1.5332,-0.945312 -0.58006,-0.300444 -1.1861,-0.541772 -1.81446,-0.720703 h -0.002 c -0.62392,-0.184055 -1.20209,-0.277364 -1.76563,-0.226563 h -0.004 -0.004 c -0.6144,0.05677 -0.98202,0.401741 -1.30469,0.763672 -0.28699,0.320497 -0.55067,0.697989 -0.80664,1.136719 -0.0341,0.05854 -0.0657,0.129643 -0.0996,0.189453 -0.0329,-0.148826 -0.0204,-0.267678 -0.17773,-0.427734 -0.37938,-0.404245 -0.75641,-0.430505 -1.07422,-0.445313 h -0.01 c -0.31662,-0.01837 -0.64088,0.0024 -0.97657,0.05469 -0.30627,0.04769 -0.60828,0.115832 -0.9082,0.199218 -10e-4,3.29e-4 -0.002,0.0016 -0.004,0.002 -0.3159,0.07229 -0.59036,0.152815 -0.88867,0.355468 -0.40945,0.262779 -0.51143,0.481232 -0.7207,0.798828 l -0.01,0.01758 -0.0117,0.01758 c -0.14666,0.24431 -0.32057,0.562855 -0.49804,0.892578 -0.0594,-0.95124 -0.1213,-1.846564 -0.19336,-2.63086 l -0.002,-0.01953 c -0.0641,-0.88799 -0.13237,-1.624436 -0.20508,-2.210937 -0.0375,-0.302703 -0.0752,-0.544403 -0.12696,-0.761719 -0.0259,-0.108658 -0.0522,-0.209523 -0.10546,-0.335938 -0.0533,-0.126415 -0.0802,-0.314598 -0.45118,-0.542968 l -0.043,-0.02734 -0.0469,-0.02344 c -0.19836,-0.09528 -0.38835,-0.117212 -0.54102,-0.113281 z m -36.22265,3.207031 0.0859,-0.0039 h -0.043 z m 35.61914,-0.58789 c 0.0485,0.462304 0.0984,0.916789 0.14453,1.558594 v 0.0098 l 0.002,0.0098 c 0.0788,0.855191 0.15077,1.821094 0.21485,2.896484 0.0646,1.083777 0.12873,2.167436 0.19336,3.251953 l 0.1875,3.154297 0.0137,0.46875 c 0.0237,0.835569 0.043,1.626829 0.0586,2.373047 0.008,0.388829 0.01,0.694461 0.0137,1.039063 -0.18377,-1.168071 -0.3654,-2.324223 -0.50976,-3.294922 l -0.002,-0.01172 c -8e-5,-5.62e-4 9e-5,-0.0014 0,-0.002 -0.17137,-1.27876 -0.33024,-2.409374 -0.4746,-3.394531 l -0.002,-0.01758 c -0.12439,-0.968439 -0.22717,-1.808511 -0.31054,-2.519531 -0.0688,-0.744592 -0.12833,-1.373313 -0.17579,-1.886719 -0.1095,-1.18573 -0.1415,-2.002119 -0.12304,-2.347656 0.0218,-0.193222 0.0847,-0.387805 0.22851,-0.613281 4.1e-4,-6.31e-4 -4e-4,-0.0013 0,-0.002 0.1696,-0.260261 0.35336,-0.473275 0.54102,-0.671875 z m 9.99023,2.470703 c 0.21002,-0.0194 0.56805,0.01456 1.03907,0.154297 h 0.004 l 0.006,0.002 c 0.0421,0.01197 0.0793,0.03618 0.12109,0.04883 -0.67384,0.06354 -0.96745,0.491361 -1.1914,0.845703 -0.18205,0.288078 -0.35364,0.60647 -0.51758,0.955078 l -0.01,0.01953 -0.008,0.01953 c -0.14323,0.343731 -0.2689,0.68833 -0.375,1.033203 l -0.008,0.02539 -0.006,0.02344 c -0.089,0.353225 -0.14995,0.648291 -0.0742,1.066406 0.0496,0.34373 0.17117,0.520904 0.2793,0.664063 0.11733,0.15534 0.24535,0.286805 0.39648,0.43164 0.26189,0.251223 0.57823,0.548028 0.95313,0.892579 l 0.0176,0.01758 0.0195,0.01563 c 0.37475,0.311377 0.77379,0.658466 1.19336,1.039062 l 0.0156,0.01367 0.0156,0.01367 c 0.41744,0.346845 0.80041,0.70347 1.14843,1.068359 l 0.008,0.0059 0.006,0.0078 c 0.34821,0.3502 0.63915,0.682849 0.87109,0.990235 l 0.01,0.01172 0.01,0.01367 c 0.21849,0.270115 0.2756,0.454224 0.27539,0.449219 0.0126,0.0919 0.002,0.387158 -0.12305,0.818359 l -0.004,0.01367 -0.004,0.01563 c -0.11405,0.445002 -0.27526,0.8782 -0.48633,1.304688 -0.21506,0.434544 -0.44456,0.803388 -0.68359,1.107422 -0.21381,0.271945 -0.34566,0.271183 -0.18164,0.24414 0.16318,-0.02691 -0.11926,-0.02806 -0.52148,-0.208984 -0.12747,-0.06775 -0.26629,-0.163755 -0.39649,-0.238281 0.14655,0.051 0.2403,0.140737 0.47461,0.11914 0.55068,-0.0508 0.82092,-0.382621 0.99414,-0.626953 l 0.0176,-0.02539 0.0176,-0.0293 c 0.12784,-0.207845 0.2366,-0.429089 0.32812,-0.664063 0.0876,-0.224619 0.15268,-0.452613 0.20117,-0.683594 0.0649,-0.247502 0.1199,-0.463708 0.0898,-0.783203 l -0.004,-0.05273 -0.0117,-0.05469 c -0.12859,-0.625103 -0.43265,-0.845322 -0.78125,-1.173828 -0.3291,-0.310126 -0.72091,-0.634203 -1.18359,-0.984375 -0.45218,-0.342231 -0.94054,-0.699201 -1.46484,-1.068359 l 0.0156,0.01367 c -0.51462,-0.3788 -0.98989,-0.735019 -1.42773,-1.066407 -0.42116,-0.31875 -0.76335,-0.60441 -1.02149,-0.847656 -0.2382,-0.224461 -0.2605,-0.436956 -0.19726,-0.128906 0.0338,0.164596 4.3e-4,-0.01923 0.0762,-0.302734 l 0.002,-0.0078 0.002,-0.0078 c 0.0806,-0.322928 0.19472,-0.686 0.3418,-1.083985 l 0.002,-0.0078 0.004,-0.0078 c 0.14298,-0.407236 0.31017,-0.828526 0.50195,-1.261719 l 0.004,-0.0059 c 0.21361,-0.443689 0.42717,-0.851489 0.64258,-1.220703 0.20687,-0.35459 0.40372,-0.626465 0.57031,-0.8125 v -0.002 h 0.002 c 0.16269,-0.182605 0.23149,-0.128269 0.006,-0.107422 z m -45.42773,0.09375 h 0.002 c 0.14569,-0.01346 0.38911,0.0029 0.71289,0.08789 l 0.0195,0.0059 0.0195,0.0039 c 0.32621,0.07156 0.67664,0.189276 1.05079,0.357422 l 0.0234,0.0098 0.0234,0.0098 c 0.39311,0.153167 0.77427,0.338299 1.14453,0.558594 l 0.008,0.0059 0.01,0.0059 c 0.39623,0.224598 0.74411,0.456064 1.04688,0.693359 l 0.0117,0.0098 0.0137,0.0078 c 0.2853,0.210011 0.50228,0.420346 0.66015,0.621094 l 0.008,0.01172 0.01,0.0098 c 0.14162,0.170069 0.17019,0.270858 0.17383,0.291016 0.0181,0.116273 0.0307,0.474676 -0.006,0.974609 v 0.01758 l -0.002,0.01563 c -0.0192,0.473228 -0.0847,0.953437 -0.19922,1.443359 -0.0917,0.392257 -0.23243,0.712452 -0.38477,1.015625 -0.0104,-0.02666 -0.0189,-0.03011 -0.0293,-0.05859 -0.10193,-0.279763 -0.19644,-0.604082 -0.27929,-0.970703 l -0.002,-0.0039 c -0.0897,-0.40797 -0.17722,-0.795925 -0.26367,-1.169922 -0.0687,-0.371662 -0.13588,-0.707069 -0.19922,-1.017578 -0.002,-0.0126 -0.002,-0.01694 -0.004,-0.0293 -0.002,-0.0078 -0.004,-0.01767 -0.006,-0.02539 -0.0455,-0.308468 -0.0833,-0.555877 -0.1211,-0.740234 l -0.0488,-0.236328 -0.15235,-0.1875 c -0.23316,-0.288324 -0.48837,-0.415519 -0.7539,-0.533203 -0.28852,-0.159175 -0.62208,-0.293967 -1.03321,-0.25586 -0.78278,0.07229 -1.02991,0.550991 -1.29101,0.966797 l -0.01,0.01563 -0.01,0.01758 c -0.21851,0.379349 -0.41088,0.801104 -0.58399,1.269532 -0.17203,0.465499 -0.30743,0.931845 -0.40429,1.398437 -0.0987,0.450266 -0.15018,0.830941 -0.082,1.261719 0.0425,0.341594 0.15828,0.524993 0.27344,0.699219 0.12123,0.183401 0.26317,0.354562 0.4336,0.542968 l 0.01,0.01172 0.0117,0.01172 c 0.32569,0.338014 0.71528,0.730261 1.17187,1.175781 0.45024,0.439322 0.9407,0.91935 1.47071,1.441406 l 0.006,0.0059 0.006,0.0059 c 0.51184,0.488589 0.98807,0.977878 1.42773,1.46875 0.43628,0.487082 0.80503,0.949345 1.10742,1.380859 0.27603,0.393883 0.38411,0.690717 0.40039,0.804688 l 0.002,0.01563 0.004,0.01563 c 0.036,0.203488 0.0206,0.651995 -0.1289,1.269531 l -0.002,0.0078 -0.002,0.0078 c -0.13844,0.614736 -0.33365,1.21917 -0.58984,1.816406 -0.25682,0.598654 -0.53981,1.111037 -0.8418,1.542969 v 0.002 l -0.002,0.002 c -0.25972,0.374344 -0.43581,0.392933 -0.2793,0.369141 l -0.0156,0.002 -0.0156,0.0039 c 0.17763,-0.03283 0.0667,0.01068 -0.17773,-0.109375 l -0.0195,-0.0098 -0.0176,-0.0078 c -0.26741,-0.117816 -0.58986,-0.296662 -0.95313,-0.539062 -0.37716,-0.251667 -0.76863,-0.530591 -1.17187,-0.833985 -0.3855,-0.320585 -0.75353,-0.633447 -1.10352,-0.939453 l -0.008,-0.0078 c -0.004,-0.0032 -0.008,-0.0065 -0.0117,-0.0098 -0.32331,-0.29921 -0.59823,-0.568592 -0.83008,-0.804687 -0.17538,-0.219074 -0.27915,-0.420522 -0.23242,-0.28711 l -0.0117,-0.03711 -0.0156,-0.03516 c -0.0327,-0.07443 -0.0926,-0.279311 -0.13477,-0.560547 -0.0121,-0.135353 -0.009,-0.255433 -0.0156,-0.384766 0.26166,0.291235 0.53437,0.598217 0.83008,0.94336 l 0.0156,0.01758 0.0156,0.01758 c 0.35905,0.380699 0.69892,0.735694 1.01758,1.066406 0.32888,0.341307 0.62871,0.636234 0.90625,0.884766 l 0.0137,0.01172 0.0137,0.01172 c 0.32309,0.26845 0.69566,0.573318 1.35352,0.466797 0.55763,-0.07568 0.85311,-0.423664 1.0293,-0.699219 l 0.0137,-0.02148 0.0117,-0.02148 c 0.1419,-0.248633 0.26161,-0.517413 0.36328,-0.804688 l 0.004,-0.01172 0.004,-0.01367 c 0.0954,-0.295142 0.17227,-0.592283 0.22852,-0.890625 0.0572,-0.30402 0.0929,-0.563216 0.0644,-0.86914 l -0.004,-0.04102 -0.006,-0.04102 c -0.11829,-0.667558 -0.47048,-0.97517 -0.89648,-1.384766 -0.38231,-0.403067 -0.84152,-0.828046 -1.38281,-1.279297 l -0.0234,-0.01953 c -0.53055,-0.473095 -1.10302,-0.957511 -1.71875,-1.453125 l -0.0137,-0.0098 c -0.59338,-0.493041 -1.15838,-0.964015 -1.69531,-1.410156 -10e-4,-0.0011 -0.003,-0.0028 -0.004,-0.0039 -0.49487,-0.442749 -0.91726,-0.839878 -1.26367,-1.1875 l -0.006,-0.0059 c -0.003,-0.0033 -0.008,-0.0084 -0.0117,-0.01172 -0.26832,-0.301966 -0.35582,-0.568764 -0.31836,-0.357422 0.0106,0.05966 -3.3e-4,-0.214402 0.0879,-0.613282 v -0.0059 l 0.002,-0.0059 c 0.09,-0.429906 0.21946,-0.927205 0.38672,-1.482422 l 0.004,-0.01172 c 0.18786,-0.565479 0.40051,-1.144222 0.63867,-1.734375 0.23665,-0.586339 0.48339,-1.126812 0.74024,-1.621094 0.24949,-0.480122 0.49147,-0.848788 0.70312,-1.103515 l 0.01,-0.01172 0.008,-0.01172 c 0.19433,-0.247971 0.28901,-0.196746 0.0625,-0.175781 z m 8.5918,0.238281 c 0.0482,0.297022 0.0971,0.526309 0.14453,0.931641 0.0818,0.69608 0.16581,1.512238 0.25195,2.445312 0.0845,0.91544 0.16539,1.884238 0.24219,2.908203 l 0.11133,1.490235 0.006,-0.002 0.0332,0.43164 c 0.10341,1.307387 0.19456,2.590566 0.27539,3.847657 0.0804,1.254873 0.13999,2.385835 0.17969,3.390625 0.0103,0.267772 0.003,0.406875 0.01,0.646484 -0.2416,-1.395591 -0.46894,-2.734971 -0.64844,-3.869141 v -0.002 c -0.21555,-1.3695 -0.40032,-2.581067 -0.55078,-3.632812 -0.15006,-1.04904 -0.27807,-1.956145 -0.38476,-2.726563 l -0.002,-0.02148 c -0.0878,-0.762025 -0.15788,-1.412863 -0.20703,-1.945313 v -0.0078 -0.0059 c -0.13245,-1.247154 -0.18813,-2.100923 -0.18554,-2.513671 0.024,-0.21447 0.0897,-0.426145 0.23437,-0.666016 l 0.006,-0.01172 0.006,-0.0098 c 0.14966,-0.262242 0.31303,-0.474177 0.47852,-0.677735 z m 38.85546,0.01172 0.12696,0.05469 c -0.0194,-0.0097 -0.0465,-0.0045 -0.0664,-0.01367 -0.0203,-0.0072 -0.0405,-0.03425 -0.0606,-0.04102 z m 0.86329,0.619141 c 0.29785,0.166577 0.60622,0.333259 0.83007,0.509765 0.28926,0.228059 0.29813,0.372423 0.27539,0.230469 l 0.002,0.01172 0.002,0.01172 c -0.003,-0.01372 0.014,0.242048 -0.0312,0.611329 l -0.004,0.02148 v 0.02148 c -0.0276,0.3444 -0.0927,0.696127 -0.19726,1.058594 l -0.006,0.01758 -0.004,0.01758 c -0.0393,0.158952 -0.11485,0.265097 -0.17187,0.396485 -0.0398,-0.122706 -0.085,-0.209567 -0.1211,-0.34961 -0.0905,-0.433097 -0.17176,-0.8583 -0.24414,-1.27539 -0.0791,-0.455701 -0.14193,-0.770678 -0.2207,-1.035157 l -0.0488,-0.164062 z m -42.02149,0.259765 0.0176,0.02148 c -0.004,-0.0046 -0.0101,-0.0072 -0.0137,-0.01172 -0.002,-0.0027 -0.002,-0.007 -0.004,-0.0098 z m 34.35547,0.132813 c -0.13158,0.225629 -0.22312,0.396908 -0.38672,0.666015 -0.34778,0.572092 -0.75419,1.207301 -1.21875,1.902344 -0.3751,0.561201 -0.75189,1.102445 -1.12891,1.640625 0.25862,-0.479987 0.51059,-0.960204 0.75391,-1.439453 l 0.004,-0.0059 0.004,-0.0078 c 0.24936,-0.511554 0.48398,-0.966136 0.70313,-1.361328 l 0.006,-0.0098 0.004,-0.0078 c 0.22243,-0.421265 0.41375,-0.76654 0.57032,-1.027344 0.13678,-0.171115 0.30578,-0.312646 0.10742,-0.189453 l 0.0234,-0.01563 0.0234,-0.01563 c -0.0746,0.0523 0.0224,-0.01328 0.22071,-0.05859 l 0.0254,-0.0059 0.0254,-0.0059 c 0.0879,-0.02504 0.17587,-0.0377 0.26367,-0.05859 z m -15.18359,0.07813 c 0.095,0.03517 0.19636,0.06239 0.2832,0.109375 l 0.0254,0.01367 0.0273,0.01367 c 0.10137,0.04722 0.0715,0.02946 0.0488,0.002 0.0337,0.07314 0.0634,0.13972 0.10352,0.222656 l 0.01,0.01953 0.0117,0.02148 c -0.0359,-0.06626 0.0392,0.102414 0.0937,0.359375 l 0.31641,1.486329 0.6582,-0.47461 c -0.11407,0.154534 -0.23897,0.301833 -0.30859,0.480469 -0.11036,0.282266 -0.0857,0.299286 -0.125,0.494141 l -0.01,0.04297 -0.004,0.04687 c -0.0285,0.265208 -0.0255,0.532905 0,0.8125 v 0.002 c 0.007,0.0708 0.0314,0.326839 0.0723,0.769532 0.0382,0.409212 0.0753,0.916964 0.11328,1.515625 v 0.01367 l 0.002,0.01367 c 0.0548,0.593401 0.10752,1.242803 0.15429,1.945313 v 0.01172 l 0.002,0.01367 c 0.063,0.681974 0.11077,1.319966 0.14843,1.914062 l 0.002,0.01367 0.002,0.01367 c 0.0343,0.374724 0.0494,0.658388 0.0703,0.96289 -0.002,-0.0097 -0.002,-0.01562 -0.004,-0.02539 l -0.006,-0.02734 c -0.11657,-0.682813 -0.24552,-1.413764 -0.38868,-2.197266 v -0.002 c -0.14524,-0.803438 -0.27953,-1.571735 -0.40039,-2.304687 -0.12132,-0.735778 -0.22603,-1.401712 -0.3164,-1.996094 -0.09,-0.592134 -0.15604,-1.014477 -0.19922,-1.285156 l -0.002,-0.01758 c -0.0509,-0.362165 -0.10503,-0.765422 -0.16407,-1.214844 v -0.002 c -0.0601,-0.462808 -0.11785,-0.89076 -0.17187,-1.28711 -0.0174,-0.187824 -0.0298,-0.316933 -0.0449,-0.480468 z m 4.50195,0.363281 h 0.0273 0.0274 c 0.14879,-0.0054 0.23922,0.02485 0.33203,0.06641 0.008,0.01018 0.0862,0.07188 0.21289,0.265625 l 0.0137,0.01758 0.0117,0.01758 c 0.14988,0.208258 0.29986,0.481184 0.4375,0.81836 l 0.008,0.01758 0.008,0.01758 c 0.15259,0.335491 0.27886,0.703047 0.37891,1.103516 l 0.006,0.02148 0.006,0.01953 c 0.11269,0.378444 0.18373,0.73596 0.21484,1.072266 v 0.002 c 0.0187,0.200435 0.0228,0.584702 0.002,1.099609 v 0.01563 0.01563 c -0.004,0.510493 -0.0281,1.083257 -0.0742,1.712891 -0.0486,0.623908 -0.10278,1.276051 -0.16407,1.955078 l -0.002,0.0098 v 0.01172 c -0.0446,0.647867 -0.10356,1.239789 -0.17383,1.777343 l -0.002,0.01563 -0.002,0.01563 c -0.005,0.05264 -0.0104,0.0799 -0.0156,0.13086 -0.0106,-0.181079 -0.017,-0.322208 -0.0293,-0.521485 l -0.002,-0.0293 c -0.0201,-0.59975 -0.042,-1.232243 -0.0684,-1.90039 v -0.002 c -0.0279,-0.681761 -0.0519,-1.309012 -0.0703,-1.886719 v -0.02734 c -0.003,-0.588818 -0.0157,-1.095379 -0.0371,-1.529297 -0.004,-0.433243 -0.002,-0.636059 -0.0215,-0.855468 v -0.002 c -0.0351,-0.379791 -0.11303,-0.745907 -0.23243,-1.095703 -0.0936,-0.335565 -0.20375,-0.642628 -0.35156,-0.921875 -0.14847,-0.280467 -0.35241,-0.53734 -0.6289,-0.748047 -0.11439,-0.103723 -0.23708,-0.212614 -0.45118,-0.287109 -0.20916,-0.07278 -0.50481,-0.0301 -0.76171,0.05078 0.24704,-0.132248 0.48703,-0.245296 0.71093,-0.314453 l 0.0176,-0.0059 0.0176,-0.0059 c 0.25065,-0.08785 0.46518,-0.120745 0.65625,-0.117187 z m -60.22656,0.308594 c -0.62679,-0.01491 -1.29587,-0.0069 -2.01563,0.02344 -0.36366,0.01529 -0.71574,0.0343 -1.05664,0.05664 -0.34141,0.02238 -0.67289,0.04865 -0.99219,0.07813 -0.62826,0.05803 -1.17445,0.144028 -1.66015,0.269531 -0.25005,0.05527 -0.46995,0.116651 -0.69336,0.220703 -0.22427,0.104453 -0.50948,0.247431 -0.70313,0.666016 -0.18505,0.395244 -0.13038,0.499681 -0.13476,0.697265 -0.004,0.201957 0.005,0.432513 0.0215,0.714844 0.0313,0.544559 0.0925,1.205815 0.1836,1.996094 0.0895,0.776357 0.18736,1.651468 0.29492,2.623047 l 0.002,0.0078 v 0.0098 c 0.1262,0.976852 0.26296,1.9703 0.41016,2.980469 0.1465,1.005597 0.29224,1.992457 0.43554,2.96289 0.14363,0.973084 0.27868,1.859141 0.40625,2.65625 l 0.002,0.0098 0.002,0.01172 c 0.14491,0.793116 0.26968,1.454074 0.37305,1.986328 l 0.002,0.01953 0.006,0.01758 c 0.0619,0.265414 0.11727,0.48254 0.17187,0.666016 0.0546,0.183476 0.0688,0.297288 0.22266,0.544922 l 0.0117,0.01953 0.0137,0.01953 c 0.29294,0.425809 0.57437,0.82574 0.8457,1.201172 l 0.0156,0.02148 0.0176,0.02148 c 0.38535,0.476444 0.95822,0.918746 1.68554,0.851562 0.35166,-0.03255 0.63854,-0.264989 0.76563,-0.435547 0.12709,-0.170558 0.1673,-0.301746 0.20117,-0.416015 0.0661,-0.222918 0.0814,-0.404287 0.0937,-0.617188 0.0412,-0.402229 0.0622,-0.864957 0.0664,-1.410156 v -0.002 -0.002 c 0.002,-0.572293 -0.0177,-1.192574 -0.0606,-1.859375 -0.0268,-0.683446 -0.0593,-1.340547 -0.0996,-1.970703 v -0.002 c -0.0393,-0.616835 -0.0835,-1.171365 -0.12891,-1.669922 l -0.002,-0.0332 c -0.004,-0.07649 -0.008,-0.103668 -0.0117,-0.173829 0.55601,-0.09006 1.17759,-0.183871 1.5586,-0.267578 0.29694,-0.06413 0.5299,-0.117913 0.71289,-0.166015 0.0915,-0.02405 0.17011,-0.04659 0.25195,-0.07422 0.0818,-0.02763 0.11247,0.01961 0.39258,-0.207031 0.30572,-0.247724 0.44688,-0.518566 0.57031,-0.804688 l 0.006,-0.01758 0.008,-0.01563 c 0.038,-0.09752 0.0558,-0.201238 0.0879,-0.300781 0.0415,0.353342 0.0745,0.67797 0.13477,1.091797 v 0.002 c 0.097,0.659099 0.20688,1.352734 0.32812,2.080078 0.12218,0.733145 0.24756,1.414124 0.37891,2.042969 0.13075,0.62606 0.25296,1.148819 0.36914,1.578125 l 0.006,0.01953 0.006,0.01953 c 0.0714,0.225935 0.13443,0.406325 0.22852,0.59375 0.047,0.09371 0.0945,0.189469 0.21484,0.324219 0.11162,0.125038 0.39842,0.337941 0.82617,0.335937 0.32821,0.01867 0.60291,-0.0119 0.91406,-0.09375 l 0.0254,-0.0078 0.0254,-0.0078 c 0.51333,-0.164864 0.99469,-0.539911 1.25,-1.03125 l 0.008,-0.01367 0.006,-0.01563 c 0.15514,-0.323098 0.13049,-0.430072 0.14843,-0.611329 0.018,-0.181257 0.0276,-0.384929 0.0332,-0.632812 v -0.0039 -0.002 c 0.009,-0.508831 2.3e-4,-1.094921 -0.0254,-1.767579 l 0.002,0.02344 c -0.009,-0.689895 -0.0308,-1.413294 -0.0644,-2.169922 -0.0349,-0.769499 -0.0836,-1.485722 -0.14453,-2.152344 v -0.0098 c -0.0397,-0.600717 -0.0906,-1.090748 -0.14454,-1.539063 0.0184,0.114124 0.0255,0.151797 0.0469,0.285156 v 0.002 h 0.002 c 0.0837,0.515305 0.18062,1.099876 0.29492,1.753906 0.11488,0.65727 0.24147,1.338978 0.37891,2.046875 0.13572,0.699075 0.25724,1.346414 0.36523,1.939453 l 0.004,0.01563 0.004,0.01563 c 0.12534,0.580514 0.2325,1.073914 0.32422,1.480469 0.0495,0.219127 0.0958,0.396956 0.15039,0.5625 0.0434,0.131558 0.11901,0.298915 0.32226,0.523437 0.21198,0.231765 0.56681,0.428244 0.85352,0.425781 0.31375,-0.0027 0.51052,-0.101079 0.67187,-0.191406 l 0.0391,-0.02148 0.0352,-0.02539 c 0.18474,-0.126176 0.37083,-0.26866 0.5586,-0.427734 l 0.0234,-0.01953 0.0234,-0.02148 c 0.20168,-0.194328 0.38447,-0.402445 0.54688,-0.623047 0.15659,-0.212806 0.28592,-0.370249 0.38476,-0.703125 l 0.008,-0.02734 0.006,-0.0293 c 0.0774,-0.33121 0.035,-0.334951 0.0293,-0.458985 -0.006,-0.124033 -0.0167,-0.267877 -0.0332,-0.445312 l 0.002,0.05078 c -0.0145,-0.351126 -0.0446,-0.766434 -0.0879,-1.240234 l -0.002,-0.03516 c -0.029,-0.500554 -0.0688,-1.032109 -0.1211,-1.597656 l 0.004,0.03125 c -0.0356,-0.577879 -0.0789,-1.129868 -0.12695,-1.654297 l 0.004,0.0332 c -0.0301,-0.524713 -0.0642,-0.988315 -0.10156,-1.392578 -0.0153,-0.322475 -0.0267,-0.534115 -0.041,-0.701172 -7e-5,-0.313365 0.008,-0.519127 0.0176,-0.669921 0.009,0.02671 0.011,0.01893 0.0195,0.04687 v 0.002 l 0.002,0.0039 c 0.11908,0.380658 0.25727,1.075909 0.3789,2.017578 l 0.14649,1.142578 1.10937,-0.314453 c 0.5729,-0.163162 1.02615,-0.305908 1.38281,-0.441406 0.20646,-0.07843 0.34905,-0.154427 0.50977,-0.228516 0.0328,0.688028 0.085,1.384079 0.16797,2.095703 0.0874,0.751492 0.17864,1.441938 0.27344,2.072266 l 0.002,0.01367 0.002,0.01367 c 0.11347,0.632328 0.22947,1.179372 0.34961,1.648437 v 0.0039 l 0.002,0.0039 c 0.12253,0.465783 0.11588,0.755029 0.56641,1.210937 0.40024,0.419653 0.77161,0.543357 1.33203,0.761719 l 0.0137,0.0039 0.0137,0.0059 c 0.57458,0.204912 1.20124,0.370018 1.88086,0.498046 l 0.0137,0.002 0.0117,0.002 c 0.70721,0.113821 1.4217,0.147495 2.13476,0.101562 h 0.0137 l 0.0137,-0.002 c 0.803,-0.07417 1.55309,-0.361278 2.125,-0.878906 0.30249,-0.27378 0.47167,-0.594953 0.60742,-0.94336 l 0.006,-0.01172 0.004,-0.01367 c 0.11424,-0.318299 0.21251,-0.656713 0.29688,-1.017578 l 0.002,-0.0078 0.002,-0.0078 c 0.0803,-0.37004 0.13986,-0.74798 0.18164,-1.13086 v -0.002 c 0.054,-0.379167 0.0937,-0.723835 0.1211,-1.042969 0.0451,-0.354717 0.0709,-0.66118 0.0684,-0.943359 v -0.002 c -10e-4,-0.124663 -0.005,-0.231786 -0.0156,-0.341797 -0.0102,-0.110011 0.004,-0.192485 -0.10351,-0.441406 l -0.0937,-0.216797 -0.1836,-0.152344 c -0.0614,-0.05108 -0.0687,-0.01929 -0.11914,-0.05078 0.0724,-0.05448 0.1781,-0.105321 0.29102,-0.394531 l 0.0273,-0.06641 0.0156,-0.07031 c 0.0774,-0.331199 0.0331,-0.334952 0.0273,-0.458984 -0.006,-0.123492 -0.0168,-0.266987 -0.0332,-0.44336 v -0.002 c -0.0312,-0.339616 -0.0742,-0.694768 -0.125,-1.060547 l -0.006,-0.04687 c -0.0364,-0.386235 -0.0775,-0.751749 -0.12695,-1.091797 -0.0481,-0.330536 -0.0767,-0.564263 -0.0762,-0.558593 l -0.002,-0.02148 -0.004,-0.02344 c -0.11102,-0.789669 -0.2685,-1.474341 -0.49218,-2.06836 -0.21688,-0.589195 -0.39946,-1.045962 -0.87305,-1.439453 -0.55381,-0.460149 -1.25845,-0.645571 -2.02148,-0.683594 -0.26681,-0.01422 -0.53559,-0.01072 -0.80665,0.0098 h -0.002 c -0.005,3.98e-4 -0.0104,-4.11e-4 -0.0156,0 -0.46377,0.03623 -0.93169,0.123441 -1.40235,0.255859 -0.76506,0.215263 -1.48419,0.55184 -2.14258,1.003907 -0.69068,0.474252 -1.22072,1.106123 -1.51953,1.845703 -0.0952,-0.279842 -0.18824,-0.560631 -0.31445,-0.816406 -0.1473,-0.345325 -0.3147,-0.657749 -0.50781,-0.941407 -0.19779,-0.336441 -0.41816,-0.652479 -0.84375,-0.867187 l -0.24219,-0.121094 -0.21875,0.01367 c -0.28516,-0.08479 -0.56825,-0.18555 -0.86523,-0.179688 -0.39899,-0.0084 -0.79922,0.051 -1.1836,0.179688 l -0.006,0.002 -0.008,0.002 c -0.35863,0.125685 -0.70992,0.302831 -1.0625,0.521485 -10e-4,8.06e-4 -0.003,0.0011 -0.004,0.002 -0.0638,0.03765 -0.13415,0.0857 -0.19921,0.125 -0.13984,-0.09533 -0.27077,-0.23338 -0.42383,-0.304688 -0.28843,-0.134378 -0.59562,-0.228006 -0.91211,-0.291015 -0.30108,-0.08129 -0.60739,-0.131642 -0.91406,-0.128907 -0.0422,-0.0023 -0.0833,-0.0061 -0.12891,-0.0059 -0.11921,7.31e-4 -0.24888,0.0045 -0.42969,0.06055 -0.16214,0.05026 -0.40328,0.206965 -0.58203,0.46875 -0.0488,0.07393 -0.0442,0.113203 -0.0664,0.171875 -0.0357,-0.230202 -0.0384,-0.458965 -0.18164,-0.689453 l -0.0234,-0.03711 -0.29102,-0.46875 -0.31641,0.02148 c -0.2802,-0.120951 -0.56629,-0.175334 -0.82226,-0.160157 v -0.01172 c -6.3e-4,1.8e-5 -10e-4,-2e-5 -0.002,0 -0.0101,3.06e-4 -0.0192,0.0074 -0.0293,0.0078 -0.009,7.16e-4 -0.0219,-0.0048 -0.0312,-0.0039 v 0.0098 c -0.40096,0.02069 -0.79686,0.115587 -1.17578,0.279296 -0.123,0.04772 -0.22236,0.14132 -0.33985,0.201172 0.005,-0.03017 0.0167,-0.05759 0.0215,-0.08789 0.0765,-0.409441 0.12243,-0.790273 0.13281,-1.152344 0.0134,-0.193131 0.018,-0.368834 -0.01,-0.570313 -0.029,-0.210446 -0.0524,-0.51192 -0.42578,-0.822265 -0.22692,-0.188451 -0.33897,-0.196031 -0.4375,-0.22461 -0.0985,-0.02858 -0.17929,-0.04458 -0.26562,-0.05859 -0.17099,-0.02774 -0.35864,-0.04563 -0.58789,-0.0625 h -0.006 c -0.44686,-0.03565 -0.98121,-0.05031 -1.60742,-0.04687 z m 58.88086,0.06445 c -0.0637,0.01592 -0.11724,0.05867 -0.17969,0.07813 -0.0104,0.0048 -0.023,-0.0032 -0.0332,0.002 z m -0.8125,0.33789 c -0.015,0.0084 -0.0262,0.02264 -0.041,0.03125 -0.0102,0.0067 -0.0231,0.0068 -0.0332,0.01367 z m 18.91796,0.275391 c 0.0694,0.388087 0.14274,0.780356 0.22657,1.179688 l 0.004,0.01953 0.006,0.02148 c 0.0452,0.176341 0.11504,0.316056 0.16797,0.480469 -0.24285,-0.22529 -0.49002,-0.454382 -0.66992,-0.626953 -0.0525,-0.05034 -0.0622,-0.0653 -0.0937,-0.09961 0.003,-0.0094 0.0177,-0.01077 0.0293,-0.0957 0.0837,-0.2721 0.18527,-0.548784 0.30078,-0.828125 0.009,-0.0199 0.0199,-0.03127 0.0293,-0.05078 z m -27.15234,0.310547 c -0.0171,0.0051 -0.0318,0.01611 -0.0488,0.02148 -0.0126,0.0049 -0.0265,0.0047 -0.0391,0.0098 z m -0.61328,0.261719 c -0.0121,0.0058 -0.0251,0.02158 -0.0371,0.02734 -0.0167,0.0098 -0.0363,0.01322 -0.0527,0.02344 z m -17.31445,0.136718 c 0.0566,0.279835 0.11337,0.578433 0.17578,0.916016 l 0.004,0.02148 0.006,0.02148 c 0.0884,0.382055 0.17801,0.781091 0.26953,1.197265 l 0.002,0.002 v 0.002 c 0.0985,0.436731 0.21455,0.842722 0.35156,1.21875 0.0513,0.140902 0.1309,0.2459 0.18945,0.375 -0.089,-0.08703 -0.19508,-0.191309 -0.28125,-0.275391 -0.43754,-0.426912 -0.80424,-0.793299 -1.10742,-1.107422 l -0.008,-0.0098 c -0.10597,-0.118019 -0.17106,-0.203461 -0.21094,-0.259766 0.002,-0.0204 -0.006,-0.17616 0.0605,-0.478516 v -0.0059 l 0.002,-0.0059 c 0.0758,-0.367449 0.18318,-0.741401 0.32422,-1.123047 0.0713,-0.192904 0.148,-0.325831 0.22266,-0.488282 z m 31.6914,0.103516 0.0117,0.04297 c -0.002,-0.0076 -0.006,-0.01389 -0.008,-0.02148 -0.002,-0.0072 -0.002,-0.01426 -0.004,-0.02148 z m 8.18946,0.126953 c -0.0271,0.09608 -0.0683,0.202956 -0.0918,0.296875 -0.10932,0.408979 -0.20163,0.729826 -0.10352,1.207031 0.12804,0.623728 0.43222,0.846881 0.78125,1.175782 0.32909,0.310102 0.72091,0.634194 1.1836,0.984375 0.22934,0.173579 0.49694,0.370926 0.74609,0.55664 -0.12522,-0.04653 -0.12161,-0.148891 -0.38086,-0.125 -0.35536,0.03276 -0.68311,0.267894 -0.8418,0.478516 -0.15605,0.207134 -0.21531,0.391245 -0.26171,0.566406 -0.0827,0.286666 -0.12183,0.581062 -0.13477,0.900391 l -0.002,0.0332 0.002,0.0332 c 0.006,0.24704 0.0223,0.494234 0.043,0.742188 -0.0509,-0.07525 -0.0863,-0.136178 -0.13867,-0.212891 -0.41359,-0.605583 -0.81599,-1.195243 -1.20899,-1.767578 -0.3981,-0.579788 -0.77548,-1.10835 -1.13086,-1.587891 l 0.0156,0.01953 c -0.15342,-0.218928 -0.22801,-0.324265 -0.3457,-0.492187 0.34554,-0.49568 0.69163,-0.989959 1.03515,-1.503906 0.31539,-0.471868 0.56748,-0.882228 0.83399,-1.304688 z m -23.11914,0.01758 c -0.007,0.0073 -7.6e-4,0.01991 -0.008,0.02734 -0.0168,0.01859 -0.0296,0.01244 -0.0469,0.0332 z m -0.0606,0.1875 c -0.35236,0.454646 -0.53386,1.007227 -0.50586,1.550782 l 0.002,0.01953 0.002,0.01953 c 0.003,0.02915 0.0225,0.42366 0.041,1.007813 v 0.01563 0.01367 c 0.0352,0.580998 0.0851,1.212097 0.14844,1.894532 0.0614,0.664525 0.12764,1.284069 0.19922,1.861328 l 0.002,0.01563 0.002,0.01563 c 0.0475,0.305095 0.0968,0.559857 0.16016,0.789062 0.0634,0.229205 0.0882,0.421628 0.35156,0.726563 0.22695,0.262793 0.52831,0.446105 0.83203,0.548828 l 0.0606,0.02148 0.0606,0.01172 c 0.27122,0.05477 0.55199,0.07236 0.82812,0.04687 0.28503,-0.02629 0.56669,-0.09234 0.83203,-0.208984 l 0.0254,-0.01172 0.0254,-0.01367 c 0.28251,-0.144431 0.57532,-0.352188 0.76954,-0.710937 l 0.83203,-1.53711 c 0.0238,0.190716 0.0491,0.373757 0.0684,0.580078 l 0.002,0.02539 0.004,0.02539 c 0.044,0.301321 0.0715,0.593533 0.082,0.876953 v 0.02734 l 0.004,0.02734 c 0.0243,0.262156 0.0293,0.492444 0.0195,0.6875 l -0.002,0.03516 v 0.03516 c 0.004,0.189952 -0.0267,0.300857 -0.008,0.242187 l -0.002,0.01172 -0.004,0.01172 c -0.15361,0.06908 -0.34544,0.133747 -0.58789,0.183593 -0.0689,0.01417 -0.33418,0.05222 -0.69141,0.08594 -0.35715,0.01597 -0.74621,0.0348 -1.16601,0.05664 -0.001,1.2e-5 -0.003,-1.2e-5 -0.004,0 -0.42426,0.0037 -0.83285,0.0053 -1.22266,0.0059 -0.36831,5.25e-4 -0.63214,-0.0097 -0.77539,-0.02148 -0.27879,-0.04185 -0.43792,-0.110832 -0.42968,-0.103516 -0.0531,-0.04259 -0.14785,-0.142271 -0.25782,-0.283203 0.13425,0.21276 -10e-4,-0.04502 -0.0684,-0.41211 v -0.0039 c -0.0708,-0.40857 -0.14249,-0.905726 -0.21289,-1.478515 v -0.0039 c -0.0563,-0.610019 -0.10956,-1.265626 -0.15625,-1.966797 -0.0469,-0.70073 -0.0823,-1.36642 -0.10546,-1.996093 -3e-5,-6.15e-4 2e-5,-0.0013 0,-0.002 -0.006,-0.609683 -0.004,-1.143383 0.004,-1.59961 0.0229,-0.417139 0.12236,-0.664431 0.0566,-0.546875 0.038,-0.06055 0.18037,-0.224869 0.49024,-0.417969 10e-4,-8.25e-4 6.2e-4,-0.0011 0.002,-0.002 0.11075,-0.06616 0.18952,-0.09798 0.29297,-0.15625 z m -48.625,0.16211 h 0.0156 0.0156 c 0.5511,-0.0036 0.98145,0.01244 1.33984,0.03711 -0.0164,0.177916 -0.0249,0.342102 -0.0664,0.5625 l -0.004,0.01563 -0.002,0.01758 c -0.0476,0.308754 -0.11777,0.599501 -0.21094,0.875 l -0.008,0.02148 -0.008,0.02344 c -0.005,0.01589 9.7e-4,4.29e-4 -0.004,0.01563 -0.14486,0.0018 -0.26801,0.0077 -0.50196,-0.0039 h -0.004 c -0.77836,-0.04132 -1.96332,-0.05606 -3.5957,-0.04883 l -1.08399,0.0039 0.59375,6.423828 0.91016,-0.0059 c 1.24228,-0.0082 2.20817,0.0015 2.88281,0.02539 h 0.002 c 0.10892,0.0035 0.1502,0.008 0.24219,0.01172 -4.2e-4,0.0023 4.3e-4,0.0036 0,0.0059 -0.0343,0.161783 -0.0831,0.316246 -0.13867,0.466797 -0.1321,0.03304 -0.28967,0.07214 -0.52539,0.123047 h -0.002 -0.002 c -0.51724,0.113745 -1.30281,0.248676 -2.33008,0.396485 l -0.93164,0.134765 0.0859,0.9375 c 0.0188,0.206345 0.0422,0.566042 0.0703,1.058594 l 0.002,0.01758 0.002,0.01563 c 0.0445,0.485689 0.0859,1.036701 0.125,1.650391 0.0392,0.612875 0.0734,1.254698 0.0996,1.923828 v 0.01172 0.01367 c 0.0358,0.549807 0.0475,1.040885 0.0508,1.509766 -0.0137,-0.01982 -0.0253,-0.0367 -0.0391,-0.05664 0.0687,0.111538 0.0279,0.05298 -0.006,-0.06055 -0.0348,-0.11697 -0.0845,-0.302254 -0.13867,-0.533204 -0.0996,-0.513083 -0.21864,-1.155798 -0.35938,-1.925781 v -0.0039 c -10e-4,-0.0071 -0.003,-0.01048 -0.004,-0.01758 -0.12519,-0.782813 -0.25894,-1.65107 -0.40039,-2.609375 -0.14307,-0.968883 -0.28723,-1.956341 -0.43359,-2.960938 -0.14485,-0.994072 -0.28015,-1.969502 -0.4043,-2.929687 l -0.002,-0.01758 c -0.10702,-0.966487 -0.20563,-1.838817 -0.29492,-2.613282 -0.0883,-0.765748 -0.1459,-1.398301 -0.17383,-1.884765 -0.007,-0.115733 -0.005,-0.167232 -0.008,-0.25586 l 0.01,-0.002 c 0.3446,-0.09066 0.80702,-0.166646 1.3711,-0.21875 0.30088,-0.02778 0.61281,-0.05294 0.9375,-0.07422 0.3252,-0.02132 0.66138,-0.04004 1.00976,-0.05469 h 0.002 c 0.69318,-0.02926 1.33115,-0.03605 1.91406,-0.02148 z m 4.81445,0.609375 0.11328,1.820312 -0.0586,-0.03125 z m 39.31055,0.224609 -0.26172,0.01758 0.50195,0.09961 c -0.002,-0.0011 -0.004,-0.0028 -0.006,-0.0039 z m 8.1582,0.04687 c 0.0867,0.303519 0.17359,0.605908 0.25586,0.951172 0.11434,0.479666 0.21915,0.95073 0.31445,1.414062 0.0933,0.453952 0.16522,0.879465 0.21875,1.277344 l 0.004,0.02148 0.004,0.02344 c 0.0723,0.399999 0.12937,0.728636 0.16992,0.982422 0.0147,0.09914 0.0238,0.214382 0.0371,0.318359 l -0.66602,0.04492 c 0.002,-0.312015 0.009,-0.612085 -0.0117,-0.978515 -0.013,-0.534043 -0.0471,-1.094856 -0.10156,-1.6875 l 0.004,0.0293 c -0.0367,-0.59455 -0.0801,-1.145155 -0.12696,-1.652343 v -0.002 c -0.0264,-0.285877 -0.0675,-0.499361 -0.10156,-0.742188 z m -1.98828,0.07813 c 0.0403,0.248404 0.0809,0.496701 0.11328,0.847656 0.0448,0.484583 0.0855,1.016242 0.1211,1.59375 l 0.002,0.01367 v 0.01563 c 0.0519,0.565221 0.0845,1.093082 0.0957,1.583985 v 0.01758 0.01758 c 0.0281,0.489775 0.034,0.903958 0.0176,1.232422 l -0.002,0.02148 v 0.01953 c -3.5e-4,0.04156 -0.003,0.05533 -0.004,0.0918 -0.006,7.01e-4 -0.007,0.0033 -0.0137,0.0039 v 0.002 c -0.017,0.0016 -0.0374,-0.0044 -0.0547,-0.0039 -0.0277,-0.113585 -0.0589,-0.251196 -0.0918,-0.460937 -5.6e-4,-0.0036 -10e-4,-0.0042 -0.002,-0.0078 -0.0674,-0.545965 -0.12877,-1.133386 -0.1875,-1.769531 v -0.002 c -0.0616,-0.664204 -0.10889,-1.273737 -0.14258,-1.830078 v 0.02734 c -0.0181,-0.571361 -0.0262,-0.869802 -0.0449,-1.087891 -0.0144,-0.280056 0.0396,-0.284457 0,-0.244141 l 0.0293,-0.0293 0.0273,-0.0332 c -0.12964,0.156137 -0.13112,0.111226 -0.0547,0.07422 l 0.0469,-0.02344 0.0449,-0.02734 c 0.0228,-0.01418 0.0677,-0.02843 0.0996,-0.04297 z m -47.81055,0.515625 c -0.004,0.0027 -0.004,0.0089 -0.008,0.01172 -0.008,0.0064 -0.0177,0.0092 -0.0254,0.01563 z m 0.49805,0.623047 -0.0156,0.04492 c 0.002,-0.007 0.004,-0.01451 0.006,-0.02148 0.002,-0.0085 0.007,-0.01476 0.01,-0.02344 z m 3.56055,0.113281 0.006,0.07227 c -1.6e-4,-0.0077 -0.006,-0.01571 -0.006,-0.02344 -10e-4,-0.016 0.001,-0.03286 0,-0.04883 z m 30.05273,0.296875 c 0.10402,0.749398 0.22425,1.602293 0.36719,2.601563 0.15224,1.064196 0.33787,2.284634 0.55469,3.662109 0.007,0.04245 0.0166,0.101726 0.0234,0.144531 -0.11454,-0.502279 -0.31091,-0.975114 -0.64453,-1.451172 -0.35626,-0.508395 -0.7736,-1.028221 -1.2539,-1.564453 -0.4769,-0.532445 -0.9887,-1.058446 -1.53516,-1.580078 -0.0592,-0.05827 -0.10588,-0.104849 -0.16406,-0.162109 0.2403,0.132283 0.40354,0.370131 0.68945,0.34375 0.71608,-0.06607 1.32089,-0.583149 1.65039,-1.175781 0.14001,-0.247607 0.20657,-0.546509 0.3125,-0.81836 z m 31.00586,0.06055 0.3125,0.447266 c 0.16474,0.235089 0.41094,0.588691 0.74024,1.058593 l 0.008,0.0098 0.008,0.01172 c 0.33874,0.457092 0.70331,0.966356 1.08984,1.529297 0.39167,0.570392 0.79402,1.158926 1.20704,1.763672 0.0769,0.112545 0.12788,0.199699 0.20117,0.308593 -0.096,-0.11309 -0.21863,-0.249717 -0.31055,-0.359375 -0.522,-0.645236 -0.98536,-1.208524 -1.38867,-1.691406 l -0.002,-0.002 -0.002,-0.002 c -0.4552,-0.539557 -0.86148,-1.037614 -1.21679,-1.492188 l -0.88672,-1.134765 z m -63.03516,0.04102 c 0.002,0.119644 0.008,0.233529 -0.006,0.367187 -0.0238,0.225001 -0.062,0.440876 -0.11524,0.648438 -0.0484,0.188955 -0.0925,0.301572 -0.12109,0.365234 -0.0146,0.02724 -0.0233,0.0459 -0.16016,0.08789 -0.15272,0.03365 -0.18076,0.03783 -0.2207,0.04297 -0.0414,-0.0558 -0.0816,-0.102849 -0.12305,-0.179687 -0.0699,-0.143761 -0.12864,-0.304994 -0.17187,-0.494141 -0.0374,-0.16423 -0.0413,-0.28855 -0.0274,-0.392578 -0.0126,0.0927 -0.0692,0.101333 0.0664,-0.002 l 0.0176,-0.01172 0.0156,-0.01367 c 0.1862,-0.15506 0.3762,-0.265555 0.58203,-0.34375 l 0.0234,-0.0098 0.0234,-0.0098 c 0.0882,-0.03876 0.14228,-0.03404 0.21679,-0.05469 z m 38.0586,0.101562 c 0.46825,-0.09685 0.72944,-0.04612 0.86133,0.01953 l 0.0117,0.0059 c -0.0453,-0.02181 0.0473,0.02389 0.17382,0.207031 l 0.0117,0.01953 0.0156,0.01758 c 0.1569,0.206089 0.31419,0.464309 0.46679,0.775391 l 0.004,0.0078 0.004,0.0078 c 0.14483,0.28328 0.27574,0.608205 0.38867,0.976563 v 0.0039 l 0.002,0.0039 c 0.10745,0.339769 0.17219,0.656019 0.19922,0.949219 v 0.002 c 0.0143,0.15278 0.0181,0.504808 -0.006,0.984375 -0.026,0.470724 -0.0638,0.996867 -0.11523,1.580078 -0.0533,0.569404 -0.114,1.156528 -0.18164,1.763672 -0.0681,0.611529 -0.13322,1.168897 -0.19336,1.671875 -0.0334,0.279664 -0.0638,0.469847 -0.0957,0.695312 -0.0155,-0.307998 -0.0303,-0.616239 -0.0527,-0.996093 l -0.002,-0.0332 c -0.0136,-0.52969 -0.0312,-1.098346 -0.0527,-1.712891 l 0.002,0.02734 c -0.004,-0.630588 -0.0135,-1.215726 -0.0273,-1.757813 v -0.002 c -0.0153,-0.556781 -0.0318,-1.034303 -0.0508,-1.435547 3.5e-4,-0.330211 0.004,-0.489213 -0.0156,-0.707031 -0.0136,-0.364401 -0.082,-0.721708 -0.20312,-1.0625 -0.0963,-0.329133 -0.22658,-0.633978 -0.4082,-0.912109 -0.14763,-0.251575 -0.33844,-0.481882 -0.58789,-0.669922 -0.19708,-0.156076 -0.56333,-0.138218 -0.90039,-0.146485 0.2482,-0.08871 0.53171,-0.236442 0.75195,-0.283203 z m -21.48047,0.158203 h 0.002 0.002 c 0.49368,0.0246 0.74725,0.141849 0.85156,0.228516 -0.0865,-0.07184 0.11447,0.151823 0.2793,0.599609 l 0.002,0.0039 0.002,0.0039 c 0.15339,0.405963 0.28787,0.959211 0.38477,1.648437 l -0.004,-0.04492 c 0.0137,0.147402 0.0384,0.320616 0.0879,0.660157 0.0458,0.314925 0.0865,0.661126 0.1211,1.035156 l 0.002,0.02344 0.004,0.02344 c 0.0433,0.307577 0.0758,0.594279 0.10352,0.873047 -0.36092,0.12943 -0.78626,0.273616 -1.28906,0.433594 -0.3809,0.108479 -0.79995,0.22994 -1.21289,0.349609 0.0204,-0.0087 0.0442,-0.0208 0.0644,-0.0293 l 0.0215,-0.0078 0.0215,-0.0098 c 0.31773,-0.151566 0.6,-0.282712 0.8457,-0.390625 0.27018,-0.118669 0.47042,-0.21147 0.63867,-0.302734 l 0.63477,-0.34375 -0.13086,-0.708985 c -0.0356,-0.192533 -0.0839,-0.40696 -0.13672,-0.632812 l -0.006,-0.02734 c -0.004,-0.01682 -0.006,-0.02985 -0.01,-0.04687 -0.0427,-0.25568 -0.0906,-0.503726 -0.14844,-0.736328 -0.0666,-0.279317 -0.14148,-0.532441 -0.23633,-0.767578 -0.0971,-0.24057 -0.0451,-0.484417 -0.63672,-0.804688 l -0.10156,-0.05469 -0.10938,-0.03125 c -0.31479,-0.086 -0.58851,-0.09274 -0.94921,-0.09766 -0.10376,-0.0067 -0.20814,-0.01243 -0.3125,-0.0098 -0.34278,0.0084 -0.68523,0.06778 -1.02149,0.167969 l -0.004,0.002 h -0.006 c -0.45135,0.139421 -0.87092,0.367261 -1.23438,0.669922 -0.48217,0.401528 -0.68854,1.047589 -0.70898,1.652343 0.003,-0.07067 2.3e-4,-0.157445 0.004,-0.226562 0.0457,-0.541598 0.13275,-0.954938 0.22852,-1.21875 0.13861,-0.351693 0.37817,-0.659414 0.81445,-0.958985 0.48436,-0.332574 0.99799,-0.573281 1.55664,-0.730468 0.35673,-0.100366 0.69597,-0.160273 1.01953,-0.185547 0.19406,-0.0152 0.38232,-0.01774 0.56641,-0.0078 z m -1.21484,0.835938 -0.0527,0.002 -0.0527,0.0078 z m -7.58985,-0.636719 0.0293,0.002 0.0312,-0.002 c 0.10989,-0.0033 0.24284,0.02662 0.40234,0.0918 -0.0881,-0.04755 -0.0529,-0.05112 0.0352,0.09961 l 0.0195,0.03516 0.0234,0.0332 c 0.11511,0.164261 0.23615,0.383679 0.35156,0.658203 l 0.0117,0.0293 0.0156,0.0293 c 0.12344,0.247252 0.23183,0.525804 0.32227,0.839843 l 0.006,0.02344 0.008,0.01953 c 0.11699,0.346231 0.21149,0.665606 0.28711,0.953125 l 0.008,0.02539 0.008,0.02539 c 0.0551,0.17151 0.0761,0.281789 0.10742,0.41211 -0.093,0.04061 -0.12944,0.06229 -0.26367,0.113281 -0.0407,0.01548 -0.13976,0.04356 -0.1875,0.06055 -0.0748,-0.396864 -0.13483,-0.893047 -0.22852,-1.19336 l -0.002,-0.0039 c -0.16665,-0.545779 -0.31197,-0.953437 -0.58203,-1.333984 -0.22761,-0.324771 -0.6434,-0.659337 -1.19727,-0.699219 0.0885,-0.04165 0.1933,-0.106952 0.27148,-0.134766 0.19271,-0.06427 0.36125,-0.08919 0.52344,-0.08398 z m -4.03125,0.242188 c 0.11526,0.03069 0.23241,0.05814 0.33399,0.105468 0.13581,0.06327 0.14114,0.08821 0.0898,0.02734 0.002,0.0062 0.0191,0.03199 0.0606,0.134766 l 0.45117,1.117187 0.7832,-0.507812 c -0.0281,0.0363 -0.0656,0.06359 -0.0918,0.101562 -5.3e-4,7.65e-4 -10e-4,0.0012 -0.002,0.002 -0.11622,0.16518 -0.22014,0.338622 -0.3125,0.519532 -0.21892,0.407507 -0.16443,0.524624 -0.18554,0.763671 h -0.002 v 0.002 c -0.0219,0.254102 -0.0279,0.564468 -0.0273,0.972656 v 0.04687 l 0.004,0.04883 c 0.006,0.06418 0.0226,0.333917 0.041,0.722656 l 0.002,0.02344 0.002,0.02148 c 0.0347,0.37539 0.0666,0.817903 0.0957,1.324219 v 0.01563 l 0.002,0.01758 c 0.0461,0.503332 0.0867,1.034355 0.1211,1.59375 l 0.002,0.01563 v 0.01563 c 0.0514,0.556052 0.0915,1.077089 0.11914,1.5625 v 0.01563 l 0.002,0.01758 c 0.018,0.195043 0.0225,0.322913 0.0352,0.492188 -0.10248,-0.559067 -0.21254,-1.149259 -0.33789,-1.794922 -0.13524,-0.696563 -0.25851,-1.367569 -0.37109,-2.011719 -0.11302,-0.646662 -0.21089,-1.223031 -0.29297,-1.728516 v -0.002 c -0.0829,-0.517466 -0.14349,-0.882687 -0.1836,-1.11914 l -0.004,-0.02344 c -0.0473,-0.325334 -0.0966,-0.684043 -0.15039,-1.078125 v -0.002 c -0.0543,-0.398633 -0.10669,-0.771981 -0.15625,-1.119141 -0.0105,-0.113081 -0.0178,-0.189969 -0.0274,-0.292968 z m -10.24804,0.203125 c 0.92094,0.0051 1.92236,0.0078 2.40039,0.0332 h 0.002 c 0.39903,0.01988 0.71772,0.02377 0.99805,0.0039 0.0769,-0.0054 0.15615,-0.02387 0.23242,-0.03516 0.0141,0.124248 -0.008,0.250632 0.0195,0.373047 0.0756,0.330749 0.18477,0.649484 0.33203,0.947265 l 0.006,0.01172 0.006,0.01172 c 0.14389,0.271865 0.31851,0.523455 0.52539,0.74414 l 0.0195,0.02148 0.0195,0.01953 c 0.0656,0.06229 0.19929,0.07131 0.2793,0.128906 -0.29873,0.261911 -0.49323,0.649156 -0.60742,1.058594 -0.062,-0.18639 0.006,-0.352321 -0.22071,-0.541016 -0.28337,-0.23563 -0.3516,-0.193265 -0.42187,-0.210937 -0.0703,-0.01767 -0.11752,-0.02456 -0.16406,-0.03125 -0.0931,-0.01338 -0.18181,-0.02143 -0.28907,-0.0293 -0.21354,-0.01565 -0.49417,-0.02927 -0.85742,-0.04102 h -0.004 c -0.50033,-0.01767 -1.29583,-0.01621 -2.04883,-0.01758 z m 12.33398,0.265625 c -0.0125,0.0108 -0.0209,0.02609 -0.0332,0.03711 -0.009,0.0092 -0.0222,0.01406 -0.0312,0.02344 z m -4.00781,0.226562 c 0.0443,0.311628 0.0908,0.635072 0.13867,0.986328 0.0429,0.314285 0.082,0.58836 0.12109,0.861328 -0.0185,-0.07768 -9.5e-4,-0.116439 -0.0742,-0.259765 l -0.29882,-0.582032 -0.28516,0.01953 c 0.0151,-0.02343 0.0504,-0.0247 0.0644,-0.04883 l 0.0137,-0.02734 0.0156,-0.02734 c 0.12536,-0.248959 0.2082,-0.508394 0.28516,-0.808594 0.009,-0.03695 0.0107,-0.07614 0.0195,-0.113281 z m 9.08789,0.287109 0.0137,0.04297 c -8.3e-4,-0.0029 -0.003,-0.0049 -0.004,-0.0078 -0.004,-0.01227 -0.006,-0.02285 -0.01,-0.03516 z m -10.40625,0.570313 h 0.0527 c -0.006,1.64e-4 -0.0116,0.0037 -0.0176,0.0039 -0.0108,8.64e-4 -0.0245,-0.0049 -0.0352,-0.0039 z m 70.95117,0.240234 c 0.1394,0.103016 0.29939,0.214363 0.43164,0.314453 0.42116,0.318744 0.76337,0.604419 1.02148,0.847657 0.18905,0.178147 0.17573,0.191967 0.15821,0.101562 -0.004,0.02977 5e-4,-0.0094 -0.0117,0.03711 l -0.008,0.02734 -0.006,0.0293 c -0.007,0.03653 -0.0254,0.07756 -0.0352,0.115235 -0.32102,-0.285425 -0.64859,-0.586302 -0.99023,-0.923829 l -0.0137,-0.01367 c -0.19499,-0.200287 -0.36409,-0.355393 -0.54687,-0.535157 z m -56.04102,0.585938 h 0.002 c 0.05,-0.0013 0.0986,3.86e-4 0.14648,0.0039 l 0.0293,0.002 0.0312,0.002 c 0.0565,7.15e-4 0.0408,0.0034 0.0898,0.0059 0.0233,0.07741 0.0449,0.128226 0.0684,0.226562 v 0.0059 l 0.002,0.0059 c 0.0441,0.176166 0.0834,0.376477 0.11915,0.589844 -0.22823,0.102157 -0.46243,0.207141 -0.73243,0.335937 -0.2491,0.105465 -0.51039,0.228677 -0.77343,0.353516 -1.7e-4,-0.0012 1.6e-4,-0.0027 0,-0.0039 -0.0519,-0.386762 -0.0689,-0.694637 -0.0625,-0.902344 v -0.02148 -0.01953 c -0.002,-0.222037 0.0142,-0.1857 0.0351,-0.203125 0.16477,-0.137205 0.33672,-0.230475 0.54102,-0.294922 10e-4,-3.59e-4 0.003,3.58e-4 0.004,0 0.18382,-0.05441 0.34914,-0.08222 0.5,-0.08594 z m -16.35546,0.417969 c 0.0119,8.92e-4 0.0152,0.01307 0.0273,0.01367 l -0.0762,-0.0078 c 0.0182,0.0023 0.031,-0.0077 0.0488,-0.0059 z m 13.29101,0.144531 c -3.2e-4,0.01046 0.002,0.02464 0.002,0.03516 2e-5,0.0021 -0.002,0.0038 -0.002,0.0059 z m 57.88672,0.435547 c 0.1224,0.122235 0.22614,0.214687 0.35547,0.347656 l 0.008,0.0078 0.006,0.0059 c 0.19311,0.191047 0.37745,0.350099 0.56641,0.527344 -0.15256,-0.12394 -0.33052,-0.251283 -0.47071,-0.373047 l -0.008,-0.0078 c -0.003,-0.0025 -0.007,-0.0053 -0.01,-0.0078 -0.32657,-0.30988 -0.50193,-0.614452 -0.42188,-0.416016 l -0.006,-0.01563 -0.006,-0.01367 c -0.002,-0.0047 -0.0105,-0.04575 -0.0137,-0.05469 z m -57.85352,0.06641 c 0.0121,0.235969 0.0104,0.454222 0.0469,0.726562 0.0606,0.450296 0.14202,0.91355 0.24219,1.390625 l 0.25976,1.244141 0.0234,-0.01172 0.0781,0.351563 c 0.15939,0.724776 0.33205,1.382203 0.51954,1.972656 v 0.002 l 0.002,0.0039 c 0.18476,0.568599 0.2435,0.874112 0.56836,1.300782 l 0.0195,0.02539 0.0195,0.02344 c 0.17557,0.203298 0.38222,0.371266 0.60742,0.509765 l 0.01,0.0059 0.0117,0.0059 c 0.0168,0.0098 0.0377,0.01585 0.0547,0.02539 -0.36549,-0.08634 -0.74436,-0.166668 -1.05078,-0.275391 -0.45193,-0.181221 -0.73523,-0.407677 -0.60937,-0.273437 l -0.0117,-0.01367 -0.0117,-0.01172 c 0.26455,0.263801 0.0463,0.03673 -0.0527,-0.318359 -0.10317,-0.402801 -0.20933,-0.905694 -0.31641,-1.501953 -2.7e-4,-0.0015 2.7e-4,-0.0024 0,-0.0039 -0.0895,-0.597011 -0.17557,-1.254863 -0.25977,-1.978515 -0.0829,-0.71117 -0.13875,-1.405809 -0.16796,-2.083985 -0.007,-0.403641 0.01,-0.748663 0.0176,-1.115234 z m -12.12109,0.175781 c 0.002,0.02165 0.004,0.02808 0.006,0.05078 v 0.01953 l 0.004,0.01953 c 0.0562,0.427739 0.10694,0.976245 0.15039,1.636719 v 0.01367 l 0.002,0.01172 c 0.0588,0.637976 0.10458,1.334073 0.13867,2.085938 0.0328,0.737583 0.0537,1.441431 0.0625,2.107422 l 0.002,0.01172 v 0.01172 c 0.0206,0.54025 0.0223,0.979214 0.0195,1.388672 -0.0442,-0.195192 -0.0815,-0.325885 -0.12891,-0.552734 -0.12499,-0.598416 -0.24691,-1.252871 -0.36523,-1.962891 -0.11921,-0.715148 -0.22538,-1.395953 -0.32032,-2.041016 v -0.002 c -0.0957,-0.656683 -0.16544,-1.223609 -0.20898,-1.695312 -0.0436,-0.472622 -0.024,-0.844167 -0.043,-0.720703 l 0.002,-0.0078 v -0.0098 c -0.006,0.04499 -0.0423,0.0537 0.0606,-0.03516 l -0.0234,0.02148 c 0.18054,-0.146027 0.35856,-0.250217 0.53906,-0.326172 0.0457,-0.01783 0.0629,-0.01258 0.10352,-0.02539 z m -2.64453,0.08203 c -7.2e-4,0.0047 6.9e-4,0.009 0,0.01367 -2.1e-4,0.0015 -0.002,0.0024 -0.002,0.0039 z m 70.80273,0.501954 c 10e-4,0.0036 0.004,0.0042 0.006,0.0078 0.003,0.0062 0.003,0.01329 0.006,0.01953 z m -57.70898,0.43164 -0.0332,0.01758 c 0.002,-9.85e-4 0.004,-0.0049 0.006,-0.0059 0.008,-0.0042 0.0197,-0.0074 0.0273,-0.01172 z m 40.17969,0.248047 v 0.07031 c 9e-4,-0.01796 -0.003,-0.03858 -0.002,-0.05664 -9e-5,-0.0047 0.002,-0.0089 0.002,-0.01367 z m -31.64258,0.894531 h 0.0254 c -0.004,-1.19e-4 -0.008,0.0021 -0.0117,0.002 -0.005,-4.4e-5 -0.009,-0.0019 -0.0137,-0.002 z m 13.81836,0.0078 0.006,0.0332 c -8.1e-4,-0.0057 -0.007,-0.01 -0.008,-0.01563 -9.3e-4,-0.0054 0.003,-0.01216 0.002,-0.01758 z M 634.53516,-64.625 c 0.0634,0.802358 0.0633,1.446971 0.0176,1.697266 l -0.002,0.01953 -0.004,0.01758 c -0.0338,0.233965 -0.0526,0.251957 -0.082,0.341797 -0.0556,-0.0083 -0.13142,-0.0114 -0.17382,-0.02148 -0.10214,-0.04297 -0.19678,-0.08722 -0.25586,-0.121094 -0.0557,-0.03527 -0.0849,-0.06316 -0.10938,-0.08789 0.0934,0.117024 -0.0897,-0.19909 -0.24805,-0.68164 v -0.002 c -9.4e-4,-0.0029 -10e-4,-0.001 -0.002,-0.0039 -0.0796,-0.2509 -0.15046,-0.577905 -0.22656,-0.865234 0.22718,-0.05875 0.40682,-0.102763 0.66211,-0.169922 l 0.0117,-0.0039 0.0137,-0.0039 c 0.14063,-0.04107 0.26132,-0.07541 0.39844,-0.115234 z m 2.26171,0.492188 c -0.003,0.02549 -5.3e-4,0.03402 -0.004,0.06055 l -0.002,0.02148 -0.002,0.02148 c -0.0234,0.281845 -0.0613,0.60577 -0.11328,0.970703 l -0.002,0.01758 -0.002,0.01758 c -0.0345,0.326013 -0.0868,0.644266 -0.15429,0.955078 -0.0674,0.28621 -0.14275,0.543911 -0.22461,0.773437 -0.061,0.144084 -0.11991,0.2122 -0.084,0.179688 h -0.002 c -0.21799,0.197303 -0.5005,0.32643 -0.9668,0.371093 -0.0713,0.0044 -0.14168,-0.01412 -0.21289,-0.01172 0.38279,-0.102546 0.81153,-0.168494 1.00977,-0.431641 l 0.0176,-0.02344 0.0176,-0.02734 c 0.27726,-0.420763 0.35891,-0.838696 0.43359,-1.351563 0.0707,-0.395582 0.0203,-0.962626 0.002,-1.478515 0.0875,-0.01804 0.22049,-0.05255 0.28906,-0.06445 z m -2.25976,3.58789 c 0.0441,0.0028 0.0821,0.01577 0.12695,0.01758 l -0.13086,-0.01563 c 0.002,2.71e-4 0.002,-0.0022 0.004,-0.002 z"
         id="path15" />
      <path
         style="color:#000000;-inkscape-font-specification:'Jolly Lodger';fill:url(#linearGradient15);stroke-width:1.46533;-inkscape-stroke:none;paint-order:stroke markers fill"
         d="m 680.01573,-83.473983 c -0.10029,0.0025 -0.24604,0.05994 -0.43679,0.171375 -0.25433,0.148588 -0.52019,0.360772 -0.7985,0.636665 -0.27832,0.275894 -0.5353,0.594147 -0.76999,0.955362 -0.2186,0.341862 -0.34681,0.693636 -0.38497,1.054575 -0.0283,0.467249 0.0139,1.312305 0.12681,2.534947 0.0475,0.513857 0.106,1.142875 0.17471,1.887094 0.0849,0.724852 0.19049,1.58167 0.31759,2.570683 0.14477,0.987381 0.30342,2.125189 0.47607,3.413795 0.18871,1.269248 0.41111,2.705526 0.66637,4.308172 0.0324,0.157839 0.11238,0.346948 0.23996,0.567483 0.14367,0.201176 0.29617,0.401419 0.45757,0.600952 0.15975,0.181824 0.32574,0.336112 0.4983,0.46314 0.17093,0.109307 0.32637,0.148544 0.46649,0.117728 0.0515,-0.02263 0.0884,-0.204702 0.11046,-0.546285 0.0381,-0.36093 0.0577,-0.827511 0.0585,-1.399442 -8.3e-4,-0.589654 -0.009,-1.259079 -0.0246,-2.008207 -0.0156,-0.749119 -0.0354,-1.542129 -0.0592,-2.379852 0.36478,0.466688 0.7783,0.973382 1.23986,1.520476 0.40185,0.481132 0.86493,1.046068 1.38948,1.69457 0.54224,0.646863 1.15197,1.34974 1.82971,2.109188 0.0774,0.06433 0.20007,0.133669 0.36774,0.207535 0.18374,0.05451 0.37546,0.0993 0.57529,0.134464 0.19818,0.01745 0.38697,0.02705 0.5658,0.0284 0.1772,-0.01635 0.30747,-0.05526 0.39115,-0.116616 0.0499,-0.04036 -0.021,-0.230604 -0.21372,-0.570226 -0.17449,-0.341297 -0.41891,-0.765201 -0.73381,-1.272234 -0.31487,-0.507034 -0.67926,-1.063172 -1.09258,-1.668334 -0.4133,-0.605165 -0.81581,-1.193535 -1.20814,-1.764899 -0.39232,-0.571365 -0.76225,-1.091213 -1.10931,-1.55953 -0.32933,-0.469954 -0.57637,-0.822385 -0.74104,-1.05737 0.4743,-0.669278 0.94727,-1.356551 1.4183,-2.061265 0.47103,-0.704722 0.88468,-1.350431 1.24149,-1.937377 0.35681,-0.586943 0.6422,-1.078104 0.8559,-1.47312 0.21206,-0.412726 0.28905,-0.643104 0.23099,-0.691367 -0.0614,-0.08368 -0.21741,-0.131969 -0.46875,-0.144508 -0.23363,-0.01415 -0.49148,7.61e-4 -0.77337,0.04465 -0.28187,0.04389 -0.56224,0.105902 -0.84085,0.185259 -0.26251,0.05999 -0.45225,0.130842 -0.56974,0.213176 -0.10141,0.06298 -0.24654,0.237432 -0.43461,0.52286 -0.17037,0.283799 -0.36946,0.641506 -0.5976,1.0736 -0.22979,0.414378 -0.47216,0.883835 -0.72757,1.407799 -0.25703,0.506252 -0.52311,1.013245 -0.79787,1.521127 -0.0646,-1.084145 -0.12859,-2.168376 -0.19318,-3.252521 -0.0646,-1.084144 -0.1372,-2.060586 -0.2172,-2.928847 -0.0638,-0.887631 -0.13087,-1.614145 -0.20096,-2.179528 -0.0701,-0.565369 -0.14303,-0.871269 -0.21877,-0.917899 -0.0234,-0.01124 -0.052,-0.01653 -0.0854,-0.01567 z m -36.15706,3.202447 c -0.23035,0.02132 -0.48096,0.205609 -0.75272,0.552379 -0.27341,0.329054 -0.54707,0.756176 -0.8202,1.281776 -0.27312,0.525607 -0.53333,1.094904 -0.78056,1.707465 -0.24721,0.612566 -0.46829,1.213514 -0.66399,1.803444 -0.17798,0.588298 -0.31699,1.119313 -0.41619,1.593111 -0.10087,0.456081 -0.13225,0.789471 -0.0949,1.000467 0.0374,0.210989 0.23437,0.505729 0.59095,0.883822 0.37432,0.376447 0.82451,0.799695 1.35039,1.269364 0.54197,0.45032 1.11253,0.924841 1.71256,1.423404 0.61777,0.496928 1.18994,0.979928 1.71583,1.449604 0.54196,0.450313 0.99101,0.864533 1.3476,1.242617 0.37265,0.358733 0.57757,0.643815 0.61496,0.854812 0.0132,0.141746 -0.004,0.339639 -0.0519,0.594256 -0.048,0.254617 -0.11407,0.511037 -0.19747,0.768934 -0.085,0.240166 -0.18134,0.454705 -0.28901,0.64336 -0.10931,0.170955 -0.21677,0.26137 -0.32309,0.271167 -0.14012,0.03081 -0.33597,-0.05871 -0.5876,-0.267788 -0.25327,-0.226794 -0.53806,-0.504287 -0.85431,-0.832492 -0.31624,-0.328196 -0.65281,-0.68096 -1.0094,-1.059053 -0.34052,-0.397438 -0.66013,-0.760999 -0.95866,-1.09084 -0.29851,-0.329835 -0.56463,-0.600553 -0.79855,-0.811265 -0.21617,-0.212341 -0.36838,-0.313987 -0.45699,-0.305811 -0.12403,0.01148 -0.21828,0.154042 -0.28232,0.428012 -0.048,0.254622 -0.0822,0.561412 -0.10264,0.920705 -0.004,0.339946 0.0109,0.695879 0.0452,1.067989 0.0504,0.352757 0.12096,0.632536 0.21153,0.838621 0.0485,0.138479 0.19259,0.348408 0.43304,0.629996 0.25655,0.262237 0.56065,0.555575 0.91233,0.8805 0.36939,0.323294 0.75751,0.653764 1.16399,0.991503 0.42256,0.318378 0.83384,0.611348 1.23377,0.878209 0.39993,0.26686 0.76781,0.47384 1.10312,0.621572 0.33695,0.165466 0.60188,0.230446 0.79517,0.194716 0.29958,-0.04554 0.61511,-0.307201 0.9463,-0.784558 0.34728,-0.496713 0.66024,-1.070691 0.93963,-1.721966 0.27938,-0.651277 0.49516,-1.314041 0.64723,-1.989302 0.16815,-0.694608 0.21523,-1.253108 0.14052,-1.675103 -0.0504,-0.352749 -0.24041,-0.764279 -0.56975,-1.234239 -0.32933,-0.469955 -0.72304,-0.960844 -1.18133,-1.472501 -0.45828,-0.511659 -0.95232,-1.019825 -1.48147,-1.524936 -0.5308,-0.522836 -1.022,-1.004911 -1.47373,-1.445691 -0.45175,-0.440777 -0.83551,-0.825149 -1.15175,-1.153355 -0.29837,-0.329843 -0.45436,-0.565749 -0.4676,-0.707496 -0.0374,-0.210996 -0.0121,-0.517162 0.0759,-0.918444 0.0864,-0.419001 0.20819,-0.841114 0.36546,-1.266661 0.15726,-0.425549 0.3285,-0.798509 0.51332,-1.11938 0.20252,-0.32251 0.38342,-0.491363 0.54289,-0.50609 0.14176,-0.01314 0.30686,0.03406 0.4955,0.141731 0.20474,0.08832 0.34785,0.182522 0.42853,0.28229 0.0324,0.157838 0.0728,0.404312 0.12171,0.739345 0.0648,0.315677 0.13282,0.666934 0.20428,1.053485 0.0891,0.384921 0.1804,0.787135 0.27284,1.207487 0.0908,0.402636 0.19566,0.768512 0.31535,1.097002 0.1197,0.328483 0.25141,0.593382 0.39509,0.794559 0.14366,0.201161 0.30434,0.293633 0.48154,0.277283 0.35439,-0.0327 0.64624,-0.256337 0.87604,-0.670715 0.24585,-0.433735 0.43316,-0.924625 0.56126,-1.472574 0.12806,-0.547941 0.20299,-1.091194 0.2248,-1.629324 0.0395,-0.539769 0.0378,-0.941645 -0.004,-1.205803 -0.0406,-0.246435 -0.17122,-0.502309 -0.39231,-0.767811 -0.22274,-0.283228 -0.50694,-0.552173 -0.85208,-0.806226 -0.34676,-0.271772 -0.73694,-0.530293 -1.17068,-0.776156 -0.416,-0.247507 -0.84633,-0.458237 -1.29124,-0.631589 -0.42881,-0.192712 -0.84412,-0.332675 -1.24541,-0.4207 -0.4029,-0.105749 -0.75505,-0.144943 -1.05628,-0.117121 z m 9.25856,-0.433102 c -0.1009,-0.0041 -0.24612,0.05641 -0.43563,0.181139 -0.23663,0.146946 -0.49334,0.367084 -0.77001,0.660702 -0.25897,0.291976 -0.49609,0.626548 -0.71142,1.003852 -0.21695,0.359579 -0.34343,0.728932 -0.37996,1.107587 -0.007,0.501053 0.0571,1.397651 0.1943,2.689536 0.0507,0.549302 0.12118,1.21288 0.21093,1.990895 0.10748,0.776378 0.23705,1.693728 0.38843,2.751981 0.15139,1.058248 0.33515,2.274208 0.55141,3.64814 0.21462,1.356212 0.47305,2.896163 0.77521,4.619567 0.0502,0.156202 0.13863,0.344721 0.26621,0.565254 0.14533,0.218896 0.30685,0.417989 0.48432,0.598176 0.17911,0.197897 0.35479,0.360632 0.52735,0.487658 0.19029,0.125397 0.3559,0.172516 0.49602,0.141698 0.0693,-0.02426 0.10234,-0.340082 0.0999,-0.947454 0.0136,-0.626724 10e-4,-1.438442 -0.0374,-2.435642 -0.0401,-1.014914 -0.10063,-2.152992 -0.18147,-3.414337 -0.0811,-1.261325 -0.17198,-2.548476 -0.27582,-3.86132 0.1014,-0.06296 0.22027,-0.127883 0.35711,-0.194149 0.10305,-0.04524 0.22305,-0.101139 0.35988,-0.167402 0.15458,-0.06788 0.30974,-0.126722 0.46595,-0.176899 0.10304,-0.04525 0.21306,-0.01959 0.3292,0.07696 0.13384,0.09486 0.25389,0.235665 0.36049,0.422399 0.12432,0.185089 0.2259,0.416682 0.30524,0.695285 0.0955,0.25924 0.14777,0.531696 0.15625,0.816845 0.007,0.07087 0.01,0.302752 0.0107,0.695827 0.0185,0.39145 0.035,0.8636 0.0502,1.41618 0.0137,0.534853 0.0227,1.114725 0.0268,1.739813 0.0219,0.623451 0.0394,1.202727 0.053,1.737588 0.0317,0.533197 0.0558,0.995715 0.0743,1.387166 0.0344,0.372103 0.0639,0.592541 0.0882,0.661777 0.0453,0.103046 0.15093,0.182658 0.31695,0.238807 0.16602,0.05613 0.33903,0.09364 0.5195,0.112721 0.19819,0.01745 0.37617,0.01011 0.53401,-0.02235 0.17554,-0.03407 0.2786,-0.07916 0.30913,-0.135614 0.0144,-0.03708 0.0507,-0.228215 0.1082,-0.573067 0.0575,-0.344857 0.11636,-0.770169 0.17686,-1.276129 0.0605,-0.505971 0.12515,-1.0662 0.19353,-1.68011 0.0684,-0.613918 0.12959,-1.209298 0.18351,-1.786136 0.0524,-0.594568 0.0916,-1.134311 0.11827,-1.619279 0.0251,-0.502697 0.0262,-0.87797 0.003,-1.126043 -0.0343,-0.372104 -0.1148,-0.757887 -0.24109,-1.15725 -0.12787,-0.417079 -0.27915,-0.795897 -0.45364,-1.137193 -0.17612,-0.359016 -0.36583,-0.672473 -0.56921,-0.939612 -0.18555,-0.268607 -0.37171,-0.447923 -0.55859,-0.537928 l -5.2e-4,3.4e-5 c -0.39333,-0.195804 -0.89657,-0.230191 -1.50999,-0.102074 -0.59591,0.126524 -1.23516,0.364726 -1.91776,0.713699 -0.0772,-1.029363 -0.15885,-2.005179 -0.2439,-2.926591 -0.0867,-0.939129 -0.17137,-1.762008 -0.2545,-2.469149 -0.0848,-0.724866 -0.1738,-1.297655 -0.26622,-1.718009 -0.0763,-0.439698 -0.1434,-0.683299 -0.20144,-0.731562 -0.0238,-0.01568 -0.0525,-0.02462 -0.0861,-0.02598 z m -42.43942,4.503335 c -0.33305,0.02183 -0.6544,0.04713 -0.96449,0.07576 -0.60247,0.05565 -1.11352,0.138256 -1.53222,0.24841 -0.42036,0.09244 -0.65983,0.204192 -0.71925,0.334771 -0.0449,0.09351 -0.052,0.406491 -0.0207,0.939707 0.0296,0.515512 0.0895,1.162644 0.1792,1.940658 0.0897,0.778016 0.18865,1.653507 0.29636,2.626441 0.12548,0.971288 0.26152,1.959491 0.40798,2.964584 0.14643,1.005098 0.29102,1.992182 0.43421,2.961841 0.14312,0.969657 0.27835,1.850711 0.40518,2.643176 0.14449,0.790827 0.26775,1.44972 0.37003,1.976391 0.11832,0.507314 0.20878,0.811485 0.27177,0.912894 0.28899,0.420074 0.56675,0.81436 0.83311,1.182909 0.28243,0.349191 0.55669,0.511633 0.8225,0.48708 0.0886,-0.0082 0.14304,-0.191996 0.16346,-0.551291 0.0381,-0.360934 0.059,-0.809383 0.0631,-1.345878 0.002,-0.554208 -0.0175,-1.160127 -0.0603,-1.817381 -0.0265,-0.676626 -0.0596,-1.325609 -0.0994,-1.947411 -0.0396,-0.621815 -0.0829,-1.181105 -0.12837,-1.677271 -0.0284,-0.497764 -0.0531,-0.861628 -0.0741,-1.091998 1.04054,-0.149718 1.84058,-0.286349 2.40105,-0.4096 0.5782,-0.12488 0.89253,-0.207443 0.94241,-0.247803 0.0998,-0.0807 0.19402,-0.223278 0.28234,-0.428014 0.0867,-0.222456 0.15463,-0.452208 0.2042,-0.689105 0.048,-0.254616 0.0711,-0.488826 0.0692,-0.703097 -0.002,-0.214263 -0.0415,-0.353606 -0.11891,-0.417936 -0.0387,-0.03218 -0.41687,-0.05995 -1.13383,-0.08307 -0.69923,-0.02477 -1.67372,-0.03326 -2.9239,-0.02501 l -0.41022,-4.438266 c 1.62556,-0.0072 2.80638,0.0087 3.54268,0.04789 0.75404,0.03756 1.17169,0.008 1.25211,-0.08876 0.0804,-0.09678 0.16764,-0.310693 0.26223,-0.641098 0.1123,-0.332049 0.19633,-0.679217 0.25219,-1.041784 0.0719,-0.381928 0.11175,-0.725007 0.11938,-1.029511 0.0237,-0.323859 -0.003,-0.518201 -0.0804,-0.582532 -0.0581,-0.04825 -0.30303,-0.08781 -0.73485,-0.119412 -0.4141,-0.03322 -0.93394,-0.0481 -1.55904,-0.04399 -0.60899,-0.01522 -1.26937,-0.0077 -1.98142,0.02236 -0.35602,0.01497 -0.70061,0.03358 -1.03366,0.05541 z m 57.94836,-2.943212 c -0.11688,0.0041 -0.18639,0.03354 -0.20807,0.08916 -0.0466,0.07579 -0.0641,0.27422 -0.0525,0.594811 0.0276,0.301243 0.0612,0.664495 0.10053,1.08976 0.0554,0.405906 0.1144,0.84729 0.17632,1.324076 0.0603,0.459069 0.11643,0.873843 0.16852,1.244315 0.0422,0.264153 0.10875,0.69591 0.19982,1.2951 0.0911,0.599184 0.19734,1.268355 0.31925,2.007662 0.1219,0.7393 0.25619,1.513221 0.40237,2.321769 0.1445,0.790826 0.27531,1.52908 0.39232,2.215226 0.13301,0.666797 0.2481,1.237265 0.34548,1.710774 0.0957,0.455777 0.17295,0.707787 0.23101,0.756048 0.0629,0.101421 0.1707,0.109068 0.32364,0.02346 0.15128,-0.10333 0.30794,-0.24267 0.4704,-0.418511 0.16246,-0.175847 0.30647,-0.358806 0.43186,-0.54909 0.12371,-0.208 0.19862,-0.366939 0.22428,-0.476537 0.0131,-0.05481 0.008,-0.295686 -0.0134,-0.722577 -0.0218,-0.426884 -0.0598,-0.932942 -0.11337,-1.517712 -0.0383,-0.60407 -0.0885,-1.25135 -0.15235,-1.942406 -0.0473,-0.710443 -0.0996,-1.367214 -0.15523,-1.969666 -0.0383,-0.604071 -0.0759,-1.118736 -0.11559,-1.543978 -0.0409,-0.442983 -0.0648,-0.69971 -0.0714,-0.770583 -0.021,-0.23037 -0.0224,-0.436082 -0.003,-0.616551 0.0367,-0.182087 0.0625,-0.291588 0.077,-0.328676 0.0578,-0.148304 0.14359,-0.281192 0.25781,-0.39897 0.0981,-0.09841 0.2237,-0.190599 0.37662,-0.276207 0.15129,-0.10331 0.3404,-0.183234 0.56748,-0.239957 0.0854,-0.04363 0.1869,-0.0083 0.30467,0.105997 0.13386,0.09486 0.25504,0.244697 0.36327,0.449148 0.10822,0.204454 0.20299,0.454725 0.28402,0.751043 0.0971,0.276957 0.16029,0.574947 0.18975,0.893895 0.008,0.08863 0.0136,0.347118 0.0178,0.775627 0.0218,0.42689 0.0338,0.943849 0.0363,1.551214 0.0186,0.588016 0.042,1.229593 0.0704,1.923923 0.0267,0.676608 0.0501,1.317673 0.0703,1.923408 0.0362,0.586386 0.0652,1.093065 0.0866,1.519976 0.0392,0.425272 0.0711,0.672333 0.0954,0.741575 0.0453,0.103039 0.14238,0.18325 0.29068,0.241036 0.16602,0.05613 0.33906,0.09415 0.51954,0.113237 0.19819,0.01746 0.36821,0.01925 0.50997,0.0061 0.15783,-0.03243 0.25183,-0.07691 0.28235,-0.133353 0.0144,-0.03708 0.0399,-0.24465 0.0765,-0.623302 0.0542,-0.38029 0.10897,-0.850332 0.16455,-1.409454 0.0733,-0.560755 0.13326,-1.173742 0.17903,-1.839183 0.0618,-0.684788 0.11719,-1.341959 0.16624,-1.971958 0.0474,-0.647724 0.0729,-1.240112 0.0769,-1.776606 0.0218,-0.538124 0.0195,-0.948557 -0.007,-1.232069 -0.0377,-0.407544 -0.12113,-0.829021 -0.2506,-1.263828 -0.11346,-0.454155 -0.25978,-0.878327 -0.43918,-1.272777 -0.16169,-0.396089 -0.3452,-0.736771 -0.55022,-1.021636 -0.18729,-0.286501 -0.36642,-0.484377 -0.53736,-0.593686 -0.2628,-0.136557 -0.55433,-0.198672 -0.87493,-0.186932 -0.32221,-0.006 -0.65648,0.05167 -1.00269,0.173014 -0.33013,0.10197 -0.66529,0.248681 -1.00494,0.440894 -0.34131,0.174484 -0.6542,0.364671 -0.93907,0.569694 -0.0633,-0.297955 -0.12741,-0.506886 -0.19197,-0.626018 -0.0662,-0.136847 -0.12164,-0.256877 -0.1669,-0.359918 -0.0823,-0.117494 -0.23566,-0.228168 -0.45976,-0.332559 -0.22571,-0.122118 -0.46689,-0.216063 -0.72315,-0.281746 -0.24017,-0.08503 -0.46819,-0.135391 -0.6841,-0.151199 -0.0496,-0.0044 -0.0934,-0.0057 -0.13234,-0.0043 z m 20.65966,-1.221683 c -0.19493,0.01801 -0.41384,0.163721 -0.65672,0.436341 -0.22679,0.253266 -0.45547,0.578149 -0.68689,0.974809 -0.23142,0.396651 -0.45972,0.828711 -0.6846,1.296249 -0.20716,0.465901 -0.38838,0.920471 -0.54401,1.363737 -0.15727,0.425555 -0.28195,0.82106 -0.37325,1.186901 -0.093,0.348131 -0.12285,0.601016 -0.0904,0.758854 0.0324,0.157839 0.19522,0.375057 0.48884,0.651738 0.29361,0.276674 0.66126,0.582283 1.10318,0.916749 0.44191,0.334466 0.92194,0.692426 1.43965,1.073498 0.51607,0.363361 0.99495,0.712284 1.43687,1.04675 0.44192,0.334458 0.80958,0.640066 1.10319,0.916748 0.2936,0.276681 0.45689,0.493868 0.48936,0.651705 0.01,0.106313 -0.0118,0.260026 -0.0648,0.461486 -0.0367,0.182099 -0.0912,0.36591 -0.16348,0.551291 -0.0722,0.185373 -0.15504,0.353968 -0.24827,0.505545 -0.0949,0.13386 -0.18648,0.204973 -0.27508,0.213147 -0.15948,0.0147 -0.43259,-0.138681 -0.81972,-0.460332 -0.38875,-0.339375 -0.79001,-0.713432 -1.20304,-1.12205 -0.41466,-0.426334 -0.79782,-0.802165 -1.1495,-1.12709 -0.35333,-0.342625 -0.58286,-0.509184 -0.68917,-0.499387 -0.10631,0.0098 -0.18592,0.115488 -0.23881,0.316946 -0.0545,0.183743 -0.0873,0.410548 -0.0982,0.679608 0.007,0.267429 0.0223,0.53384 0.0471,0.799617 0.0423,0.264152 0.0973,0.473717 0.16521,0.628279 0.0695,0.172288 0.29983,0.436888 0.69023,0.79398 0.40811,0.355459 0.86099,0.71581 1.35933,1.0808 0.51443,0.345638 1.01634,0.647447 1.50488,0.906125 0.50461,0.239326 0.88015,0.338577 1.12658,0.297936 0.24643,-0.04063 0.51343,-0.24379 0.80129,-0.609917 0.28785,-0.366133 0.55243,-0.792628 0.7934,-1.279514 0.24096,-0.486892 0.42661,-0.986775 0.55797,-1.499288 0.14909,-0.514145 0.20055,-0.929843 0.15337,-1.247154 -0.0423,-0.26416 -0.20471,-0.570903 -0.48716,-0.920099 -0.26472,-0.350826 -0.58433,-0.714386 -0.95865,-1.09084 -0.37595,-0.394167 -0.78634,-0.776186 -1.23153,-1.146088 -0.42912,-0.389262 -0.83766,-0.744608 -1.22478,-1.066259 -0.37105,-0.341013 -0.68369,-0.633753 -0.93859,-0.87827 -0.25513,-0.244498 -0.3877,-0.419837 -0.3973,-0.526165 -0.0308,-0.140122 -0.007,-0.36578 0.0714,-0.676831 0.0962,-0.312687 0.21034,-0.627065 0.342,-0.943026 0.14936,-0.317597 0.30215,-0.599775 0.45806,-0.846495 0.15592,-0.246706 0.30466,-0.376396 0.44642,-0.389502 0.14174,-0.01314 0.28749,0.0177 0.43744,0.09321 0.16599,0.05615 0.27958,0.126106 0.34095,0.209797 0.0518,0.173919 0.1162,0.480928 0.19253,0.920644 0.0763,0.439708 0.16216,0.887309 0.25784,1.343106 0.1118,0.436441 0.24554,0.817505 0.40068,1.142713 0.17284,0.323602 0.36545,0.475533 0.57809,0.455872 0.30123,-0.02783 0.55297,-0.203125 0.7555,-0.525631 0.22025,-0.324145 0.38243,-0.696481 0.48654,-1.117119 0.12185,-0.422282 0.19943,-0.840297 0.23266,-1.254388 0.051,-0.415731 0.0585,-0.720156 0.0229,-0.913441 -0.0423,-0.264152 -0.25625,-0.548615 -0.64174,-0.852549 -0.38548,-0.303941 -0.84031,-0.583233 -1.36427,-0.838637 -0.5256,-0.273123 -1.07272,-0.490889 -1.64167,-0.652787 -0.55122,-0.163531 -1.02189,-0.227341 -1.41171,-0.191332 z m -25.52186,3.376212 c -0.15505,0.01431 -0.30742,0.03745 -0.4564,0.06908 -0.28187,0.04389 -0.50904,0.100152 -0.68132,0.169693 -0.34294,0.156764 -0.7261,0.361949 -1.14944,0.615501 -0.40562,0.251914 -0.68547,0.510076 -0.83976,0.774514 -0.0916,0.169294 -0.15074,0.496535 -0.17741,0.981502 -0.009,0.483329 -0.0101,1.046732 -0.004,1.689544 0.0236,0.641169 0.0591,1.31678 0.10667,2.027205 0.0473,0.710442 0.10012,1.375754 0.15744,1.995932 0.0734,0.600821 0.14807,1.121004 0.22437,1.560715 0.0747,0.421998 0.14404,0.683653 0.20701,0.785057 0.18402,0.251064 0.36201,0.439919 0.53458,0.566937 0.19028,0.125391 0.48473,0.214621 0.88274,0.267211 0.1982,0.01743 0.49357,0.02567 0.88666,0.02511 0.3931,-5.78e-4 0.80408,-0.0024 1.23262,-0.0062 0.44462,-0.02324 0.85384,-0.04311 1.22758,-0.05975 0.38983,-0.03601 0.66353,-0.07024 0.82137,-0.102684 0.31567,-0.0649 0.59369,-0.153546 0.83358,-0.265056 0.25598,-0.130864 0.42438,-0.333725 0.50613,-0.609338 0.0416,-0.128936 0.0603,-0.318345 0.0552,-0.568061 0.0126,-0.25135 0.005,-0.527924 -0.0229,-0.829152 -0.0119,-0.320578 -0.0421,-0.64816 -0.091,-0.983186 -0.0331,-0.354368 -0.0728,-0.690395 -0.12005,-1.007704 -0.0422,-0.264153 -0.0999,-0.598425 -0.173,-1.002701 -0.057,-0.423629 -0.13424,-0.871821 -0.23158,-1.345334 -0.0974,-0.47351 -0.2042,-0.955041 -0.32091,-1.444642 -0.11667,-0.489596 -0.23881,-0.943271 -0.36668,-1.360357 -0.12788,-0.417079 -0.26778,-0.770401 -0.41964,-1.060176 -0.13414,-0.291409 -0.26843,-0.484321 -0.40229,-0.579178 -0.20801,-0.123751 -0.46564,-0.207451 -0.77342,-0.250507 -0.30942,-0.06077 -0.63315,-0.08423 -0.97146,-0.07086 -0.16112,-0.003 -0.31925,0.0026 -0.47429,0.01691 z m -45.2538,3.241794 c -0.28514,0.0085 -0.58254,0.08024 -0.89167,0.216016 -0.31076,0.118055 -0.5988,0.287801 -0.8643,0.508896 -0.26712,0.203377 -0.4167,0.422631 -0.44861,0.657896 -0.0316,0.235244 -0.0171,0.484026 0.0426,0.746567 0.06,0.262515 0.14462,0.504904 0.25449,0.727073 0.10821,0.204452 0.23178,0.380923 0.37054,0.528942 0.13713,0.130294 0.2688,0.198491 0.39448,0.204757 0.16275,0.02072 0.40982,-0.01115 0.74157,-0.09542 0.34784,-0.103614 0.599,-0.28746 0.75328,-0.551897 0.0755,-0.149941 0.1463,-0.353089 0.21199,-0.609344 0.0657,-0.256252 0.11256,-0.519937 0.14115,-0.790641 0.0286,-0.270697 0.0312,-0.529771 0.008,-0.777852 -0.005,-0.249704 -0.0494,-0.442318 -0.13341,-0.577527 l -5.2e-4,3.4e-5 c -0.10335,-0.15129 -0.29678,-0.213665 -0.5803,-0.187478 z m 2.68873,0.64415 c -0.11721,7.19e-4 -0.18726,0.02262 -0.21016,0.06495 -0.0482,0.05807 -0.0682,0.229868 -0.0597,0.515012 0.0243,0.265803 0.0538,0.584332 0.0882,0.956441 0.0504,0.35275 0.10371,0.732338 0.159,1.138257 0.0554,0.405904 0.10749,0.776474 0.15627,1.111506 0.0389,0.228719 0.10067,0.607204 0.18529,1.135508 0.0829,0.510595 0.18097,1.091344 0.29469,1.742046 0.11373,0.650711 0.23871,1.327175 0.37505,2.029405 0.13633,0.702229 0.25895,1.352059 0.36777,1.949611 0.12484,0.578192 0.23282,1.068234 0.32365,1.470874 0.0909,0.402611 0.16516,0.628024 0.22322,0.676286 0.0614,0.08369 0.16848,0.08281 0.32141,-0.0028 0.15129,-0.103331 0.30968,-0.225093 0.47541,-0.365499 0.1641,-0.158122 0.30984,-0.323509 0.43688,-0.496077 0.12698,-0.172564 0.20425,-0.304869 0.23153,-0.396741 0.0128,-0.05479 0.004,-0.250359 -0.0273,-0.587027 -0.014,-0.338263 -0.0426,-0.746869 -0.0868,-1.225298 -0.0284,-0.497758 -0.0681,-1.029982 -0.12053,-1.596995 -0.035,-0.568638 -0.0763,-1.109857 -0.12339,-1.623738 -0.0296,-0.515515 -0.0628,-0.968299 -0.0988,-1.358126 -0.0185,-0.391452 -0.0323,-0.649385 -0.0444,-0.773383 -5.5e-4,-0.393101 0.008,-0.688472 0.0251,-0.886657 0.0175,-0.198169 0.0415,-0.32524 0.072,-0.381688 0.0755,-0.149938 0.16068,-0.291892 0.25554,-0.42575 0.0788,-0.1145 0.17648,-0.221933 0.29235,-0.321987 0.1142,-0.117775 0.24769,-0.219609 0.40062,-0.305215 0.15947,-0.0147 0.32135,0.09535 0.48603,0.33033 0.14368,0.201171 0.29263,0.55387 0.44642,1.057913 0.15214,0.486322 0.2909,1.215437 0.41636,2.186733 0.55719,-0.158688 0.99101,-0.29711 1.30178,-0.415172 0.31077,-0.118056 0.54284,-0.220188 0.69576,-0.305795 0.17064,-0.08723 0.27019,-0.168004 0.29909,-0.242157 0.0129,-0.0548 5.2e-4,-0.187426 -0.0369,-0.398422 -0.0389,-0.228719 -0.10839,-0.499472 -0.20874,-0.811873 -0.0826,-0.314041 -0.1856,-0.652734 -0.30857,-1.016658 -0.10528,-0.365561 -0.23438,-0.702448 -0.38789,-1.009939 -0.13741,-0.326847 -0.28843,-0.607591 -0.4531,-0.842567 -0.14847,-0.254143 -0.29773,-0.419344 -0.44755,-0.494927 l -5.2e-4,3.4e-5 c -0.29808,-0.133146 -0.58992,-0.19539 -0.87493,-0.186933 -0.28678,-0.0092 -0.57746,0.0353 -0.87216,0.133962 -0.27695,0.09706 -0.56735,0.240167 -0.87157,0.429102 -0.28813,0.16958 -0.59253,0.358661 -0.91283,0.56695 -0.0694,-0.172289 -0.13508,-0.300721 -0.19644,-0.384406 -0.0808,-0.09976 -0.2329,-0.201412 -0.45699,-0.305811 -0.22409,-0.104402 -0.46353,-0.180777 -0.71816,-0.228731 -0.23852,-0.06732 -0.46481,-0.100101 -0.67908,-0.09819 -0.0496,-0.0044 -0.0939,-0.0066 -0.13299,-0.0064 z m 43.22614,-2.370758 c 0.11658,-0.0074 0.21063,0.01281 0.28198,0.05983 0.0581,0.04825 0.12153,0.247604 0.18969,0.59872 0.0665,0.333396 0.12229,0.748196 0.16803,1.244349 0.0459,0.496133 0.0872,1.037359 0.12338,1.623738 0.0537,0.584763 0.0868,1.135647 0.0986,1.652798 0.0296,0.515506 0.0351,0.962138 0.0163,1.33916 -0.003,0.357662 -0.0185,0.573151 -0.0474,0.647306 l 5.1e-4,-3.4e-5 c -0.0611,0.112864 -0.17696,0.212965 -0.34761,0.300211 -0.15455,0.06794 -0.32905,0.110918 -0.52396,0.128893 -0.17719,0.01635 -0.35692,0.0061 -0.53902,-0.03067 -0.16602,-0.05615 -0.29943,-0.141916 -0.39948,-0.257771 -0.10004,-0.11585 -0.194,-0.455684 -0.28183,-1.019436 -0.0701,-0.565382 -0.13539,-1.175719 -0.19592,-1.831336 -0.0625,-0.67332 -0.11076,-1.294453 -0.14519,-1.863123 -0.0186,-0.588019 -0.0333,-0.943979 -0.0447,-1.068021 -0.0229,-0.444634 0.0711,-0.775323 0.28343,-0.991516 0.0482,-0.05805 0.14101,-0.120132 0.27787,-0.1864 0.13521,-0.08396 0.28976,-0.151868 0.46368,-0.20368 0.17229,-0.06954 0.33825,-0.111418 0.49774,-0.126143 0.0439,-0.0085 0.0848,-0.01434 0.1237,-0.01687 z m -30.25649,2.074529 c -0.39367,0.03075 -0.7972,0.104359 -1.21089,0.220751 -0.66186,0.186225 -1.27835,0.475413 -1.84972,0.867734 -0.57135,0.392311 -0.96561,0.86678 -1.1823,1.422912 -0.14283,0.388476 -0.23945,0.888733 -0.29013,1.501007 -0.0329,0.61064 -0.0434,1.272778 -0.0312,1.986465 0.03,0.712047 0.0887,1.439144 0.17525,2.18172 0.0864,0.742581 0.17572,1.422548 0.2685,2.03945 0.11041,0.61527 0.22139,1.141016 0.33317,1.577451 0.11015,0.418722 0.21462,0.676915 0.31303,0.775045 0.13878,0.148017 0.46753,0.323348 0.98658,0.525591 0.51742,0.184526 1.09489,0.336971 1.73144,0.456886 0.63491,0.102184 1.27214,0.132646 1.91167,0.09145 0.6379,-0.05892 1.1543,-0.26783 1.55009,-0.626058 0.13194,-0.119415 0.24873,-0.308562 0.34985,-0.56809 0.0995,-0.277244 0.1876,-0.580207 0.26446,-0.908976 0.0752,-0.346495 0.13198,-0.700367 0.17014,-1.061298 0.0542,-0.38029 0.094,-0.723367 0.11938,-1.02951 0.0414,-0.325496 0.061,-0.595368 0.0591,-0.809639 -0.002,-0.214256 -0.0146,-0.347378 -0.0369,-0.398938 -0.0387,-0.03217 -0.14757,-0.04884 -0.32641,-0.0502 -0.14339,-0.0046 -0.37351,0.01641 -0.69082,0.06363 -0.2996,0.04555 -0.71993,0.138027 -1.26104,0.277358 0.0884,0.956851 0.091,1.662566 0.008,2.117012 -0.0654,0.4528 -0.16082,0.774483 -0.28621,0.964767 -0.15918,0.211295 -0.33865,0.299131 -0.53847,0.263962 -0.26907,-0.01089 -0.50438,-0.04253 -0.70584,-0.09541 -0.18539,-0.07223 -0.34432,-0.14713 -0.47654,-0.224271 -0.15158,-0.09322 -0.27717,-0.197746 -0.37722,-0.313595 -0.1017,-0.133571 -0.23986,-0.469317 -0.41463,-1.007161 -0.17641,-0.555569 -0.34203,-1.183696 -0.4961,-1.884289 0.45416,-0.113434 0.99563,-0.252778 1.62372,-0.418013 0.62644,-0.182957 1.21832,-0.353622 1.77551,-0.512309 0.55557,-0.176411 1.03186,-0.336502 1.4296,-0.480461 0.39769,-0.143948 0.60375,-0.234659 0.61823,-0.271744 0.0128,-0.05479 0.004,-0.250351 -0.0273,-0.587028 -0.0309,-0.336675 -0.0729,-0.690248 -0.125,-1.06072 -0.036,-0.389827 -0.0785,-0.752472 -0.12724,-1.087503 -0.0488,-0.335039 -0.076,-0.537933 -0.0826,-0.608799 -0.10417,-0.740944 -0.25109,-1.361775 -0.4403,-1.862547 -0.19085,-0.518491 -0.38288,-0.858067 -0.57644,-1.018891 -0.32906,-0.273408 -0.80791,-0.425636 -1.43627,-0.456948 -0.22899,-0.01235 -0.46179,-0.0093 -0.69799,0.0092 z m -0.54607,2.811286 c 0.0824,-0.0021 0.16437,-1.52e-4 0.24532,0.0058 0.33994,0.0043 0.58322,0.02684 0.72989,0.06691 0.0564,0.03053 0.11959,0.131816 0.18914,0.304094 0.0695,0.172289 0.13307,0.380739 0.19143,0.625536 0.0568,0.227075 0.10616,0.472935 0.14847,0.737084 0.0583,0.244797 0.10544,0.463493 0.14118,0.656772 -0.11913,0.06462 -0.3071,0.15356 -0.5647,0.266706 -0.25761,0.113141 -0.54916,0.247226 -0.87436,0.402354 -0.32684,0.137417 -0.66988,0.294292 -1.02891,0.470419 -0.34292,0.156766 -0.65141,0.301634 -0.9251,0.434142 -0.0957,-0.455796 -0.17237,-0.895437 -0.22935,-1.319069 -0.0568,-0.423636 -0.0802,-0.779008 -0.0714,-1.065764 -0.004,-0.428536 0.12672,-0.753677 0.39223,-0.97478 0.26551,-0.221096 0.56323,-0.382402 0.89335,-0.484377 0.26088,-0.07773 0.51499,-0.11968 0.76238,-0.12577 z m -14.79468,1.153551 c -0.24971,0.0052 -0.52105,0.06606 -0.8141,0.182483 -0.2753,0.114784 -0.53734,0.273097 -0.78677,0.474847 -0.23167,0.200103 -0.36365,0.418141 -0.39556,0.653406 -0.0223,0.145027 -0.0106,0.465299 0.0352,0.961445 0.0458,0.496146 0.11778,1.079222 0.21542,1.74928 0.096,0.65235 0.20401,1.339612 0.32429,2.061193 0.12025,0.721583 0.24461,1.388992 0.37278,2.002623 0.12815,0.613634 0.24643,1.121172 0.35495,1.522175 0.12624,0.399368 0.22488,0.595778 0.29575,0.589224 0.14503,0.02235 0.37452,-0.0078 0.68856,-0.09041 0.3124,-0.100334 0.53689,-0.282344 0.67345,-0.545145 0.0449,-0.09351 0.0725,-0.373039 0.0831,-0.83865 0.009,-0.483341 10e-4,-1.054178 -0.0241,-1.713062 -0.009,-0.678252 -0.0304,-1.39127 -0.0637,-2.138751 -0.0347,-0.765224 -0.0824,-1.475384 -0.14279,-2.131012 -0.0444,-0.674972 -0.0966,-1.242238 -0.15689,-1.701306 -0.0442,-0.478424 -0.0881,-0.760044 -0.13172,-0.845373 l -5.1e-4,3.4e-5 c -0.0856,-0.152928 -0.26154,-0.21755 -0.52733,-0.192998 z"
         id="path16" />
    </g>
  </g>
</svg>
