<?xml version="1.0" encoding="UTF-8" standalone="no"?>
<!-- Created with Inkscape (http://www.inkscape.org/) -->

<svg
   width="1920"
   height="181"
   viewBox="0 0 508 47.889585"
   version="1.1"
   id="svg1"
   xml:space="preserve"
   inkscape:version="1.3 (0e150ed6c4, 2023-07-21)"
   sodipodi:docname="Try_This_At_Home-Bauchbinde.svg"
   inkscape:export-filename="Try_This_At_Home-Bauchbinde.png"
   inkscape:export-xdpi="96"
   inkscape:export-ydpi="96"
   xmlns:inkscape="http://www.inkscape.org/namespaces/inkscape"
   xmlns:sodipodi="http://sodipodi.sourceforge.net/DTD/sodipodi-0.dtd"
   xmlns:xlink="http://www.w3.org/1999/xlink"
   xmlns="http://www.w3.org/2000/svg"
   xmlns:svg="http://www.w3.org/2000/svg"><sodipodi:namedview
     id="namedview1"
     pagecolor="#505050"
     bordercolor="#ffffff"
     borderopacity="1"
     inkscape:showpageshadow="0"
     inkscape:pageopacity="0"
     inkscape:pagecheckerboard="1"
     inkscape:deskcolor="#d1d1d1"
     inkscape:document-units="mm"
     inkscape:zoom="0.19514008"
     inkscape:cx="748.18049"
     inkscape:cy="632.8787"
     inkscape:current-layer="layer1"
     showguides="true"
     showgrid="false" /><defs
     id="defs1"><inkscape:path-effect
       effect="perspective-envelope"
       down_left_point="105.26699,87.562047"
       down_right_point="142.30195,87.507346"
       id="path-effect5"
       is_visible="true"
       lpeversion="1"
       deform_type="perspective"
       horizontal_mirror="false"
       vertical_mirror="false"
       overflow_perspective="false"
       up_left_point="105.09076,60.81708"
       up_right_point="142.30195,73.978816" /><inkscape:path-effect
       effect="perspective-envelope"
       down_left_point="66.205508,87.46151"
       down_right_point="103.09726,87.46151"
       id="path-effect4"
       is_visible="true"
       lpeversion="1"
       deform_type="perspective"
       horizontal_mirror="false"
       vertical_mirror="false"
       overflow_perspective="false"
       up_left_point="66.205508,77.098739"
       up_right_point="103.09726,63.134236" /><radialGradient
       inkscape:collect="always"
       xlink:href="#linearGradient271"
       id="radialGradient1"
       gradientUnits="userSpaceOnUse"
       gradientTransform="matrix(0.75994923,0,0,0.07998286,-261.18933,49.475481)"
       cx="464"
       cy="-185.94397"
       fx="464"
       fy="-185.94397"
       r="254" /><linearGradient
       id="linearGradient271"
       inkscape:collect="always"><stop
         style="stop-color:#24b7fd;stop-opacity:1;"
         offset="0"
         id="stop271" /><stop
         style="stop-color:#0285c2;stop-opacity:1;"
         offset="1"
         id="stop272" /></linearGradient></defs><g
     inkscape:label="Layer 1"
     inkscape:groupmode="layer"
     id="layer1"><g
       id="g431"
       transform="matrix(1.1786378,0,0,1.1786378,119.7496,-16.839786)"
       style="stroke-width:0.848437"><rect
         style="fill:url(#radialGradient1);fill-opacity:1;fill-rule:evenodd;stroke:none;stroke-width:4.15732;stroke-linecap:round;stroke-linejoin:round;stroke-miterlimit:4.8;stroke-dasharray:none;stroke-opacity:1;paint-order:stroke fill markers"
         id="rect1"
         width="386.0542"
         height="40.631298"
         x="-101.6"
         y="14.287499"
         inkscape:export-filename="../../../Downloads/bp01.png"
         inkscape:export-xdpi="96.000008"
         inkscape:export-ydpi="96.000008" /><g
         id="g430"
         transform="translate(-110.69545,88.243544)"
         style="stroke-width:0.848437"><path
           id="path1"
           style="color:#000000;opacity:0.5;fill:#ffffff;fill-rule:evenodd;stroke-width:0.848437;stroke-linecap:square;stroke-miterlimit:4.8;-inkscape-stroke:none;paint-order:stroke fill markers"
           d="m 389.67286,-66.399565 -135.31216,0.0093 v 5.17e-4 h -4.47569 l -235.180998,0.01602 v 25.464595 h 0.499711 4.483447 0.516765 4.48293 0.507463 4.483447 0.516764 4.482931 0.500228 4.483447 0.516764 4.482931 0.507462 4.483448 0.516764 4.48293 40.448178 4.475695 0.516763 4.48293 0.50746 4.48345 0.51677 4.48293 0.50022 4.48345 0.51677 4.48293 0.50746 4.48345 0.51676 4.48293 40.44818 4.48293 0.51676 4.48293 0.50747 4.48344 0.51677 4.48293 0.50023 4.48344 0.51677 4.48293 0.50746 4.48345 0.51676 4.48293 40.44818 4.4757 0.51676 4.48293 0.50746 4.48345 0.51677 4.48293 0.50022 4.48345 0.51676 4.48294 0.50746 4.48345 0.51676 4.48293 40.44818 4.47569 0.51677 4.48293 0.50746 4.48345 0.51676 4.48293 0.50023 4.48345 0.51676 4.48293 0.50746 4.48345 0.51677 4.48293 15.46159 z m -374.484123,0.0088 h 4.483447 z m 5.000212,0 h 4.48293 z m 4.990393,0 h 4.483447 z m 5.000211,0 h 4.482931 z m 64.905082,0 h 4.475696 z m 4.992465,0 h 4.48293 z m 4.99039,0 h 4.48345 z m 5.00021,0 h 4.48293 z m 64.90508,0 h 4.48293 z m 4.9997,0 h 4.48293 z m 4.99039,0 h 4.48345 z m 5.00021,0 h 4.48293 z m -154.800368,5.17e-4 h 4.483447 z m 5.000211,0 h 4.482931 z m 4.990393,0 h 4.483448 z m 5.000212,0 h 4.48293 z m 4.983158,0 h 4.483447 z m 5.000212,0 h 4.48293 z m 4.990393,0 h 4.483447 z m 5.000211,0 h 4.482931 z m 24.449671,0 -4.475696,5.17e-4 h 4.475696 z m 20.473687,0 h 4.48345 z m 5.00021,0 h 4.48293 z m 4.99039,0 h 4.48345 z m 5.00021,0 h 4.48294 z m 4.98316,0 h 4.48345 z m 5.00021,0 h 4.48294 z m 4.9904,0 h 4.48345 z m 5.00021,0 h 4.48293 z m 24.4569,0 -4.48293,5.17e-4 h 4.48293 z m 20.47369,0 h 4.48345 z m 5.00021,0 h 4.48293 z m 4.99039,0 h 4.48345 z m 5.00022,0 h 4.48293 z m 4.98315,0 h 4.48345 z m 5.00022,0 h 4.48293 z m 4.99039,0 h 4.48345 z m 5.00021,0 h 4.48293 z m -154.800369,5.17e-4 h 4.483447 z m 5.000211,0 h 4.482931 z m 4.990393,0 h 4.483448 z m 69.897545,0 h 4.48345 z m 5.00021,0 h 4.48293 z m 4.99039,0 h 4.48345 z m 69.90478,0 h 4.48345 z m -219.705453,0.499194 h 4.483447 v 4.497917 h -4.483447 z m 5.000212,0 h 4.48293 v 4.497917 h -4.467944 -0.01499 z m 4.990393,0 h 4.483447 v 4.497917 h -4.475696 -0.0083 z m 5.000211,0 h 4.482931 v 4.497917 h -4.467945 -0.01499 z m 64.905082,0 h 4.475696 v 4.497917 h -4.475696 v -4.496883 z m 4.992465,0 h 4.48293 v 4.497917 h -4.46795 -0.015 z m 4.99039,0 h 4.48345 v 4.497917 h -4.4757 -0.008 z m 5.00021,0 h 4.48293 v 4.497917 h -4.46794 -0.015 z m 64.90508,0 h 4.48293 v 4.497917 h -4.48293 v -4.496883 z m 4.9997,0 h 4.48293 v 4.497917 h -4.46795 -0.015 z m 4.99039,0 h 4.48345 v 4.497917 h -4.4757 -0.008 z m 5.00021,0 h 4.48293 v 4.497917 h -4.46794 -0.015 z m 64.90508,0 h 4.4757 v 4.497917 h -4.4757 v -4.496883 z m 4.99246,0 h 4.48293 v 4.497917 h -4.46794 -0.015 z m 4.9904,0 h 4.48344 v 4.497917 h -4.47569 -0.008 z m 5.00021,0 h 4.48293 v 4.497917 h -4.46794 -0.015 z m 64.90508,0 h 4.4757 v 4.497917 h -4.4757 v -4.496883 z m 4.99246,0 h 4.48293 v 4.497917 h -4.46794 -0.015 z m 4.99039,0 h 4.48345 v 4.497917 h -4.47569 -0.008 z m 5.00022,0 h 4.48293 v 4.497917 h -4.46795 -0.015 z m -314.576668,5.17e-4 h 4.483447 v 4.4974 h -4.468461 -0.01499 z m 5.000211,0 h 4.482931 v 4.4974 h -4.467945 -0.01499 z m 4.990393,0 h 4.483448 v 4.4974 h -4.475696 -0.0083 z m 5.000212,0 h 4.48293 v 4.4974 h -4.467944 -0.01499 z m 4.983158,0 h 4.483447 v 4.497917 h -4.468461 v -5.17e-4 h -0.01499 z m 5.000212,0 h 4.48293 v 4.497917 h -4.467944 -0.01499 z m 4.990393,0 h 4.483447 v 4.497917 h -4.475696 -0.0083 z m 5.000211,0 h 4.482931 v 4.497917 h -4.467944 -0.01499 z m 44.923358,0 h 4.48345 v 4.4974 h -4.46847 -0.015 z m 5.00021,0 h 4.48293 v 4.4974 h -4.46794 -0.015 z m 4.99039,0 h 4.48345 v 4.4974 h -4.4757 -0.008 z m 5.00021,0 h 4.48294 v 4.4974 h -4.46795 -0.015 z m 4.98316,0 h 4.48345 v 4.497917 h -4.46846 v -5.17e-4 h -0.015 z m 5.00021,0 h 4.48294 v 4.497917 h -4.46795 -0.015 z m 4.9904,0 h 4.48345 v 4.497917 h -4.4757 -0.008 z m 5.00021,0 h 4.48293 v 4.497917 h -4.46794 -0.015 z m 44.93059,0 h 4.48345 v 4.4974 h -4.46846 -0.015 z m 5.00021,0 h 4.48293 v 4.4974 h -4.46794 -0.015 z m 4.99039,0 h 4.48345 v 4.4974 h -4.47569 -0.008 z m 5.00022,0 h 4.48293 v 4.4974 h -4.46795 -0.015 z m 4.98315,0 h 4.48345 v 4.497917 h -4.46846 v -5.17e-4 h -0.015 z m 5.00022,0 h 4.48293 v 4.497917 h -4.46795 -0.015 z m 4.99039,0 h 4.48345 v 4.497917 h -4.4757 -0.008 z m 5.00021,0 h 4.48293 v 4.497917 h -4.46794 -0.015 z m 44.92336,0 h 4.48344 v 4.4974 h -4.46846 -0.015 z m 5.00021,0 h 4.48293 v 4.4974 h -4.46795 -0.015 z m 4.99039,0 h 4.48345 v 4.4974 h -4.4757 -0.008 z m 5.00021,0 h 4.48293 v 4.4974 h -4.46794 -0.015 z m 4.98316,0 h 4.48345 v 4.497917 h -4.46846 v -5.17e-4 h -0.015 z m 5.00021,0 h 4.48293 v 4.497917 h -4.46794 -0.015 z m 4.9904,0 h 4.48344 v 4.497917 h -4.47569 -0.008 z m 5.00021,0 h 4.48293 v 4.497917 h -4.46795 -0.015 z m 44.92335,0 h 4.48345 v 4.4974 h -4.46846 -0.015 z m 5.00022,0 h 4.48293 v 4.4974 h -4.46795 -0.015 z m 4.99039,0 h 4.48345 v 4.4974 h -4.4757 -0.008 z m 5.00021,0 h 4.48293 v 4.4974 h -4.46794 -0.015 z m 4.98316,0 h 4.48345 v 4.497917 h -4.46847 v -5.17e-4 h -0.015 z m 5.00021,0 h 4.48293 v 4.497917 h -4.46794 -0.015 z m 4.99039,0 h 4.48345 v 4.497917 h -4.4757 -0.008 z m -309.576449,5.17e-4 h 4.483447 v 4.4974 h -4.468461 -0.01499 z m 5.000211,0 h 4.482931 v 4.4974 h -4.467944 -0.01499 z m 4.990393,0 h 4.483448 v 4.4974 h -4.475696 -0.0083 z m 5.000212,0 h 4.475696 v 4.4974 h -4.46071 -0.01499 z m 64.897333,0 h 4.48345 v 4.4974 h -4.46847 -0.015 z m 5.00021,0 h 4.48293 v 4.4974 h -4.46794 -0.015 z m 4.99039,0 h 4.48345 v 4.4974 h -4.4757 -0.008 z m 5.00021,0 h 4.48293 v 4.4974 h -4.46794 -0.015 z m 64.90457,0 h 4.48345 v 4.4974 h -4.46846 -0.015 z m 5.00021,0 h 4.48293 v 4.4974 h -4.46794 -0.015 z m 4.99039,0 h 4.48345 v 4.4974 h -4.47569 -0.008 z m 5.00022,0 h 4.47569 v 4.4974 h -4.46071 -0.015 z m 64.89733,0 h 4.48344 v 4.4974 h -4.46846 -0.015 z m 5.00021,0 h 4.48293 v 4.4974 h -4.46795 -0.015 z m 4.99039,0 h 4.48345 v 4.4974 h -4.4757 -0.008 z m 5.00021,0 h 4.4757 v 4.4974 h -4.46071 -0.015 z M 15.203723,-60.89034 h 4.468461 0.01499 v 4.497916 h -4.483447 z m 5.000212,0 h 4.475696 0.0072 v 4.497916 h -4.48293 z m 4.990393,0 h 4.468461 0.01499 v 4.497916 h -4.483447 z m 5.000211,0 H 34.663 v 5.17e-4 h 0.01447 v 4.497399 h -4.482931 z m 64.905083,0 h 4.460709 0.01499 v 4.497916 h -4.475695 z m 4.992458,0 h 4.4757 0.007 v 4.497916 h -4.48294 z m 4.99039,0 h 4.46847 0.015 v 4.497916 h -4.48345 z m 5.00022,0 h 4.46846 v 5.17e-4 h 0.0145 v 4.497399 h -4.48293 z m 64.90508,0 h 4.46794 0.015 v 4.497916 h -4.48293 z m 4.99969,0 h 4.4757 0.007 v 4.497916 h -4.48293 z m 4.9904,0 h 4.46846 0.015 v 4.497916 h -4.48344 z m 5.00021,0 h 4.46846 v 5.17e-4 h 0.0145 v 4.497399 h -4.48293 z m 64.90508,0 h 4.46071 0.015 v 4.497916 h -4.4757 z m 4.99246,0 h 4.4757 0.007 v 4.497916 h -4.48293 z m 4.99039,0 h 4.46846 0.015 v 4.497916 H 264.866 Z m 5.00022,0 h 4.46846 v 5.17e-4 h 0.0145 v 4.497399 h -4.48293 z m -234.688522,5.17e-4 h 4.468461 0.01499 v 4.497916 h -4.483447 z m 5.000211,0 h 4.475696 0.0067 v 4.497916 h -4.48293 z m 4.990393,0 h 4.468462 0.01499 v 4.497916 h -4.483448 z m 5.000212,0 h 4.468461 0.01447 v 4.497916 h -4.48293 z m 4.983158,0 h 4.468461 0.01499 v 4.497916 h -4.483448 z m 5.000212,0 h 4.475696 0.0067 v 4.497916 h -4.482931 z m 4.990393,0 h 4.468461 0.01499 v 4.497916 h -4.483447 z m 5.000212,0 h 4.468461 v 5.16e-4 h 0.01447 v 4.4974 h -4.48293 z m 44.923351,0 h 4.46847 0.015 v 4.497916 h -4.48345 z m 5.00022,0 h 4.47569 0.007 v 4.497916 h -4.48293 z m 4.99039,0 h 4.46846 0.015 v 4.497916 h -4.48345 z m 5.00021,0 h 4.46846 0.0145 v 4.497916 h -4.48293 z m 4.98316,0 h 4.46846 0.015 v 4.497916 h -4.48345 z m 5.00021,0 h 4.4757 0.007 v 4.497916 h -4.48293 z m 4.99039,0 h 4.46847 0.015 v 4.497916 h -4.48345 z m 5.00022,0 h 4.46846 v 5.16e-4 h 0.0145 v 4.4974 h -4.48293 z m 44.93059,0 h 4.46846 0.015 v 4.497916 h -4.48344 z m 5.00021,0 h 4.47569 0.007 v 4.497916 h -4.48241 z m 4.99039,0 h 4.46846 0.015 v 4.497916 h -4.48345 z m 5.00021,0 h 4.46846 0.0145 v 4.497916 h -4.48293 z m 4.98316,0 h 4.46846 0.015 v 4.497916 h -4.48345 z m 5.00021,0 h 4.4757 0.007 v 4.497916 h -4.48293 z m 4.9904,0 h 4.46846 0.015 v 4.497916 h -4.48344 z m 5.00021,0 h 4.46846 v 5.16e-4 h 0.0145 v 4.4974 h -4.48293 z m 44.92335,0 h 4.46846 0.015 v 4.497916 h -4.48345 z m 5.00021,0 h 4.4757 0.007 v 4.497916 h -4.48294 z m 4.9904,0 h 4.46846 0.015 v 4.497916 h -4.48345 z m 5.00021,0 h 4.46846 0.0145 v 4.497916 h -4.48293 z m 4.98316,0 h 4.46846 0.015 v 4.497916 h -4.48345 z m 5.00021,0 h 4.4757 0.007 v 4.497916 h -4.48293 z m 4.99039,0 h 4.46846 0.015 v 4.497916 h -4.48345 z m 5.00021,0 h 4.46847 v 5.16e-4 h 0.0145 v 4.4974 h -4.48293 z m 24.95714,0 h 4.46071 0.015 v 4.497399 h -4.47569 z m 4.99246,0 h 4.47569 0.007 v 4.497399 h -4.48293 z m 4.99039,0 h 4.46846 0.015 v 4.497399 h -4.48345 z m 5.00021,0 h 4.46846 v 5.16e-4 h 0.0145 v 4.496883 h -4.48293 z m -274.628713,5.16e-4 h 4.468461 0.01499 v 4.497917 h -4.483447 z m 5.000212,0 h 4.475695 0.0067 v 4.497917 h -4.48293 z m 4.990393,0 h 4.468461 0.01499 v 4.497917 h -4.483447 z m 5.000211,0 h 4.475696 v 4.4974 5.17e-4 h -4.475696 z m 64.897327,0 h 4.46847 0.015 v 4.497917 h -4.48345 z m 5.00022,0 h 4.47569 0.007 v 4.497917 h -4.48293 z m 4.99039,0 h 4.46846 0.015 v 4.497917 h -4.48345 z m 5.00021,0 h 4.48293 v 4.4974 5.17e-4 h -4.48293 z m 64.90457,0 h 4.46846 0.015 v 4.497917 h -4.48344 z m 5.00021,0 h 4.47569 0.007 v 4.497917 h -4.48293 z m 4.99039,0 h 4.46846 0.015 v 4.497917 h -4.48345 z m 5.00021,0 h 4.4757 v 4.4974 5.17e-4 h -4.4757 z m 64.89733,0 h 4.46846 0.015 v 4.497917 h -4.48345 z m 5.00021,0 h 4.4757 0.007 v 4.497917 h -4.48293 z m 4.9904,0 h 4.46846 0.015 v 4.497917 h -4.48344 z m 5.00021,0 h 4.47569 v 4.4974 5.17e-4 h -4.47569 z m 24.94938,0 h 4.46846 0.015 v 4.4974 h -4.48345 z m 5.00021,0 h 4.4757 0.007 v 4.4974 h -4.48293 z m 4.99039,0 h 4.46847 0.015 v 4.4974 h -4.48345 z m 5.00022,0 h 4.46846 0.0145 v 4.4974 h -4.48293 z m 4.98315,0 h 4.46847 0.015 v 4.4974 h -4.48345 z m 5.00022,0 h 4.47569 0.007 v 4.4974 h -4.48293 z m 4.99039,0 h 4.46846 0.015 v 4.4974 h -4.48345 z m -369.498377,4.997111 h 4.483447 v 4.481897 h -0.01499 -4.468461 z m 5.000212,0 h 4.48293 v 4.481897 h -0.0072 -4.475696 z m 4.990393,0 h 4.483447 v 4.481897 h -0.01499 -4.468461 z m 5.000211,0 h 4.482931 v 4.481897 H 34.663 30.194539 Z m 64.905083,0 h 4.475695 v 4.481897 h -0.01499 -4.460709 v -4.480863 z m 4.992458,0 h 4.48293 v 4.481897 h -0.007 -4.4757 z m 4.99039,0 h 4.48345 v 4.481897 h -0.015 -4.46847 z m 5.00022,0 h 4.48293 v 4.481897 h -0.0145 -4.46846 z m 64.90508,0 h 4.48293 v 4.481897 h -0.015 -4.46794 v -4.480863 z m 4.99969,0 h 4.48293 v 4.481897 h -0.007 -4.4757 z m 4.9904,0 h 4.48344 v 4.481897 h -0.015 -4.46846 z m 5.00021,0 h 4.48293 v 4.481897 h -0.0145 -4.46846 z m 64.90508,0 h 4.4757 v 4.481897 h -0.015 -4.46071 v -4.480863 z m 4.99246,0 h 4.48293 v 4.481897 h -0.007 -4.4757 z m 4.99039,0 h 4.48345 v 4.481897 h -0.015 -4.46846 z m 5.00022,0 h 4.48293 v 4.481897 h -0.0145 -4.46846 z m 64.90508,0 h 4.47569 v 4.481897 h -0.015 -4.46071 v -4.480863 z m 4.99246,0 h 4.48293 v 4.481897 h -0.007 -4.47569 z m 4.99039,0 h 4.48345 v 4.481897 h -0.015 -4.46846 z m 5.00021,0 h 4.48293 v 4.481897 h -0.0145 -4.46846 z m -314.576662,5.17e-4 h 4.483447 v 4.48138 h -0.01499 -4.468461 z m 5.000211,0 h 4.482931 v 4.48138 h -0.0072 -4.475696 z m 4.990393,0 h 4.483448 v 4.48138 h -0.01499 -4.468462 z m 5.000212,0 h 4.48293 v 4.48138 h -4.48293 z m 4.983158,0 h 4.483448 v 4.481897 h -0.01499 -4.468461 z m 5.000212,0 h 4.48293 v 4.481897 h -0.0072 -4.475696 z m 4.990393,0 h 4.483447 v 4.481897 h -0.01499 -4.468461 z m 5.000212,0 h 4.48293 v 4.481897 h -0.01447 -4.468461 z m 44.923351,0 h 4.48345 v 4.48138 h -0.015 -4.46847 z m 5.00022,0 h 4.48293 v 4.48138 h -0.007 -4.47569 z m 4.99039,0 h 4.48345 v 4.48138 h -0.015 -4.46846 z m 5.00021,0 h 4.48293 v 4.48138 h -4.48293 z m 4.98316,0 h 4.48345 v 4.481897 h -0.015 -4.46846 z m 5.00021,0 h 4.48293 v 4.481897 h -0.007 -4.4757 z m 4.99039,0 h 4.48345 v 4.481897 h -0.015 -4.46847 z m 5.00022,0 h 4.48293 v 4.481897 h -0.0145 -4.46846 z m 44.93059,0 h 4.48344 v 4.48138 h -0.015 -4.46846 z m 5.00021,0 h 4.48293 v 4.48138 h -0.007 -4.47569 z m 4.99039,0 h 4.48345 v 4.48138 h -0.015 -4.46846 z m 5.00021,0 h 4.48293 v 4.48138 h -4.48293 z m 4.98316,0 h 4.48345 v 4.481897 h -0.015 -4.46846 z m 5.00021,0 h 4.48293 v 4.481897 h -0.007 -4.4757 z m 4.9904,0 h 4.48344 v 4.481897 h -0.015 -4.46846 z m 5.00021,0 h 4.48293 v 4.481897 h -0.0145 -4.46846 z m 44.92335,0 h 4.48345 v 4.48138 h -0.015 -4.46846 z m 5.00021,0 h 4.48294 v 4.48138 h -0.007 -4.4757 z m 4.9904,0 h 4.48345 v 4.48138 h -0.015 -4.46846 z m 5.00021,0 h 4.48293 v 4.48138 h -4.48293 z m 4.98316,0 h 4.48345 v 4.481897 h -0.015 -4.46846 z m 5.00021,0 h 4.48293 v 4.481897 h -0.007 -4.4757 z m 4.99039,0 h 4.48345 v 4.481897 h -0.015 -4.46846 z m 5.00021,0 h 4.48293 v 4.481897 h -0.0145 -4.46847 z m 44.92336,0 h 4.48345 v 4.48138 h -0.015 -4.46846 z m 5.00021,0 h 4.48293 v 4.48138 h -0.007 -4.4757 z m 4.99039,0 h 4.48345 v 4.48138 h -0.015 -4.46847 z m 5.00022,0 h 4.48293 v 4.48138 h -4.48293 z m 4.98315,0 h 4.48345 v 4.481897 h -0.015 -4.46847 z m 5.00022,0 h 4.48293 v 4.481897 h -0.007 -4.47569 z m 4.99039,0 h 4.48345 v 4.481897 h -0.015 -4.46846 z m -309.576453,5.17e-4 h 4.483447 v 4.48138 h -0.01499 -4.468461 z m 5.000212,0 h 4.48293 v 4.48138 h -0.0072 -4.475695 z m 4.990393,0 h 4.483447 v 4.48138 h -0.01499 -4.468461 z m 5.000211,0 h 4.475696 v 4.480863 h -0.01499 v 5.17e-4 h -4.46071 z m 64.897327,0 h 4.48345 v 4.48138 h -0.015 -4.46847 z m 5.00022,0 h 4.48293 v 4.48138 h -0.007 -4.47569 z m 4.99039,0 h 4.48345 v 4.48138 h -0.015 -4.46846 z m 5.00021,0 h 4.48293 v 4.480863 h -0.015 v 5.17e-4 h -4.46794 z m 64.90457,0 h 4.48344 v 4.48138 h -0.015 -4.46846 z m 5.00021,0 h 4.48293 v 4.48138 h -0.007 -4.47569 z m 4.99039,0 h 4.48345 v 4.48138 h -0.015 -4.46846 z m 5.00021,0 h 4.4757 v 4.480863 h -0.015 v 5.17e-4 h -4.46071 z m 64.89733,0 h 4.48345 v 4.48138 h -0.015 -4.46846 z m 5.00021,0 h 4.48293 v 4.48138 h -0.007 -4.4757 z m 4.9904,0 h 4.48344 v 4.48138 h -0.015 -4.46846 z m 5.00021,0 h 4.47569 v 4.480863 h -0.015 v 5.17e-4 h -4.46071 z m -314.599403,4.998661 h 4.483447 v 4.481897 h -4.483447 z m 5.000212,0 h 0.01499 4.467944 v 4.481897 h -4.48293 z m 4.990393,0 h 0.0078 4.475696 v 4.481897 h -4.483447 z m 5.000211,0 h 0.01499 4.467945 v 4.481897 h -4.482931 z m 64.920069,0 h 4.460709 v 4.481897 h -4.475696 v -4.480863 h 0.01499 z m 4.977478,0 h 0.015 4.46795 v 4.481897 h -4.48293 z m 4.99039,0 h 0.008 4.4757 v 4.481897 h -4.48345 z m 5.00021,0 h 0.015 4.46794 v 4.481897 h -4.48293 z m 64.92007,0 h 4.46794 v 4.481897 h -4.48293 v -4.480863 h 0.015 z m 4.98471,0 h 0.015 4.46795 v 4.481897 h -4.48293 z m 4.99039,0 h 0.008 4.4757 v 4.481897 h -4.48345 z m 5.00021,0 h 0.015 4.46794 v 4.481897 h -4.48293 z m 64.92007,0 h 4.46071 v 4.481897 h -4.4757 v -4.480863 h 0.015 z m 4.97747,0 h 0.015 4.46794 v 4.481897 h -4.48293 z m 4.9904,0 h 0.008 4.47569 v 4.481897 h -4.48344 z m 5.00021,0 h 0.015 4.46794 v 4.481897 h -4.48293 z m -234.688518,5.17e-4 h 4.483447 v 4.481897 h -4.483447 z m 5.000211,0 h 0.01499 4.467945 v 4.481897 h -4.482931 z m 4.990393,0 h 0.0078 4.475696 v 4.481897 h -4.483448 z m 5.000212,0 h 0.01499 4.467944 v 4.481897 h -4.48293 z m 4.983158,0 h 0.01499 4.468461 v 4.481897 H 55.13669 Z m 5.000212,0 h 0.01499 4.467944 v 4.481897 h -4.48293 z m 4.990393,0 h 0.0078 4.475696 v 4.481897 H 65.12734 Z m 5.000211,0 h 0.01499 4.467944 v 4.481897 h -4.482931 z m 44.923358,0 h 4.48345 v 4.481897 h -4.48345 z m 5.00021,0 h 0.015 4.46794 v 4.481897 h -4.48293 z m 4.99039,0 h 0.008 4.4757 v 4.481897 h -4.48345 z m 5.00021,0 h 0.015 4.46795 v 4.481897 h -4.48294 z m 4.98316,0 h 0.015 4.46846 v 4.481897 h -4.48345 z m 5.00021,0 h 0.015 4.46795 v 4.481897 h -4.48294 z m 4.9904,0 h 0.008 4.4757 v 4.481897 h -4.48345 z m 5.00021,0 h 0.015 4.46794 v 4.481897 h -4.48293 z m 44.93059,0 h 4.48345 v 4.481897 h -4.48345 z m 5.00021,0 h 0.015 4.46794 v 4.481897 h -4.48293 z m 4.99039,0 h 0.008 4.47569 v 4.481897 h -4.48345 z m 5.00022,0 h 0.015 4.46795 v 4.481897 h -4.48293 z m 4.98315,0 h 0.015 4.46846 v 4.481897 h -4.48345 z m 5.00022,0 h 0.015 4.46795 v 4.481897 h -4.48293 z m 4.99039,0 h 0.008 4.4757 v 4.481897 h -4.48345 z m 5.00021,0 h 0.015 4.46794 v 4.481897 h -4.48293 z m 44.92336,0 h 4.48344 v 4.481897 h -4.48344 z m 5.00021,0 h 0.015 4.46795 v 4.481897 h -4.48293 z m 4.99039,0 h 0.008 4.4757 v 4.481897 h -4.48345 z m 5.00021,0 h 0.015 4.46794 v 4.481897 h -4.48293 z m 4.98316,0 h 0.015 4.46846 v 4.481897 h -4.48345 z m 5.00021,0 h 0.015 4.46794 v 4.481897 h -4.48293 z m 4.9904,0 h 0.008 4.47569 v 4.481897 h -4.48344 z m 5.00021,0 h 0.015 4.46795 v 4.481897 h -4.48293 z m 24.97212,0 h 4.46071 v 4.48138 h -4.4757 v -4.480863 h 0.015 z m 4.97747,0 h 0.015 4.46794 v 4.48138 h -4.48293 z m 4.99039,0 h 0.008 4.47569 v 4.48138 h -4.48345 z m 5.00022,0 h 0.015 4.46795 v 4.48138 h -4.48293 z m -274.628719,5.17e-4 h 4.483447 v 4.481897 h -4.483447 z m 5.000211,0 h 0.01499 4.467944 v 4.481897 h -4.482931 z m 4.990393,0 h 0.0078 4.475696 v 4.481897 h -4.483448 z m 5.000212,0 h 0.01499 4.46071 v 4.48138 5.17e-4 h -4.475696 z m 64.897333,0 h 4.48345 v 4.481897 h -4.48345 z m 5.00021,0 h 0.015 4.46794 v 4.481897 h -4.48293 z m 4.99039,0 h 0.008 4.4757 v 4.481897 h -4.48345 z m 5.00021,0 h 0.015 4.46794 v 4.48138 5.17e-4 h -4.48293 z m 64.90457,0 h 4.48345 v 4.481897 h -4.48345 z m 5.00021,0 h 0.015 4.46794 v 4.481897 h -4.48293 z m 4.99039,0 h 0.008 4.47569 v 4.481897 h -4.48345 z m 5.00022,0 h 0.015 4.46071 v 4.48138 5.17e-4 h -4.47569 z m 64.89733,0 h 4.48344 v 4.481897 h -4.48344 z m 5.00021,0 h 0.015 4.46795 v 4.481897 h -4.48293 z m 4.99039,0 h 0.008 4.4757 v 4.481897 h -4.48345 z m 5.00021,0 h 0.015 4.46071 v 4.48138 5.17e-4 h -4.4757 z m 24.94938,0 h 4.48345 v 4.48138 h -4.48345 z m 5.00022,0 h 0.015 4.46795 v 4.48138 h -4.48293 z m 4.99039,0 h 0.008 4.4757 v 4.48138 h -4.48345 z m 5.00021,0 h 0.015 4.46794 v 4.48138 h -4.48293 z m 4.98316,0 h 0.015 4.46847 v 4.48138 h -4.48345 z m 5.00021,0 h 0.015 4.46794 v 4.48138 h -4.48293 z m 4.99039,0 h 0.008 4.4757 v 4.48138 h -4.48345 z m -369.498373,4.981091 h 4.483447 v 4.499467 h -4.483447 z m 5.000212,0 h 4.48293 v 4.499467 h -4.48293 z m 4.990393,0 h 4.483447 v 4.499467 h -4.483447 z m 5.000211,0 h 4.482931 v 4.499467 h -4.482931 z m 64.905082,0 h 4.475696 v 4.499467 h -4.475696 v -4.498433 z m 4.992465,0 h 4.48293 v 4.499467 h -4.48293 z m 4.99039,0 h 4.48345 v 4.499467 h -4.48345 z m 5.00021,0 h 4.48293 v 4.499467 h -4.48293 z m 64.90508,0 h 4.48293 v 4.499467 h -4.48293 v -4.498433 z m 4.9997,0 h 4.48293 v 4.499467 h -4.48293 z m 4.99039,0 h 4.48345 v 4.499467 h -4.48345 z m 5.00021,0 h 4.48293 v 4.499467 h -4.48293 z m 64.90508,0 h 4.4757 v 4.499467 h -4.4757 v -4.498433 z m 4.99246,0 h 4.48293 v 4.499467 h -4.48293 z m 4.9904,0 h 4.48344 v 4.499467 h -4.48344 z m 5.00021,0 h 4.48293 v 4.499467 h -4.48293 z m 64.90508,0 h 4.4757 v 4.499467 h -4.4757 v -4.498433 z m 4.99246,0 h 4.48293 v 4.499467 h -4.48293 z m 4.99039,0 h 4.48345 v 4.499467 h -4.48345 z m 5.00022,0 h 4.48293 v 4.499467 h -4.48293 z m -314.576668,5.17e-4 h 4.483447 v 4.499467 h -4.483447 z m 5.000211,0 h 4.482931 v 4.499467 h -4.482931 z m 4.990393,0 h 4.483448 v 4.499467 h -4.483448 z m 5.000212,0 h 4.48293 v 4.499467 h -4.48293 z m 4.983158,0 h 4.483447 v 4.499467 h -4.483447 z m 5.000212,0 h 4.48293 v 4.499467 h -4.48293 z m 4.990393,0 h 4.483447 v 4.499467 h -4.483447 z m 5.000211,0 h 4.482931 v 4.499467 h -4.482931 z m 44.923358,0 h 4.48345 v 4.499467 h -4.48345 z m 5.00021,0 h 4.48293 v 4.499467 h -4.48293 z m 4.99039,0 h 4.48345 v 4.499467 h -4.48345 z m 5.00021,0 h 4.48294 v 4.499467 h -4.48294 z m 4.98316,0 h 4.48345 v 4.499467 h -4.48345 z m 5.00021,0 h 4.48294 v 4.499467 h -4.48294 z m 4.9904,0 h 4.48345 v 4.499467 h -4.48345 z m 5.00021,0 h 4.48293 v 4.499467 h -4.48293 z m 44.93059,0 h 4.48345 v 4.499467 h -4.48345 z m 5.00021,0 h 4.48293 v 4.499467 h -4.48293 z m 4.99039,0 h 4.48345 v 4.499467 h -4.48345 z m 5.00022,0 h 4.48293 v 4.499467 h -4.48293 z m 4.98315,0 h 4.48345 v 4.499467 h -4.48345 z m 5.00022,0 h 4.48293 v 4.499467 h -4.48293 z m 4.99039,0 h 4.48345 v 4.499467 h -4.48345 z m 5.00021,0 h 4.48293 v 4.499467 h -4.48293 z m 44.92336,0 h 4.48344 v 4.499467 h -4.48344 z m 5.00021,0 h 4.48293 v 4.499467 h -4.48293 z m 4.99039,0 h 4.48345 v 4.499467 h -4.48345 z m 5.00021,0 h 4.48293 v 4.499467 h -4.48293 z m 4.98316,0 h 4.48345 v 4.499467 h -4.48345 z m 5.00021,0 h 4.48293 v 4.499467 h -4.48293 z m 4.9904,0 h 4.48344 v 4.499467 h -4.48344 z m 5.00021,0 h 4.48293 v 4.499467 h -4.48293 z m 44.92335,0 h 4.48345 v 4.499467 h -4.48345 z m 5.00022,0 h 4.48293 v 4.499467 h -4.48293 z m 4.99039,0 h 4.48345 v 4.499467 h -4.48345 z m 5.00021,0 h 4.48293 v 4.499467 h -4.48293 z m 4.98316,0 h 4.48345 v 4.499467 h -4.48345 z m 5.00021,0 h 4.48293 v 4.499467 h -4.48293 z m 4.99039,0 h 4.48345 v 4.499467 h -4.48345 z m -309.576449,5.17e-4 h 4.483447 v 4.499467 h -4.483447 z m 5.000211,0 h 4.482931 v 4.499467 h -4.482931 z m 4.990393,0 h 4.483448 v 4.499467 h -4.483448 z m 5.000212,0 h 4.475696 v 4.499467 h -4.475696 z m 64.897333,0 h 4.48345 v 4.499467 h -4.48345 z m 5.00021,0 h 4.48293 v 4.499467 h -4.48293 z m 4.99039,0 h 4.48345 v 4.499467 h -4.48345 z m 5.00021,0 h 4.48293 v 4.499467 h -4.48293 z m 64.90457,0 h 4.48345 v 4.499467 h -4.48345 z m 5.00021,0 h 4.48293 v 4.499467 h -4.48293 z m 4.99039,0 h 4.48345 v 4.499467 h -4.48345 z m 5.00022,0 h 4.47569 v 4.499467 h -4.47569 z m 64.89733,0 h 4.48344 v 4.499467 h -4.48344 z m 5.00021,0 h 4.48293 v 4.499467 h -4.48293 z m 4.99039,0 h 4.48345 v 4.499467 h -4.48345 z m 5.00021,0 h 4.4757 v 4.499467 h -4.4757 z" /><path
           id="path3"
           style="fill:#f9f9f9;fill-opacity:1;fill-rule:evenodd;stroke:none;stroke-width:0.424219;stroke-linecap:square;stroke-linejoin:miter;stroke-miterlimit:4.8;stroke-dasharray:none;stroke-opacity:1;paint-order:stroke fill markers"
           d="m 14.574821,-66.518937 v 0.750342 0.749825 h 0.750859 v -0.749825 h 0.749308 v -0.750342 H 15.32568 Z m 24.229529,0.02222 v 0.750341 h 0.749825 v 0.749826 h 0.750342 v -0.749826 h 0.749825 v -0.750341 h -0.749825 -0.750342 z m 24.940596,0 v 0.750341 h 0.749825 v 0.749826 h 0.750342 v -0.749826 h 0.749825 v -0.750341 h -0.749825 -0.750342 z m 24.950415,0 v 0.750341 h 0.749825 v 0.749826 h 0.750342 v -0.749826 h 0.749825 v -0.750341 h -0.749825 -0.750342 z m 24.970049,0 v 0.750341 h 0.74983 v 0.749826 h 0.75034 v -0.749826 h 0.74983 v -0.750341 h -0.74983 -0.75034 z m 24.96489,0 v 0.750341 h 0.74982 v 0.749826 h 0.75034 v -0.749826 h 0.74983 v -0.750341 h -0.74983 -0.75034 z m 24.97057,0 v 0.750341 h 0.74982 v 0.749826 h 0.75034 v -0.749826 h 0.74983 v -0.750341 h -0.74983 -0.75034 z m 24.95661,0 v 0.750341 h 0.74983 v 0.749826 h 0.75034 v -0.749826 h 0.74982 v -0.750341 h -0.74982 -0.75034 z m 24.98297,0 v 0.750341 h 0.74983 v 0.749826 h 0.75034 v -0.749826 h 0.74983 v -0.750341 h -0.74983 -0.75034 z m 24.96954,0 v 0.750341 h 0.74982 v 0.749826 h 0.75035 v -0.749826 h 0.74982 v -0.750341 h -0.74982 -0.75035 z m 24.97884,0 v 0.750341 h 0.74982 v 0.749826 h 0.75034 v -0.749826 h 0.74983 v -0.750341 h -0.74983 -0.75034 z m 24.93388,0 v 0.750341 h 0.74982 v 0.749826 h 0.75034 v -0.749826 h 0.74983 v -0.750341 h -0.74983 -0.75034 z m 24.95351,0 v 0.750341 h 0.74983 v 0.749826 h 0.75034 v -0.749826 h 0.74982 v -0.750341 h -0.74982 -0.75034 z m 24.99227,0 v 0.750341 h 0.74983 v 0.749826 h 0.75034 v -0.749826 h 0.74983 v -0.750341 h -0.74983 -0.75034 z m 24.94422,0 v 0.750341 h 0.74982 v 0.749826 h 0.75034 v -0.749826 h 0.74983 v -0.750341 h -0.74983 -0.75034 z m 24.97677,0 v 0.750341 h 0.74982 v 0.749826 h 0.63356 v -1.500167 h -0.63356 z m -373.717243,24.23728 v 0.749825 0.747758 h 1.500167 v -0.747758 h -0.749825 v -0.749825 z m 24.981938,0.0041 v 0.749825 H 38.80435 v 0.743624 h 2.249992 v -0.743624 h -0.749825 v -0.749825 z m 24.932845,0 v 0.749825 h -0.749825 v 0.743624 h 2.249992 v -0.743624 h -0.749825 v -0.749825 z m 24.979354,0 v 0.749825 h -0.749825 v 0.743624 h 2.249992 v -0.743624 h -0.749826 v -0.749825 z m 24.932326,0 v 0.749825 h -0.74982 v 0.743624 h 2.24999 v -0.743624 h -0.74983 v -0.749825 z m 24.98297,0 v 0.749825 h -0.74982 v 0.743624 h 2.24999 v -0.743624 h -0.74983 v -0.749825 z m 24.93233,0 v 0.749825 h -0.74982 v 0.743624 h 2.24999 v -0.743624 h -0.74983 v -0.749825 z m 24.97936,0 v 0.749825 h -0.74983 v 0.743624 h 2.24999 v -0.743624 h -0.74982 v -0.749825 z m 24.93284,0 v 0.749825 h -0.74982 v 0.743624 h 2.24999 v -0.743624 h -0.74983 v -0.749825 z m 25.03155,0 v 0.749825 h -0.74983 v 0.743624 h 2.24999 v -0.743624 h -0.74982 v -0.749825 z m 24.93284,0 v 0.749825 h -0.74982 v 0.743624 h 2.24999 v -0.743624 h -0.74983 v -0.749825 z m 24.97936,0 v 0.749825 h -0.74983 v 0.743624 h 2.24999 v -0.743624 h -0.74982 v -0.749825 z m 24.93284,0 v 0.749825 h -0.74982 v 0.743624 h 2.24999 v -0.743624 h -0.74983 v -0.749825 z m 24.98246,0 v 0.749825 h -0.74983 v 0.743624 h 2.24999 v -0.743624 h -0.74982 v -0.749825 z m 24.93232,0 v 0.749825 h -0.74982 v 0.743624 h 2.24999 v -0.743624 h -0.74982 v -0.749825 z m 24.97987,0 v 0.749825 h -0.74982 v 0.743624 h 1.42524 v -1.493449 z" /></g></g></g></svg>
