<?xml version="1.0" encoding="UTF-8" standalone="no"?>
<!-- Created with Inkscape (http://www.inkscape.org/) -->

<svg
   width="100mm"
   height="105.035mm"
   viewBox="0 0 100 105.035"
   version="1.1"
   id="svg1"
   inkscape:version="1.3 (0e150ed6c4, 2023-07-21)"
   sodipodi:docname="TV_Logo_White.svg"
   xmlns:inkscape="http://www.inkscape.org/namespaces/inkscape"
   xmlns:sodipodi="http://sodipodi.sourceforge.net/DTD/sodipodi-0.dtd"
   xmlns="http://www.w3.org/2000/svg"
   xmlns:svg="http://www.w3.org/2000/svg">
  <sodipodi:namedview
     id="namedview1"
     pagecolor="#505050"
     bordercolor="#ffffff"
     borderopacity="1"
     inkscape:showpageshadow="0"
     inkscape:pageopacity="0"
     inkscape:pagecheckerboard="1"
     inkscape:deskcolor="#d1d1d1"
     inkscape:document-units="mm"
     inkscape:zoom="0.88432251"
     inkscape:cx="162.83652"
     inkscape:cy="242.55857"
     inkscape:current-layer="layer1" />
  <defs
     id="defs1" />
  <g
     inkscape:label="Layer 1"
     inkscape:groupmode="layer"
     id="layer1">
    <g
       id="g1"
       transform="matrix(1.0346047,0,0,1.0346047,-51.449166,-33.120721)"
       style="stroke-width:0.966553">
      <path
         id="path6"
         style="color:#000000;fill:#fefefe;stroke-width:0.966553;stroke-linecap:round;stroke-linejoin:round;-inkscape-stroke:none;paint-order:stroke markers fill"
         d="m 98.907141,32.013033 c -3.172748,-0.01563 -8.001402,1.639237 -13.445691,5.01158 -5.444776,3.372638 -11.472023,8.484969 -16.843933,15.46624 -9.829203,12.773883 -17.439682,31.817999 -15.207857,57.766497 0.0021,-3e-5 0.0041,3e-5 0.0062,0 h 5.17e-4 c 0.370785,-0.005 0.753955,-0.004 1.1498,5.2e-4 0.04055,4.7e-4 0.07241,0.004 0.112655,0.005 C 52.440815,84.557475 59.917296,65.799911 69.5849,53.236027 74.863255,46.37634 80.786503,41.35627 86.104305,38.062276 c 5.317308,-3.293683 10.070911,-4.841034 12.795601,-4.827612 8.896734,0.04384 21.454234,7.590429 30.854964,21.920626 2.70541,4.124049 5.10099,8.870832 7.13342,14.091129 -1.45058,-2.045083 -3.58683,-3.381051 -5.77123,-3.393074 -0.89935,-0.0049 -1.75767,0.210586 -2.51044,0.636653 -3.4e-4,5.16e-4 -6.9e-4,0.001 -0.001,0.0016 -1.13867,0.647006 -1.9043,1.783726 -2.31976,3.129008 -6.79746,-7.949939 -15.32239,-12.918969 -24.09258,-14.166061 -2.601103,-0.369864 -5.223918,-0.413126 -7.822783,-0.113171 -7.796548,0.900021 -15.391216,4.896882 -21.673612,12.410612 -0.329894,0.394552 -0.649209,0.80975 -0.968417,1.223698 -0.461862,-1.054994 -1.152463,-1.945913 -2.102714,-2.484086 v -5.17e-4 -5.17e-4 -5.17e-4 c -0.752767,-0.426067 -1.611098,-0.641685 -2.510441,-0.636653 -2.455315,0.01349 -4.903402,1.643349 -6.318477,4.142899 -1.995225,3.5243 -1.358683,7.734993 1.537374,9.374622 0.852123,0.481927 1.844941,0.635315 2.865458,0.566374 -3.680174,8.022743 -6.364423,18.123978 -7.633126,30.479281 0.309666,0.0245 0.671897,0.0429 0.91519,0.0754 1.284498,-12.522817 4.022109,-22.697668 7.762317,-30.683912 1.976295,-0.497628 3.787174,-1.944332 4.918562,-3.942396 1.060758,-1.87479 1.399821,-4.021355 0.944646,-5.900415 0.424546,-0.559575 0.852025,-1.107678 1.287776,-1.628841 6.153042,-7.359012 13.520494,-11.221236 21.080367,-12.091251 1.259995,-0.144994 2.525073,-0.206475 3.790983,-0.187069 h 5.17e-4 c 1.265925,0.01942 2.53276,0.119565 3.79615,0.299207 8.6972,1.236703 17.21378,6.245846 23.95306,14.343827 -0.22216,1.698231 0.13638,3.53549 1.05162,5.162992 3.4e-4,5.18e-4 6.9e-4,10e-4 0.001,0.0015 1.15701,2.03505 3.01713,3.493934 5.03432,3.958415 4.54729,8.548485 7.42038,19.155252 7.64708,31.408933 0.13622,-0.17271 0.27065,-0.3261 0.40359,-0.4594 0.17846,-0.17985 0.33861,-0.28612 0.49041,-0.35708 -0.33215,-11.793841 -3.09843,-22.078822 -7.45588,-30.477214 0.96345,0.04049 1.89911,-0.114154 2.70733,-0.567408 3.4e-4,-5.16e-4 6.9e-4,-0.001 0.001,-0.0015 1.95989,-1.109449 2.78814,-3.414096 2.56316,-5.868892 3.43657,10.514485 5.21239,22.961429 4.23488,37.215814 0.40863,0.15219 0.80413,0.33391 1.18856,0.5395 C 145.63415,87.076108 139.57465,67.899836 130.77445,54.485046 121.20966,39.904761 108.47677,32.060192 98.907141,32.013033 Z m -0.629419,36.123893 -0.125574,0.0016 c -9.807563,0.108275 -19.310012,4.507457 -25.50697,12.945979 l -0.346749,0.196888 c -0.13839,0.07873 -0.193052,0.250594 -0.125573,0.394808 l 0.02997,0.06408 c -1.441456,2.056697 -2.73865,4.300973 -3.75791,6.828007 -4.82e-4,0.0012 -9.6e-4,0.0023 -0.0015,0.0036 -3.42e-4,6.11e-4 -4.44e-4,0.002 -0.001,0.0026 -2.468965,5.731194 -3.756358,12.664262 -3.369303,20.798212 l -0.001,-0.0248 -0.03204,1.03249 c -0.0096,0.30443 0.383626,0.43367 0.556555,0.18294 l 0.571541,-0.83509 0.01189,-0.0155 v -10e-4 c 6.9742,-9.71119 13.691074,-15.91554 20.185331,-19.29443 l 0.0036,-0.001 c 4.58e-4,-2.38e-4 9.61e-4,-0.0016 0.0016,-0.0016 3.735943,-1.84907 7.558054,-2.860874 11.462349,-2.995683 4.747951,-0.163941 9.639211,0.971774 14.661121,3.50728 7.261,3.836942 14.4091,10.443323 21.46536,18.823653 l 0.54828,0.65112 c 0.1844,0.21683 0.53901,0.0857 0.53795,-0.19895 l -0.008,-0.85163 v -10e-4 c -0.0806,-7.37094 -1.4944,-13.737877 -3.84059,-19.130097 0.14483,-0.07482 0.20534,-0.250216 0.13746,-0.398425 l -0.39739,-0.799951 c -2.45708,-4.967312 -5.70486,-8.997718 -9.39788,-12.185303 l -0.13642,-0.239262 c -0.0671,-0.06766 -0.16185,-0.100154 -0.25632,-0.08785 -1.93019,-1.616626 -3.98738,-2.956969 -6.11746,-4.094323 -0.0326,-0.07798 -0.096,-0.13897 -0.17518,-0.168466 l -0.3576,-0.12764 c -0.002,-7.11e-4 -0.004,-0.0014 -0.006,-0.0021 l -0.004,-0.0016 c -5.12113,-2.631538 -10.67568,-4.003297 -16.186096,-3.967716 -0.0075,-0.0034 -0.01504,-0.0065 -0.02274,-0.0093 z m -30.251383,0.132809 c 0.328646,-0.0018 0.632776,0.07649 0.89917,0.227376 1.030251,0.583256 1.314507,2.171413 0.518831,3.577043 -0.795835,1.405775 -2.304368,1.978735 -3.33468,1.395263 -1.030128,-0.583377 -1.314527,-2.170987 -0.518832,-3.576526 0.563369,-0.995157 1.537145,-1.618161 2.435511,-1.623156 z m 61.779691,0 c 0.89837,0.0049 1.87111,0.627999 2.43448,1.623156 0.79586,1.405722 0.51156,2.994315 -0.51883,3.57756 -1.03033,0.583195 -2.53793,0.0094 -3.33365,-1.396297 -0.79568,-1.40563 -0.51142,-2.993787 0.51883,-3.577043 0.2664,-0.150881 0.57052,-0.229147 0.89917,-0.227376 z m -31.260107,4.063318 c 0.807547,1.394986 1.677127,2.715981 2.837037,3.408577 1.03394,0.61739 2.35103,0.618723 3.45767,-0.285254 0.59969,-0.48989 1.12239,-1.330583 1.63607,-2.295984 0.16662,1.561818 0.62194,2.99561 1.68672,3.783232 0.90272,0.66773 2.14549,0.766492 3.31763,0.115755 0.50325,-0.279413 0.97485,-0.757536 1.43971,-1.300179 -0.10293,0.896901 -0.12195,1.789145 0.2992,2.552299 0.47407,0.859042 1.48499,1.311071 2.79466,1.238167 0.80718,-0.04494 1.86225,-0.364297 3.02566,-0.775146 -0.0931,0.177199 -0.21703,0.329527 -0.28629,0.523482 -0.35829,1.003352 -0.4772,2.075867 -0.15864,3.007568 0.32968,0.964316 1.24849,1.688125 2.47375,1.661398 0.294,-0.0064 0.63186,-0.150155 0.95033,-0.237195 -0.16609,0.236516 -0.38778,0.464218 -0.48163,0.714168 -0.43387,1.155479 -0.0901,2.291625 0.72502,3.049943 1.52286,1.416695 4.36491,2.000436 7.51582,2.545065 1.85815,4.081926 3.1053,8.820275 3.65456,14.146941 -0.62675,-2.20299 -1.21261,-4.268315 -1.99316,-5.753139 -0.6764,-1.286689 -1.61942,-2.259066 -2.96106,-2.410705 -0.74328,-0.08401 -1.56978,0.197823 -2.44016,0.596346 0.20083,-0.515398 0.42221,-1.028321 0.47801,-1.577682 0.15241,-1.500167 -0.15743,-3.028988 -0.80616,-4.148067 -0.32431,-0.559447 -0.74391,-1.031465 -1.28467,-1.303279 -0.54925,-0.276073 -1.21616,-0.301962 -1.83658,-0.01085 -0.37711,0.177143 -0.73004,0.492685 -1.07332,0.872814 0.0899,-0.869849 0.20111,-1.759662 0.0822,-2.430342 -0.2999,-1.690952 -1.25711,-2.789425 -2.47943,-3.077332 -1.21592,-0.286391 -2.55142,0.201564 -3.65043,1.218014 -0.35016,0.323867 -0.61705,0.802939 -0.91002,1.235583 0.012,-1.196799 -0.0547,-2.295523 -0.34726,-3.128491 -0.55096,-1.568856 -1.61067,-2.513943 -2.82774,-2.682007 -1.21286,-0.167485 -2.45878,0.416859 -3.41426,1.502751 -0.27183,0.308937 -0.46032,0.721831 -0.66921,1.11001 -0.57062,-2.191537 -2.11068,-3.6604 -3.82612,-3.978569 -1.28919,-0.239118 -2.65525,0.167765 -3.525369,1.292945 -0.473263,0.61201 -0.658819,1.48409 -0.747758,2.440161 -1.473415,-2.8221 -3.543805,-4.407051 -5.473051,-4.2292 -1.238333,0.114158 -2.291533,0.982866 -2.73575,2.370915 -0.117675,0.367698 -0.09959,0.833621 -0.126607,1.26659 -0.476904,-0.738663 -0.984773,-1.364934 -1.582849,-1.700672 -1.387678,-0.778988 -2.906411,-0.366008 -3.96875,0.57981 -1.056392,0.9405 -1.772175,2.385053 -1.861902,3.892785 -0.02247,0.377261 0.108533,0.716735 0.19327,1.069702 -0.869717,-0.593355 -1.712778,-1.077957 -2.492871,-1.268139 -1.509352,-0.367961 -2.828731,0.0184 -3.645773,0.927075 -1.225415,1.362899 -1.180204,3.626307 -0.08682,5.85804 -1.166434,-0.691002 -2.212279,-1.209863 -3.047359,-1.310514 -0.649084,-0.07823 -1.235331,0.02421 -1.706873,0.31471 -0.470558,0.289878 -0.789866,0.73943 -0.999422,1.240234 -0.416885,0.996281 -0.471619,2.249533 -0.458887,3.58066 0.0076,0.788135 0.03907,1.581553 0.06408,2.369364 -0.38609,-0.472779 -0.765311,-0.984218 -1.18029,-1.292427 -0.394729,-0.29317 -0.812022,-0.516856 -1.27279,-0.583427 -0.470957,-0.06801 -0.962583,0.05788 -1.363225,0.373104 -0.155379,0.122261 -0.260999,0.345646 -0.392224,0.51418 0.465082,-2.652537 1.083435,-5.169084 1.947685,-7.442956 2.022098,-0.202883 3.480717,-0.57864 4.511353,-1.166854 1.065695,-0.608245 1.672394,-1.494431 1.825211,-2.460315 0.166849,-1.054614 -0.189485,-2.10006 -0.623734,-3.125908 1.335571,0.534236 2.801002,0.498615 3.934126,-0.23151 0.937373,-0.603992 1.597985,-1.653454 1.584917,-2.934705 -0.0049,-0.495795 -0.177783,-0.996399 -0.399459,-1.498099 0.977828,0.49414 1.997467,0.824012 2.98173,0.471289 0.967454,-0.346693 1.71908,-1.21147 1.946651,-2.429826 0.09299,-0.497848 -0.03508,-1.114267 -0.12299,-1.709973 0.158239,0.146136 0.291446,0.310439 0.471289,0.438733 1.000452,0.713674 2.114093,1.200218 3.203422,1.212846 1.116221,0.01264 2.201304,-0.605813 2.654619,-1.826762 0.162963,-0.438904 0.199711,-0.961889 0.193269,-1.51722 0.403371,0.560851 0.823343,1.070974 1.297596,1.420585 1.195608,0.88136 2.518688,1.124646 3.644738,0.732255 1.124251,-0.391781 1.968587,-1.376281 2.350761,-2.648934 0.08202,-0.273111 0.05563,-0.583648 0.08217,-0.876432 z"
         sodipodi:nodetypes="ssccssccsssscccccscsccccccsccccccccsssccccccccccccccssccccscsccccccccccccscscccscccccccccccccccccsscccsscccsscsscsscscscssccssccssccsssccsscsscsscssscsccsssccscsccsscsccsscscscsssccc" />
      <path
         style="color:#000000;-inkscape-font-specification:'Jolly Lodger';fill:#ffffff;stroke-width:0.966553;-inkscape-stroke:none;paint-order:stroke markers fill"
         d="m 130.8055,108.14178 c -0.11145,-0.004 -0.27666,0.0519 -0.49502,0.16412 -0.29114,0.14973 -0.59887,0.36934 -0.92422,0.65893 -0.32537,0.28959 -0.62959,0.62745 -0.91162,1.01434 -0.26304,0.36636 -0.42633,0.74913 -0.49024,1.14744 -0.0593,0.51688 -0.0629,1.4573 -0.0108,2.82099 0.0221,0.57314 0.0494,1.27476 0.0812,2.10483 0.0509,0.80955 0.11696,1.7668 0.199,2.87205 0.10173,1.10449 0.20986,2.37677 0.32454,3.81725 0.13365,1.41994 0.29472,3.02729 0.48233,4.82123 0.0265,0.17711 0.10402,0.39177 0.23244,0.64414 0.14744,0.23187 0.30475,0.46321 0.47196,0.6943 0.16645,0.21133 0.34146,0.39248 0.52539,0.54377 0.18318,0.13152 0.35335,0.18435 0.5107,0.15852 0.0585,-0.0221 0.11037,-0.22192 0.15522,-0.5997 0.0639,-0.39831 0.11348,-0.91498 0.14848,-1.54969 0.0343,-0.65448 0.0652,-1.39794 0.0926,-2.23029 0.0274,-0.83234 0.0527,-1.71366 0.0763,-2.64482 0.37697,0.53973 0.80567,1.12678 1.28528,1.76154 0.41726,0.55797 0.89748,1.21262 1.44094,1.96368 0.56317,0.75031 1.19792,1.56679 1.90478,2.45015 0.0821,0.076 0.21406,0.1603 0.39574,0.25228 0.20067,0.0714 0.41077,0.13263 0.63046,0.18359 0.21891,0.0312 0.42786,0.0531 0.62625,0.0653 0.19765,-0.007 0.34456,-0.043 0.44109,-0.10605 0.0578,-0.0418 -0.01,-0.25718 -0.20315,-0.64563 -0.17328,-0.3892 -0.41924,-0.87427 -0.73846,-1.4558 -0.31919,-0.58153 -0.6904,-1.22053 -1.11299,-1.91685 -0.42257,-0.69633 -0.83417,-1.37337 -1.23549,-2.03092 -0.40131,-0.65755 -0.78083,-1.25659 -1.13806,-1.79708 -0.33744,-0.54125 -0.59058,-0.94714 -0.75931,-1.21777 0.56637,-0.71449 1.13233,-1.44902 1.69718,-2.20303 0.56485,-0.75401 1.0625,-1.44596 1.49355,-2.07608 0.43106,-0.63012 0.77712,-1.15819 1.03789,-1.58385 0.26,-0.4454 0.35919,-0.69648 0.29763,-0.75352 -0.0632,-0.0966 -0.2334,-0.15945 -0.51161,-0.18837 -0.25845,-0.0296 -0.54552,-0.0285 -0.86099,0.004 -0.31546,0.0319 -0.63033,0.084 -0.94429,0.1554 -0.29493,0.0509 -0.50974,0.11827 -0.64505,0.20257 -0.11636,0.0639 -0.2878,0.2488 -0.51358,0.55436 -0.20602,0.3048 -0.44835,0.68992 -0.72734,1.15586 -0.27978,0.44617 -0.57681,0.95273 -0.89156,1.519 -0.3155,0.54653 -0.64108,1.09332 -0.97634,1.64059 -0.007,-1.2071 -0.0133,-2.41425 -0.0203,-3.62135 -0.007,-1.20711 -0.0292,-2.29514 -0.0661,-3.26356 -0.0179,-0.98895 -0.0489,-1.79929 -0.0929,-2.43096 -0.0441,-0.63167 -0.10677,-0.97553 -0.188,-1.0318 -0.0253,-0.0139 -0.0567,-0.0215 -0.0938,-0.0225 z m -40.320313,1.3954 c -0.256928,0.01 -0.546072,0.19948 -0.868391,0.56811 -0.323093,0.34888 -0.652318,0.80659 -0.986835,1.37361 -0.334506,0.56705 -0.657293,1.18336 -0.968257,1.84845 -0.310943,0.66509 -0.592191,1.31885 -0.844612,1.96191 -0.232658,0.6423 -0.418644,1.22335 -0.557031,1.74327 -0.139183,0.50016 -0.193916,0.8683 -0.165061,1.1047 0.02891,0.23641 0.229921,0.57529 0.603098,1.0162 0.392964,0.44016 0.867339,0.93679 1.422947,1.48944 0.57462,0.53215 1.179527,1.09287 1.815705,1.68203 0.655965,0.5884 1.262151,1.15862 1.81777,1.7113 0.574609,0.53214 1.048258,1.01868 1.421447,1.45959 0.392168,0.42039 0.602579,0.74902 0.631477,0.98543 0.0062,0.15811 -0.02472,0.37671 -0.09309,0.65644 -0.06847,0.27972 -0.157114,0.56036 -0.265074,0.84162 -0.108676,0.26147 -0.228411,0.49383 -0.359173,0.69677 -0.131526,0.18322 -0.256189,0.27714 -0.374774,0.28167 -0.157352,0.0258 -0.369372,-0.0852 -0.636161,-0.33229 -0.267553,-0.26683 -0.567059,-0.59181 -0.898454,-0.97496 -0.331386,-0.38312 -0.683867,-0.79473 -1.057055,-1.23566 -0.354198,-0.46143 -0.68721,-0.88401 -0.998842,-1.26791 -0.311609,-0.3839 -0.5908,-0.70024 -0.837836,-0.94807 -0.227239,-0.24858 -0.390101,-0.37047 -0.488933,-0.36669 -0.138341,0.005 -0.251457,0.15793 -0.338891,0.45817 -0.06847,0.27973 -0.12475,0.61818 -0.168889,1.01572 -0.02473,0.37705 -0.02945,0.77298 -0.0136,1.18802 0.03487,0.39452 0.09648,0.70925 0.184695,0.94337 0.04556,0.15659 0.192944,0.39818 0.442996,0.72507 0.269075,0.30636 0.589069,0.65008 0.959982,1.03169 0.390666,0.38087 0.801691,0.77082 1.232659,1.16993 0.449972,0.37858 0.88894,0.72829 1.316871,1.04835 0.42793,0.32005 0.823866,0.57173 1.18719,0.75572 0.364086,0.20375 0.65424,0.2917 0.870898,0.26359 0.335209,-0.0327 0.701025,-0.30423 1.097099,-0.81425 0.415088,-0.53054 0.7967,-1.14889 1.145668,-1.85503 0.348957,-0.70615 0.628015,-1.42883 0.837108,-2.16919 0.228096,-0.76088 0.313694,-1.37792 0.255973,-1.85073 -0.03487,-0.39451 -0.221187,-0.8626 -0.558647,-1.40384 -0.337447,-0.54126 -0.745099,-1.10958 -1.223185,-1.7048 -0.478074,-0.59523 -0.996045,-1.18873 -1.553167,-1.78092 -0.557893,-0.61196 -1.07427,-1.17632 -1.549308,-1.6925 -0.475059,-0.51617 -0.878026,-0.96569 -1.209411,-1.34883 -0.311454,-0.38389 -0.470495,-0.65502 -0.476726,-0.81313 -0.0289,-0.23641 0.01745,-0.5747 0.139077,-1.01481 0.120909,-0.45987 0.281282,-0.92108 0.481237,-1.38399 0.199944,-0.4629 0.412265,-0.86662 0.636546,-1.2117 0.244024,-0.34584 0.454879,-0.52245 0.632747,-0.52927 0.158117,-0.006 0.338536,0.0561 0.54147,0.18689 0.221959,0.11025 0.375165,0.22333 0.458751,0.33888 0.02653,0.17712 0.05666,0.45308 0.09094,0.82784 0.05307,0.35422 0.107585,0.74812 0.163821,1.18141 0.0759,0.43252 0.153219,0.88437 0.230716,1.35643 0.07674,0.45228 0.171268,0.86461 0.284494,1.23634 0.113241,0.37172 0.243599,0.67357 0.391051,0.90544 0.147431,0.23182 0.320241,0.34406 0.517884,0.33648 0.395274,-0.0151 0.732538,-0.2459 1.012324,-0.69209 0.298756,-0.46669 0.535952,-1.00033 0.710841,-1.60083 0.174844,-0.60049 0.290442,-1.19894 0.346779,-1.79489 0.07607,-0.5967 0.09818,-1.04283 0.06756,-1.3385 -0.03034,-0.27594 -0.160037,-0.56771 -0.389563,-0.87559 -0.230297,-0.32764 -0.52966,-0.6431 -0.897547,-0.94566 -0.368627,-0.32234 -0.786234,-0.63256 -1.252943,-0.93132 -0.446922,-0.29954 -0.911943,-0.55912 -1.395378,-0.77807 -0.464411,-0.23949 -0.916987,-0.41963 -1.357106,-0.54128 -0.440846,-0.14142 -0.829341,-0.20595 -1.165325,-0.19305 z m 10.301513,0.0721 c -0.11168,-0.0108 -0.27652,0.0479 -0.49429,0.17503 -0.2714,0.14895 -0.569459,0.37795 -0.894054,0.68731 -0.304853,0.30858 -0.587997,0.66575 -0.84951,1.07164 -0.262254,0.38614 -0.424681,0.78851 -0.487832,1.20658 -0.03769,0.55568 -0.02007,1.5546 0.05506,2.9966 0.02348,0.61266 0.06207,1.35336 0.115231,2.2222 0.07293,0.86808 0.161962,1.89394 0.266786,3.07748 0.104841,1.18355 0.236181,2.54406 0.394164,4.08184 0.157221,1.51801 0.352094,3.24257 0.584547,5.17333 0.04639,0.17636 0.133277,0.39087 0.261706,0.64325 0.148224,0.25161 0.315602,0.48223 0.501812,0.69281 0.18696,0.23033 0.37223,0.42142 0.55616,0.57271 0.2037,0.15053 0.3847,0.21271 0.54205,0.18688 0.0784,-0.0228 0.13389,-0.37134 0.16744,-1.04557 0.0525,-0.69476 0.087,-1.5964 0.10389,-2.70545 0.0161,-1.1288 0.0169,-2.39551 0.002,-3.80025 -0.0147,-1.40473 -0.0387,-2.83871 -0.0756,-4.30198 0.11623,-0.0639 0.2521,-0.12877 0.40793,-0.19415 0.11708,-0.0441 0.25359,-0.099 0.40941,-0.1643 0.17561,-0.0662 0.35133,-0.12216 0.5277,-0.16851 0.11707,-0.0441 0.23764,-0.01 0.36076,0.10509 0.14289,0.11325 0.26772,0.27671 0.37488,0.49032 0.12692,0.21285 0.22583,0.47595 0.29726,0.7899 0.0905,0.29342 0.13225,0.59893 0.12464,0.91591 0.004,0.0791 -0.007,0.33661 -0.0297,0.7729 -0.002,0.43556 -0.0127,0.96056 -0.0289,1.57475 -0.0168,0.59443 -0.0413,1.23855 -0.0742,1.93254 -0.0129,0.69325 -0.028,1.33721 -0.0449,1.93164 0.004,0.59366 0.002,1.10842 -3.7e-4,1.54399 0.0159,0.41504 0.0356,0.66145 0.0584,0.73975 0.0441,0.11707 0.15659,0.21173 0.3375,0.28396 0.18091,0.0721 0.37069,0.12417 0.56984,0.15612 0.21892,0.0312 0.41689,0.0337 0.59401,0.007 0.19686,-0.0273 0.31393,-0.0712 0.35119,-0.13206 0.0182,-0.0403 0.0699,-0.25025 0.1543,-0.62956 0.0844,-0.37931 0.17513,-0.84783 0.27248,-1.40576 0.0973,-0.55793 0.20256,-1.17585 0.31511,-1.85313 0.11252,-0.67726 0.21603,-1.3344 0.31031,-1.97139 0.0937,-0.65675 0.1694,-1.25345 0.22795,-1.79009 0.0579,-0.55643 0.0815,-0.97286 0.0706,-1.24958 -0.0158,-0.41502 -0.0822,-0.848 -0.19849,-1.29877 -0.11696,-0.47053 -0.26229,-0.9 -0.43556,-1.2892 -0.17404,-0.40897 -0.36588,-0.76819 -0.57565,-1.07682 -0.18989,-0.3092 -0.3858,-0.51933 -0.58784,-0.63038 h -5.7e-4 c -0.42486,-0.24079 -0.98132,-0.30901 -1.66978,-0.20344 -0.66892,0.10486 -1.39262,0.33105 -2.17105,0.67761 -0.0242,-1.14706 -0.0566,-2.23495 -0.096,-3.26267 -0.0401,-1.04747 -0.085,-1.9658 -0.13502,-2.75559 -0.0508,-0.80955 -0.1154,-1.45058 -0.1929,-1.92263 -0.0585,-0.49256 -0.11839,-0.76693 -0.17989,-0.82396 -0.0255,-0.0188 -0.0568,-0.0304 -0.0941,-0.0339 z m -47.370481,2.46409 c -0.370941,0.005 -0.729103,0.0132 -1.074968,0.0265 -0.671976,0.0258 -1.244101,0.087 -1.715373,0.1842 -0.472059,0.0775 -0.744508,0.18724 -0.818252,0.32861 -0.05541,0.10113 -0.08199,0.44803 -0.07908,1.04171 0.002,0.57391 0.02991,1.2957 0.08302,2.16454 0.0531,0.86885 0.110653,1.84642 0.172099,2.93266 0.08127,1.08549 0.173253,2.19037 0.275791,3.31463 0.102504,1.12425 0.204041,2.2284 0.305066,3.31313 0.100946,1.08472 0.198426,2.07064 0.291873,2.95774 0.113145,0.88633 0.210604,1.62496 0.292674,2.2156 0.10103,0.57011 0.183264,0.91309 0.247119,1.0294 0.295655,0.48348 0.580386,0.93766 0.854002,1.36261 0.292607,0.40441 0.587296,0.60108 0.883774,0.58969 0.09882,-0.004 0.170216,-0.20455 0.214332,-0.60209 0.06383,-0.39831 0.113805,-0.89477 0.150392,-1.48997 0.03531,-0.61496 0.04985,-1.28861 0.04158,-2.02063 0.01103,-0.75253 0.013,-1.47478 0.006,-2.16727 -0.0068,-0.69249 -0.02149,-1.31581 -0.04233,-1.86919 -0.0018,-0.55414 -0.0074,-0.95945 -0.01704,-1.21638 1.163789,-0.10402 2.059875,-0.20792 2.689274,-0.31124 0.649175,-0.10402 1.002966,-0.17695 1.060734,-0.21875 0.115578,-0.0837 0.228666,-0.23623 0.338913,-0.45818 0.109502,-0.24173 0.198617,-0.49265 0.267777,-0.75262 0.06847,-0.27972 0.108101,-0.53828 0.118778,-0.7762 0.01055,-0.23792 -0.02495,-0.39493 -0.107022,-0.47095 -0.04103,-0.038 -0.459086,-0.0914 -1.253427,-0.15989 -0.774565,-0.0693 -1.8556,-0.13685 -3.243612,-0.20234 l -0.190286,-4.95033 c 1.804565,0.089 3.114155,0.17722 3.929002,0.26468 0.834632,0.0868 1.299928,0.0789 1.39496,-0.0237 0.09502,-0.10258 0.204607,-0.33481 0.329316,-0.69586 0.144462,-0.36182 0.258452,-0.74212 0.342096,-1.14117 0.1026,-0.4196 0.167315,-0.79799 0.193965,-1.13548 0.04564,-0.35803 0.02761,-0.57532 -0.05445,-0.65134 -0.06161,-0.057 -0.331076,-0.11552 -0.808447,-0.1764 -0.457607,-0.0616 -1.033665,-0.10917 -1.727682,-0.14191 -0.674982,-0.0532 -1.408357,-0.0844 -2.200424,-0.0935 -0.396024,-0.005 -0.77958,-0.005 -1.150521,-2.1e-4 z m 64.490011,0.19341 c -0.12996,-0.002 -0.20887,0.0261 -0.23625,0.0865 -0.0562,0.0814 -0.0875,0.30053 -0.0938,0.65703 0.0126,0.33598 0.0283,0.74115 0.0465,1.21548 0.0373,0.4538 0.0763,0.9472 0.1166,1.48005 0.0396,0.5131 0.077,0.9768 0.11276,1.39107 0.031,0.2957 0.0792,0.77886 0.14445,1.44931 0.0653,0.67045 0.14328,1.41947 0.23445,2.24728 0.0912,0.82779 0.19397,1.69475 0.30794,2.60084 0.11312,0.88634 0.21425,1.7135 0.30315,2.48201 0.10785,0.74799 0.20148,1.388 0.28129,1.91933 0.079,0.51157 0.14969,0.79588 0.21125,0.85291 0.0637,0.11636 0.18293,0.13124 0.35779,0.0454 0.17407,-0.10569 0.35625,-0.25094 0.54706,-0.43639 0.19081,-0.18547 0.36157,-0.37992 0.51209,-0.58363 0.14972,-0.22346 0.24235,-0.39539 0.27737,-0.51549 0.0179,-0.06 0.0265,-0.32769 0.0283,-0.80277 10e-4,-0.47507 -0.0108,-1.03899 -0.0352,-1.6912 -0.006,-0.67272 -0.0235,-1.3941 -0.0531,-2.16488 -0.01,-0.79132 -0.0289,-1.52336 -0.0547,-2.19532 -0.006,-0.67271 -0.0174,-1.24617 -0.0361,-1.72049 -0.0189,-0.49409 -0.0302,-0.78045 -0.0332,-0.8595 -0.01,-0.25693 10e-4,-0.48532 0.0334,-0.68446 0.0516,-0.1999 0.0868,-0.31989 0.1051,-0.36019 0.073,-0.16114 0.17615,-0.30351 0.30995,-0.4274 0.1148,-0.1033 0.25966,-0.19818 0.43449,-0.28407 0.17408,-0.10557 0.38874,-0.18303 0.64415,-0.23243 0.0974,-0.0434 0.20793,0.002 0.33181,0.13584 0.1429,0.11324 0.26845,0.2868 0.37636,0.52018 0.10796,0.23337 0.19814,0.5168 0.27037,0.8505 0.0912,0.31318 0.14357,0.64768 0.15723,1.00343 0.004,0.0989 -0.006,0.38606 -0.0266,0.86189 -10e-4,0.47508 -0.0188,1.04956 -0.0524,1.72379 -0.0145,0.65372 -0.0268,1.36718 -0.0367,2.13948 -0.0108,0.75253 -0.0231,1.46541 -0.0368,2.13891 0.005,0.65296 0.007,1.21703 0.005,1.69212 0.0181,0.47433 0.0388,0.75043 0.0616,0.82873 0.0441,0.11708 0.14709,0.21189 0.30822,0.28487 0.18091,0.0723 0.37069,0.12474 0.56985,0.1567 0.21892,0.0312 0.40752,0.0434 0.56563,0.0373 0.17712,-0.0266 0.28409,-0.0703 0.32133,-0.13115 0.0182,-0.0403 0.0588,-0.26914 0.12212,-0.68721 0.0828,-0.41882 0.17172,-0.93724 0.26679,-1.55446 0.11479,-0.61798 0.21798,-1.29472 0.3085,-2.03054 0.10953,-0.75632 0.2102,-1.48238 0.30225,-2.17866 0.0913,-0.71604 0.15496,-1.37199 0.19142,-1.96719 0.0563,-0.59593 0.0782,-1.05159 0.0658,-1.36783 -0.0175,-0.45456 -0.085,-0.92732 -0.20267,-1.41762 -0.0989,-0.51082 -0.23588,-0.99033 -0.41143,-1.43882 -0.15581,-0.44927 -0.33914,-0.83832 -0.54967,-1.16672 -0.19076,-0.32916 -0.37775,-0.55948 -0.56094,-0.69099 -0.28352,-0.16725 -0.60337,-0.2536 -0.95988,-0.25971 -0.35726,-0.0259 -0.73168,0.0181 -1.12318,0.13215 -0.37248,0.0935 -0.75322,0.23627 -1.14166,0.42932 -0.38922,0.17328 -0.74784,0.36568 -1.07624,0.57621 -0.0525,-0.33446 -0.11121,-0.57017 -0.17569,-0.70625 -0.0653,-0.15583 -0.11971,-0.29236 -0.16374,-0.40942 -0.0844,-0.13531 -0.24793,-0.26731 -0.49041,-0.39655 -0.24321,-0.14901 -0.50528,-0.26767 -0.78577,-0.35587 -0.26148,-0.10869 -0.51154,-0.17822 -0.75022,-0.20866 -0.0548,-0.008 -0.1033,-0.012 -0.14663,-0.0127 z m 23.00217,-0.12235 c -0.21742,0.008 -0.46907,0.15701 -0.75491,0.44507 -0.26683,0.26755 -0.54003,0.61446 -0.82056,1.04089 -0.28053,0.42641 -0.5597,0.89229 -0.83719,1.39776 -0.25775,0.50472 -0.48602,0.99841 -0.6852,1.48108 -0.19997,0.46291 -0.36196,0.89442 -0.48513,1.295 -0.124,0.38082 -0.17222,0.65971 -0.14563,0.83682 0.0265,0.17711 0.19427,0.42791 0.50361,0.75252 0.30935,0.3246 0.69914,0.68573 1.16965,1.08333 0.47048,0.39759 0.98187,0.82353 1.5337,1.27738 0.55106,0.43409 1.06173,0.84993 1.53222,1.24754 0.4705,0.39758 0.8603,0.75871 1.16965,1.08333 0.30933,0.3246 0.47759,0.57539 0.5042,0.7525 0.005,0.11864 -0.0286,0.28789 -0.0995,0.50832 -0.0516,0.19991 -0.12307,0.40066 -0.21436,0.60209 -0.0912,0.20143 -0.1932,0.3836 -0.30572,0.54626 -0.11336,0.1429 -0.21921,0.21635 -0.31804,0.22014 -0.17786,0.007 -0.47182,-0.17975 -0.88227,-0.55984 -0.4112,-0.39988 -0.83421,-0.83898 -1.26821,-1.31715 -0.43476,-0.49793 -0.83757,-0.93792 -1.20849,-1.31954 -0.37168,-0.40136 -0.61649,-0.59992 -0.73506,-0.59539 -0.11863,0.005 -0.21323,0.11707 -0.28397,0.3375 -0.0714,0.20067 -0.1214,0.45044 -0.14956,0.7484 -0.008,0.29723 -0.007,0.59382 0.005,0.89027 0.0311,0.2957 0.0797,0.53157 0.14584,0.70716 0.0669,0.19536 0.30669,0.50279 0.71865,0.92242 0.43171,0.41887 0.91284,0.84586 1.44413,1.28069 0.5503,0.41433 1.08933,0.77926 1.6161,1.09553 0.54575,0.29574 0.95662,0.42831 1.23254,0.39793 0.27593,-0.0304 0.5844,-0.23992 0.92574,-0.62909 0.34133,-0.38916 0.66044,-0.8467 0.95695,-1.37269 0.2965,-0.52599 0.53239,-1.06971 0.70878,-1.63068 0.19617,-0.56172 0.27811,-1.02002 0.24469,-1.37501 -0.0312,-0.2957 -0.19311,-0.64583 -0.48574,-1.05025 -0.27286,-0.40518 -0.60587,-0.82777 -0.99883,-1.26792 -0.39371,-0.45992 -0.82638,-0.9084 -1.2984,-1.34552 -0.45301,-0.45765 -0.88522,-0.87643 -1.29565,-1.25652 -0.39146,-0.40064 -0.72096,-0.7442 -0.98926,-1.0308 -0.26856,-0.28659 -0.40523,-0.4891 -0.40953,-0.60769 -0.0258,-0.15735 0.014,-0.40637 0.11971,-0.74692 0.12544,-0.3413 0.27089,-0.68339 0.43588,-1.0262 0.18473,-0.34357 0.37115,-0.64763 0.55892,-0.91213 0.18778,-0.26451 0.3606,-0.39956 0.51872,-0.40565 0.15809,-0.006 0.31802,0.0368 0.47992,0.12958 0.18088,0.0723 0.30277,0.15664 0.36588,0.25319 0.0471,0.19612 0.1003,0.54071 0.15872,1.03329 0.0584,0.49255 0.12699,0.99446 0.20597,1.50605 0.098,0.49105 0.2237,0.92196 0.37646,1.29215 0.17251,0.36948 0.37721,0.5496 0.61438,0.54048 0.33599,-0.0129 0.62585,-0.19242 0.86989,-0.53827 0.26379,-0.3466 0.46602,-0.75016 0.60668,-1.21078 0.16046,-0.4614 0.27152,-0.92071 0.33312,-1.37831 0.0814,-0.45836 0.10797,-0.79577 0.0799,-1.01241 -0.0312,-0.2957 -0.25165,-0.62419 -0.66134,-0.98453 -0.40967,-0.36034 -0.89779,-0.69748 -1.46406,-1.01222 -0.56703,-0.33451 -1.16125,-0.60886 -1.78304,-0.82252 -0.60201,-0.21441 -1.12058,-0.31333 -1.55537,-0.29664 z m -28.52714,2.22326 c -0.17294,0.007 -0.34344,0.0232 -0.51067,0.0494 -0.31545,0.0319 -0.57094,0.0808 -0.7663,0.14766 -0.38997,0.15351 -0.82747,0.35835 -1.31246,0.61448 -0.46522,0.25538 -0.79122,0.52519 -0.97826,0.80947 -0.1118,0.18242 -0.19694,0.54207 -0.2555,1.07872 -0.0388,0.53589 -0.0737,1.16113 -0.10534,1.87492 -0.0121,0.71301 -0.0131,1.46495 -0.002,2.25626 0.01,0.79131 0.029,1.53287 0.0556,2.2246 0.0455,0.67121 0.0974,1.253 0.15583,1.74557 0.0578,0.47282 0.11899,0.76735 0.18288,0.88365 0.18925,0.28963 0.37551,0.50987 0.55945,0.66114 0.20369,0.15053 0.52517,0.26714 0.96376,0.34927 0.21894,0.0312 0.54626,0.058 0.98257,0.0808 0.43632,0.0228 0.89255,0.0453 1.36839,0.0667 0.49486,7.6e-4 0.95022,0.004 1.36601,0.007 0.4348,-0.0166 0.74061,-0.0383 0.91774,-0.0649 0.35422,-0.0532 0.66807,-0.13497 0.94098,-0.2444 0.29191,-0.12996 0.49091,-0.34506 0.5981,-0.64606 0.0539,-0.14061 0.0859,-0.34972 0.0951,-0.62717 0.029,-0.27821 0.037,-0.58563 0.0241,-0.92161 0.006,-0.3565 -0.008,-0.72187 -0.0423,-1.09662 -0.0156,-0.39528 -0.0395,-0.77059 -0.0731,-1.12558 -0.031,-0.29569 -0.0751,-0.67013 -0.13213,-1.12319 -0.038,-0.47356 -0.0969,-0.9756 -0.1767,-1.50694 -0.0798,-0.53135 -0.1696,-1.07215 -0.2699,-1.6225 -0.1003,-0.55036 -0.20872,-1.06116 -0.32574,-1.5317 -0.11708,-0.47054 -0.2512,-0.87102 -0.40244,-1.20169 -0.13148,-0.33143 -0.269,-0.55357 -0.4119,-0.66683 -0.22348,-0.14977 -0.50441,-0.25805 -0.84343,-0.32421 -0.33978,-0.0859 -0.69768,-0.13129 -1.07395,-0.13664 -0.17864,-0.0129 -0.35448,-0.0162 -0.52741,-0.01 z m -50.418727,0.89593 c -0.316971,-0.007 -0.651326,0.0543 -1.002522,0.18651 -0.351947,0.11252 -0.681764,0.28367 -0.989632,0.51319 -0.308608,0.20977 -0.487711,0.44418 -0.537174,0.70338 -0.04912,0.25921 -0.04789,0.53619 0.0028,0.83113 0.05092,0.29494 0.130361,0.56901 0.239035,0.82214 0.107897,0.23337 0.234498,0.43661 0.379665,0.60917 0.144414,0.1528 0.286477,0.23635 0.425589,0.25081 0.179392,0.0327 0.455507,0.0121 0.828732,-0.0616 0.392239,-0.0942 0.681967,-0.28327 0.868985,-0.56755 0.09275,-0.1619 0.183453,-0.38313 0.27166,-0.66361 0.08822,-0.28048 0.15597,-0.57034 0.203863,-0.86907 0.04791,-0.29873 0.06626,-0.58611 0.05533,-0.86283 0.0093,-0.27743 -0.02841,-0.49386 -0.113589,-0.64894 h -5.8e-4 c -0.105668,-0.17408 -0.316625,-0.25485 -0.632854,-0.24272 z m 2.94564,0.87545 c -0.130129,-0.006 -0.209182,0.0139 -0.237124,0.0596 -0.05696,0.0616 -0.08942,0.25105 -0.097,0.56802 0.01114,0.29645 0.02482,0.65174 0.04078,1.06678 0.03487,0.39451 0.07137,0.81898 0.108507,1.27279 0.03726,0.45381 0.07294,0.8682 0.10707,1.24295 0.02952,0.25616 0.07547,0.67991 0.137846,1.27131 0.06152,0.57163 0.13569,1.22203 0.223051,1.95102 0.08737,0.72898 0.18569,1.48722 0.29508,2.27473 0.109382,0.78751 0.206668,1.51605 0.291764,2.18575 0.104038,0.64916 0.194616,1.19948 0.271382,1.65177 0.07685,0.45227 0.145806,0.70688 0.207364,0.76392 0.06315,0.0966 0.182043,0.10197 0.356884,0.0161 0.17408,-0.10569 0.35714,-0.23133 0.549459,-0.37726 0.19157,-0.16569 0.363194,-0.34055 0.514494,-0.52449 0.151233,-0.18395 0.244891,-0.32616 0.280654,-0.4265 0.01747,-0.06 0.01939,-0.27762 0.0048,-0.65315 0.0047,-0.37625 -0.0026,-0.83146 -0.02318,-1.36508 -0.0018,-0.55414 -0.01408,-1.1472 -0.03842,-1.77964 -0.0049,-0.63319 -0.01842,-1.23633 -0.04,-1.80947 -0.002,-0.57392 -0.01186,-1.07843 -0.02857,-1.51323 0.0029,-0.43556 0.0029,-0.72264 -0.0031,-0.86099 0.02286,-0.43632 0.04998,-0.76363 0.0808,-0.98256 0.03125,-0.2189 0.06548,-0.35849 0.102696,-0.41932 0.09275,-0.1619 0.19576,-0.31436 0.309034,-0.45726 0.09429,-0.12238 0.209118,-0.23578 0.343691,-0.33991 0.133778,-0.12389 0.288012,-0.22895 0.462854,-0.31482 0.177866,-0.007 0.350958,0.12501 0.519699,0.39564 0.147453,0.23185 0.291707,0.63218 0.432296,1.20077 0.139817,0.54885 0.250286,1.36634 0.331535,2.45182 0.627876,-0.14285 1.117617,-0.27058 1.469576,-0.38305 0.351959,-0.11252 0.615621,-0.21196 0.790451,-0.29784 0.194594,-0.0866 0.309903,-0.17033 0.346405,-0.25091 0.01759,-0.06 0.01174,-0.20798 -0.01716,-0.44439 -0.02951,-0.25617 -0.09047,-0.56082 -0.183197,-0.91353 -0.07292,-0.35347 -0.167016,-0.73552 -0.281766,-1.14677 -0.09501,-0.412 -0.218186,-0.7936 -0.3702,-1.14403 -0.132991,-0.37097 -0.283838,-0.69156 -0.452568,-0.96219 -0.149605,-0.29093 -0.305399,-0.48319 -0.467165,-0.57602 l -5.79e-4,1e-5 c -0.322876,-0.16557 -0.64306,-0.25208 -0.959884,-0.25971 -0.317735,-0.0273 -0.643004,0.005 -0.97597,0.0966 -0.313169,0.0912 -0.644015,0.23268 -0.992937,0.42421 -0.329907,0.171 -0.679037,0.36268 -1.04696,0.57472 -0.06673,-0.19536 -0.131963,-0.34182 -0.195068,-0.43837 -0.08371,-0.11551 -0.24646,-0.23743 -0.488933,-0.36668 -0.242474,-0.12925 -0.503658,-0.22832 -0.783397,-0.29674 -0.260703,-0.0889 -0.509894,-0.13885 -0.747817,-0.14953 -0.05479,-0.008 -0.103822,-0.0129 -0.147218,-0.015 z m 48.116307,-0.0502 c 0.12982,-0.001 0.233,0.0268 0.30938,0.0833 0.0616,0.057 0.1201,0.28206 0.17478,0.67582 0.0539,0.37398 0.0911,0.83768 0.11216,1.39108 0.0213,0.55337 0.0349,1.15652 0.04,1.80947 0.0247,0.65221 0.0285,1.26559 0.0108,1.84026 0.002,0.5739 -0.0185,1.06993 -0.0618,1.48725 -0.0247,0.39677 -0.0548,0.635 -0.0913,0.71558 l 5.8e-4,-10e-6 c -0.0745,0.12162 -0.20912,0.2258 -0.40373,0.31244 -0.17559,0.0661 -0.37183,0.10342 -0.58921,0.1118 -0.19764,0.007 -0.3965,-0.0145 -0.59641,-0.0663 -0.18091,-0.0723 -0.32385,-0.17539 -0.42798,-0.30995 -0.10413,-0.13455 -0.1881,-0.51733 -0.25192,-1.14825 -0.044,-0.63168 -0.08,-1.31296 -0.10809,-2.04422 -0.0291,-0.75102 -0.0456,-1.44326 -0.0499,-2.07647 0.0145,-0.65372 0.0194,-1.04966 0.0141,-1.18801 10e-4,-0.49485 0.1252,-0.85625 0.37377,-1.08352 0.0569,-0.0616 0.16368,-0.12491 0.31952,-0.19028 0.15509,-0.0851 0.33066,-0.15125 0.52678,-0.19837 0.19538,-0.0669 0.38206,-0.10342 0.55995,-0.11025 0.0493,-0.007 0.095,-0.0108 0.1383,-0.0108 z m -33.704188,0.49589 c -0.438752,0.0108 -0.891007,0.0682 -1.357093,0.1727 -0.745687,0.16716 -1.447169,0.45131 -2.104731,0.85261 -0.65754,0.4013 -1.123441,0.90435 -1.397141,1.50864 -0.181715,0.42262 -0.318818,0.97206 -0.411624,1.64858 -0.07298,0.67575 -0.124161,1.41 -0.153233,2.20282 -0.0092,0.79206 0.01252,1.60253 0.06424,2.43185 0.05155,0.82933 0.110089,1.58932 0.176224,2.27953 0.0858,0.68945 0.177584,1.27958 0.275585,1.77064 0.09724,0.4713 0.19778,0.76409 0.301142,0.87887 0.145188,0.17257 0.499584,0.38679 1.063579,0.64224 0.563244,0.2357 1.195049,0.43936 1.894368,0.61046 0.698557,0.15132 1.403971,0.22317 2.116216,0.21564 0.711495,-0.0273 1.297097,-0.22833 1.757756,-0.60229 0.153563,-0.12465 0.294477,-0.32761 0.422201,-0.60961 0.126985,-0.30175 0.242852,-0.63274 0.347786,-0.99304 0.104146,-0.38007 0.188296,-0.76942 0.252198,-1.16772 0.08286,-0.41884 0.147517,-0.79722 0.193964,-1.13548 0.06538,-0.35879 0.103247,-0.65714 0.113936,-0.89506 0.01054,-0.2379 0.0046,-0.38641 -0.01714,-0.44496 -0.04103,-0.038 -0.160865,-0.063 -0.35927,-0.0753 -0.158867,-0.0137 -0.415522,-0.004 -0.77051,0.0294 -0.335232,0.0327 -0.807258,0.11025 -1.416132,0.23254 0.04098,1.06724 0.0017,1.85064 -0.117519,2.35006 -0.09962,0.49863 -0.224729,0.84995 -0.375256,1.05365 -0.189282,0.22501 -0.393712,0.31178 -0.613384,0.26082 -0.297978,-0.0282 -0.557249,-0.0773 -0.777684,-0.14804 -0.201442,-0.0912 -0.37336,-0.18385 -0.515498,-0.27736 -0.162666,-0.11253 -0.295813,-0.23603 -0.399936,-0.37057 -0.104901,-0.15432 -0.238189,-0.5352 -0.400044,-1.14256 -0.162618,-0.62713 -0.308928,-1.33415 -0.438093,-2.12091 0.510825,-0.0987 1.120098,-0.2211 1.827052,-0.36698 0.706182,-0.16566 1.373273,-0.31973 2.001148,-0.46258 0.627135,-0.16262 1.165307,-0.31186 1.615335,-0.44788 0.449974,-0.13603 0.684087,-0.22439 0.702371,-0.26469 0.01747,-0.06 0.01939,-0.27761 0.0048,-0.65314 -0.01419,-0.37551 -0.0397,-0.77044 -0.0754,-1.18471 -0.01668,-0.43481 -0.04219,-0.83983 -0.07628,-1.21457 -0.03415,-0.37476 -0.05223,-0.60157 -0.05533,-0.68061 -0.07137,-0.82856 -0.197366,-1.52637 -0.377461,-2.09345 -0.180859,-0.58684 -0.373708,-0.97519 -0.57893,-1.16523 -0.348884,-0.32309 -0.871248,-0.52064 -1.566767,-0.59291 -0.253409,-0.0273 -0.511965,-0.0379 -0.775218,-0.0315 z m -0.773914,3.08751 c 0.09158,0.002 0.182436,0.01 0.271924,0.0211 0.377027,0.025 0.645687,0.0646 0.806077,0.1178 0.06078,0.0373 0.124857,0.15343 0.191761,0.34879 0.06685,0.19537 0.124955,0.43051 0.17511,0.70568 0.04948,0.25542 0.08959,0.53123 0.120771,0.82693 0.05009,0.27517 0.08935,0.5207 0.117471,0.73735 -0.136075,0.0646 -0.350005,0.15209 -0.642659,0.26228 -0.292665,0.11025 -0.62425,0.24161 -0.994437,0.39436 -0.370949,0.13299 -0.76104,0.28662 -1.170028,0.46066 -0.389952,0.15351 -0.740981,0.29587 -1.052649,0.4266 -0.07899,-0.51159 -0.13784,-1.0041 -0.175786,-1.47767 -0.03775,-0.47357 -0.04249,-0.86937 -0.01561,-1.18711 0.02115,-0.47585 0.185641,-0.82891 0.49352,-1.05845 0.307878,-0.22952 0.647936,-0.39077 1.02041,-0.48424 0.29418,-0.0707 0.57871,-0.1021 0.85364,-0.0941 z m -16.488825,0.39692 c -0.277453,-0.01 -0.582235,0.0422 -0.914429,0.15393 -0.312397,0.11096 -0.612676,0.27101 -0.901553,0.48003 -0.269067,0.20825 -0.428565,0.44236 -0.478028,0.70157 -0.03341,0.15963 -0.03954,0.51578 -0.01833,1.06916 0.02121,0.55339 0.06628,1.20482 0.13464,1.95431 0.0676,0.72975 0.146435,1.49896 0.236845,2.30699 0.09038,0.80803 0.188548,1.55618 0.294161,2.24488 0.105584,0.68869 0.206559,1.25905 0.303057,1.71058 0.116261,0.45078 0.214012,0.67466 0.293059,0.67162 0.159628,0.0334 0.416128,0.0137 0.7696,-0.0592 0.352708,-0.0927 0.612728,-0.2813 0.779981,-0.56482 0.05541,-0.10114 0.102732,-0.40969 0.142303,-0.92581 0.03885,-0.5359 0.06405,-1.16993 0.07553,-1.90269 0.03051,-0.7533 0.04933,-1.54593 0.057,-2.37752 0.0072,-0.85136 -0.0034,-1.64238 -0.03124,-2.37363 -0.009,-0.75178 -0.03304,-1.38448 -0.07255,-1.89757 -0.02049,-0.53363 -0.0524,-0.84881 -0.09571,-0.94611 l -5.68e-4,1e-5 c -0.08587,-0.17485 -0.277283,-0.25706 -0.573737,-0.24569 z"
         id="path16" />
    </g>
  </g>
</svg>
