<?xml version="1.0" encoding="UTF-8" standalone="no"?>
<!-- Created with Inkscape (http://www.inkscape.org/) -->

<svg
   width="1080"
   height="1080"
   viewBox="0 0 285.74999 285.75"
   version="1.1"
   id="svg1"
   inkscape:version="1.3 (0e150ed6c4, 2023-07-21)"
   sodipodi:docname="Watermark100.svg"
   xml:space="preserve"
   inkscape:export-filename="Avatar.png"
   inkscape:export-xdpi="96"
   inkscape:export-ydpi="96"
   xmlns:inkscape="http://www.inkscape.org/namespaces/inkscape"
   xmlns:sodipodi="http://sodipodi.sourceforge.net/DTD/sodipodi-0.dtd"
   xmlns="http://www.w3.org/2000/svg"
   xmlns:svg="http://www.w3.org/2000/svg"><sodipodi:namedview
     id="namedview1"
     pagecolor="#505050"
     bordercolor="#ffffff"
     borderopacity="1"
     inkscape:showpageshadow="0"
     inkscape:pageopacity="0"
     inkscape:pagecheckerboard="1"
     inkscape:deskcolor="#d1d1d1"
     inkscape:document-units="mm"
     inkscape:zoom="0.36251262"
     inkscape:cx="493.77592"
     inkscape:cy="633.08142"
     inkscape:current-layer="layer1"
     showguides="true"><sodipodi:guide
       position="285.75,0"
       orientation="1,0"
       id="guide4"
       inkscape:locked="false" /><sodipodi:guide
       position="142.875,285.75"
       orientation="0,-1"
       id="guide5"
       inkscape:locked="false" /><sodipodi:guide
       position="0,217.15539"
       orientation="1,0"
       id="guide7"
       inkscape:locked="false" /><sodipodi:guide
       position="80.703586,-6.0159284e-14"
       orientation="0,1"
       id="guide11"
       inkscape:locked="false"
       inkscape:label=""
       inkscape:color="rgb(246,211,45)" /></sodipodi:namedview><defs
     id="defs1"><inkscape:path-effect
       effect="perspective-envelope"
       down_left_point="105.26699,87.562047"
       down_right_point="142.30195,87.507346"
       id="path-effect5"
       is_visible="true"
       lpeversion="1"
       deform_type="perspective"
       horizontal_mirror="false"
       vertical_mirror="false"
       overflow_perspective="false"
       up_left_point="105.09076,60.81708"
       up_right_point="142.30195,73.978816" /><inkscape:path-effect
       effect="perspective-envelope"
       down_left_point="66.205508,87.46151"
       down_right_point="103.09726,87.46151"
       id="path-effect4"
       is_visible="true"
       lpeversion="1"
       deform_type="perspective"
       horizontal_mirror="false"
       vertical_mirror="false"
       overflow_perspective="false"
       up_left_point="66.205508,77.098739"
       up_right_point="103.09726,63.134236" /><inkscape:path-effect
       effect="perspective-envelope"
       down_left_point="105.26699,87.562047"
       down_right_point="142.30195,87.507346"
       id="path-effect5-8"
       is_visible="true"
       lpeversion="1"
       deform_type="perspective"
       horizontal_mirror="false"
       vertical_mirror="false"
       overflow_perspective="false"
       up_left_point="105.09076,60.81708"
       up_right_point="142.30195,73.978816" /><inkscape:path-effect
       effect="perspective-envelope"
       down_left_point="66.205508,87.46151"
       down_right_point="103.09726,87.46151"
       id="path-effect4-7"
       is_visible="true"
       lpeversion="1"
       deform_type="perspective"
       horizontal_mirror="false"
       vertical_mirror="false"
       overflow_perspective="false"
       up_left_point="66.205508,77.098739"
       up_right_point="103.09726,63.134236" /></defs><g
     inkscape:label="Layer 1"
     inkscape:groupmode="layer"
     id="layer1"><path
       id="path912"
       style="color:#000000;fill:#fefefe;stroke-width:1;stroke-linecap:round;stroke-linejoin:round;-inkscape-stroke:none;paint-order:stroke markers fill"
       d="M 142.875 0 A 142.875 142.875 0 0 0 0 142.875 A 142.875 142.875 0 0 0 142.875 285.75 A 142.875 142.875 0 0 0 285.75 142.875 A 142.875 142.875 0 0 0 142.875 0 z M 142.875 7.5457926 A 135.32944 135.32944 0 0 1 278.20421 142.875 A 135.32944 135.32944 0 0 1 142.875 278.20421 A 135.32944 135.32944 0 0 1 7.5457926 142.875 A 135.32944 135.32944 0 0 1 142.875 7.5457926 z M 143.47031 56.891101 C 137.14073 56.859911 127.50738 60.161479 116.64611 66.889457 C 105.78388 73.61802 93.759861 83.816988 83.042993 97.744938 C 61.609061 125.60103 45.447763 168.39189 54.456108 227.79436 A 0.60916071 0.60917971 0 0 0 55.141337 228.30131 A 0.60916071 0.60917971 0 0 0 55.736133 228.82686 C 61.091528 228.49844 66.463114 228.23917 71.836442 227.97782 C 74.254773 227.86101 76.67197 227.72538 79.079411 227.62332 C 82.608385 227.4713 86.149529 227.36213 89.690649 227.23781 C 93.84931 227.09645 98.008556 226.93697 102.15345 226.83525 C 102.30197 226.83125 102.45831 226.83043 102.62009 226.82543 C 140.45256 225.91008 178.03712 226.60804 215.49847 228.11269 C 220.56427 228.3401 225.62602 228.55849 230.69496 228.82634 L 231.25875 228.85735 A 0.60916071 0.60917971 0 0 0 231.89644 228.32663 L 231.96827 227.76284 A 0.60916071 0.60917971 0 0 0 231.96827 227.76233 A 0.60916071 0.60917971 0 0 0 231.96827 227.76181 A 0.60916071 0.60917971 0 0 0 231.96827 227.76129 A 0.60916071 0.60917971 0 0 0 231.96827 227.76077 C 238.80066 173.44713 226.12675 130.81253 207.04473 101.72351 C 187.96311 72.635266 162.56155 56.985185 143.47031 56.891101 z M 143.45584 59.327645 C 161.20469 59.415115 186.25644 74.4715 205.01074 103.06089 C 210.40798 111.28855 215.18673 120.75815 219.2414 131.17287 C 216.3475 127.09285 212.08574 124.42776 207.72789 124.40378 C 205.93372 124.39378 204.22117 124.82396 202.71941 125.67398 A 0.60916071 0.60917971 0 0 0 202.71734 125.67605 C 200.44571 126.96686 198.91856 129.2357 198.08972 131.9196 C 184.52891 116.0591 167.52184 106.14525 150.02547 103.65724 C 144.83633 102.91934 139.6044 102.83299 134.4197 103.43141 C 118.86573 105.227 103.71376 113.20092 91.180481 128.19114 C 90.522349 128.97829 89.885628 129.80649 89.248816 130.63234 C 88.327407 128.52758 86.949976 126.74973 85.05424 125.67605 A 0.60916071 0.60917971 0 0 0 85.05424 125.67553 A 0.60916071 0.60917971 0 0 0 85.05424 125.67502 A 0.60916071 0.60917971 0 0 0 85.05424 125.6745 A 0.60916071 0.60917971 0 0 0 85.05424 125.67398 C 83.552481 124.82396 81.839935 124.39374 80.04576 124.40378 C 75.147446 124.43068 70.262864 127.68271 67.439811 132.66942 C 63.459372 139.70056 64.729221 148.09999 70.506807 151.37112 C 72.206779 152.33259 74.188374 152.63934 76.224288 152.5018 C 67.6404 171.21517 61.738859 195.544 59.935876 226.17172 C 58.879297 226.22832 57.817271 226.27882 56.752091 226.33812 C 48.207562 168.12406 64.047281 126.42728 84.972591 99.232186 C 95.50282 85.546799 107.31928 75.531281 117.9282 68.959615 C 128.53614 62.38857 138.02014 59.300868 143.45584 59.327645 z M 142.19184 104.8613 L 142.19235 104.86182 C 144.71785 104.90052 147.24511 105.10081 149.76554 105.4592 C 167.11631 107.92648 184.10701 117.9197 197.55177 134.07554 C 197.10856 137.46359 197.82395 141.12925 199.64983 144.3762 A 0.60916071 0.60917971 0 0 0 199.6519 144.37827 C 201.9601 148.43828 205.67096 151.34827 209.69521 152.27494 C 220.12394 171.88055 226.1466 196.90717 224.79868 226.12108 C 169.96752 223.39426 115.56746 223.04956 61.781242 226.08336 C 63.621379 195.19749 69.624125 170.78644 78.307882 152.24394 C 82.250557 151.25115 85.863101 148.36398 88.120203 144.37775 C 90.236397 140.63745 90.912911 136.35622 90.004842 132.60741 C 90.851806 131.49103 91.704875 130.3967 92.574194 129.35696 C 104.84941 114.6754 119.54666 106.97064 134.62847 105.23492 C 137.14214 104.94565 139.66636 104.82259 142.19184 104.8613 z M 142.21406 128.96009 L 141.96394 128.96215 C 122.39802 129.17817 103.44099 137.9548 91.078162 154.79003 L 90.385697 155.18278 A 0.60916071 0.60917971 0 0 0 90.135583 155.97032 L 90.195528 156.099 C 87.319849 160.2022 84.731716 164.67936 82.698311 169.72091 C 82.697349 169.72291 82.696928 169.72562 82.695728 169.72762 C 82.695046 169.72862 82.694344 169.73179 82.693144 169.73279 C 77.767602 181.16678 75.199423 194.99877 75.97159 211.22638 L 75.969523 211.17677 L 75.905444 213.23711 A 0.60916071 0.60917971 0 0 0 77.016488 213.60092 L 78.155953 211.93538 L 78.179724 211.9049 L 78.179724 211.90283 C 92.093133 192.52857 105.49369 180.1501 118.44962 173.40905 L 118.45634 173.40699 C 118.45725 173.40651 118.4574 173.40544 118.4584 173.40544 C 125.91154 169.71646 133.53674 167.69697 141.32574 167.42802 C 150.7978 167.10095 160.556 169.3676 170.5746 174.42605 C 185.06019 182.08092 199.31971 195.26015 213.39679 211.97931 L 214.4913 213.27845 A 0.60916071 0.60917971 0 0 0 215.56462 212.88158 L 215.54808 211.18246 L 215.54808 211.18039 C 215.3873 196.47504 212.56714 183.77301 207.88654 173.01528 A 0.60916071 0.60917971 0 0 0 208.16042 172.2205 L 207.3677 170.62421 C 202.46587 160.7142 195.98648 152.67344 188.61898 146.31407 L 188.34768 145.83813 A 0.60916071 0.60917971 0 0 0 187.83608 145.66191 C 183.9854 142.43666 179.88216 139.76301 175.63269 137.49393 A 0.60916071 0.60917971 0 0 0 175.28284 137.15804 L 174.56919 136.90379 A 0.60916071 0.60917971 0 0 0 174.5573 136.89862 L 174.55007 136.89655 C 164.33352 131.64652 153.25168 128.90925 142.2585 128.98024 A 0.60916071 0.60917971 0 0 0 142.21302 128.96164 L 142.21406 128.96009 z M 81.86322 129.22415 C 82.518868 129.22015 83.125458 129.3779 83.656909 129.67891 C 85.712241 130.84254 86.279349 134.01009 84.691988 136.81439 C 83.10431 139.61898 80.095135 140.76225 78.039681 139.5982 C 75.984592 138.43433 75.417205 135.26682 77.004602 132.46272 C 78.128512 130.47733 80.070995 129.23411 81.86322 129.22415 z M 205.11306 129.22415 C 206.90529 129.23415 208.84519 130.47733 209.9691 132.46272 C 211.55682 135.26719 210.98966 138.43718 208.93402 139.60078 C 206.87853 140.76428 203.87122 139.61874 202.28378 136.81439 C 200.69641 134.01009 201.26353 130.84254 203.31886 129.67891 C 203.85031 129.3779 204.45741 129.22062 205.11306 129.22415 z M 142.74943 137.33064 C 144.36047 140.11369 146.09556 142.74897 148.40955 144.13074 C 150.47224 145.36246 153.09959 145.36577 155.30732 143.5623 C 156.50368 142.58495 157.5469 140.90823 158.57172 138.98221 C 158.90412 142.09811 159.81163 144.95822 161.93585 146.52956 C 163.73677 147.86172 166.2167 148.05828 168.55509 146.76003 C 169.55906 146.20259 170.49937 145.24899 171.42675 144.16639 C 171.22141 145.95575 171.18394 147.73606 172.02413 149.25859 C 172.96988 150.97242 174.98616 151.87365 177.59898 151.72821 C 179.20928 151.63851 181.31382 151.0012 183.63479 150.18153 C 183.44901 150.53505 183.20193 150.83948 183.06376 151.22643 C 182.34897 153.22816 182.11198 155.36831 182.7475 157.2271 C 183.40526 159.15094 185.23771 160.59494 187.68208 160.54162 C 188.26861 160.52882 188.94327 160.24139 189.57861 160.06775 C 189.24726 160.53961 188.80465 160.99433 188.61743 161.49299 C 187.75186 163.79821 188.43774 166.06449 190.06385 167.57737 C 193.10193 170.40374 198.77228 171.56855 205.05828 172.65509 C 208.76525 180.79873 211.25251 190.25175 212.34828 200.87869 C 211.09792 196.48364 209.92999 192.36313 208.37281 189.40084 C 207.02341 186.83383 205.14119 184.89487 202.46464 184.59235 C 200.98181 184.42474 199.33311 184.98687 197.59672 185.78194 C 197.99737 184.7537 198.43934 183.72981 198.55067 182.63381 C 198.85472 179.64091 198.2367 176.59096 196.9425 174.35835 C 196.2955 173.24222 195.45867 172.30028 194.37987 171.75799 C 193.28413 171.20721 191.95374 171.15547 190.71601 171.73629 C 189.96369 172.0897 189.25936 172.71992 188.57454 173.4783 C 188.7539 171.74291 188.97618 169.96702 188.73887 168.62898 C 188.14059 165.25546 186.23039 163.06473 183.79188 162.49034 C 181.36616 161.91897 178.70163 162.89178 176.50912 164.91965 C 175.81056 165.56578 175.27821 166.52147 174.69373 167.38462 C 174.71773 164.99694 174.58497 162.80546 174.00127 161.14365 C 172.90212 158.01371 170.78776 156.12733 168.35975 155.79204 C 165.94011 155.4579 163.45443 156.6239 161.54828 158.79031 C 161.00598 159.40665 160.6302 160.23125 160.21348 161.00568 C 159.07511 156.63346 156.00262 153.70242 152.58035 153.06766 C 150.00844 152.59061 147.28306 153.40256 145.54719 155.64735 C 144.60304 156.86834 144.23272 158.60786 144.05529 160.51527 C 141.11585 154.88505 136.98591 151.72324 133.13709 152.07806 C 130.66664 152.30581 128.56472 154.03929 127.67851 156.80852 C 127.44375 157.54209 127.48024 158.47119 127.42633 159.33498 C 126.47492 157.86131 125.46257 156.61171 124.26942 155.9419 C 121.50103 154.38779 118.47039 155.21147 116.35104 157.09842 C 114.24356 158.97476 112.81605 161.85688 112.63705 164.86487 C 112.59225 165.61752 112.85299 166.29492 113.02204 166.99911 C 111.28697 165.81534 109.60601 164.84948 108.04974 164.47006 C 105.03861 163.73597 102.40627 164.50566 100.77628 166.31853 C 98.331595 169.03757 98.420844 173.55377 100.60213 178.00619 C 98.27511 176.6276 96.189401 175.59216 94.523429 175.39136 C 93.228521 175.23529 92.059186 175.43967 91.118469 176.01923 C 90.179713 176.59755 89.542854 177.49489 89.124792 178.49401 C 88.293116 180.48163 88.183169 182.98107 88.208569 185.63673 C 88.223669 187.2091 88.287331 188.79289 88.337244 190.36461 C 87.567001 189.42139 86.809708 188.40034 85.981832 187.78544 C 85.194353 187.20056 84.362197 186.75449 83.442969 186.62168 C 82.503421 186.48599 81.52251 186.73745 80.723238 187.36634 C 80.413255 187.61026 80.202131 188.05588 79.94034 188.39212 C 80.868169 183.10018 82.101726 178.07886 83.825891 173.54238 C 87.859943 173.13762 90.770792 172.38891 92.826892 171.21539 C 94.95294 170.00192 96.162114 168.23362 96.46698 166.30664 C 96.799841 164.20264 96.088933 162.11694 95.222611 160.07033 C 97.887055 161.13615 100.8117 161.06549 103.07226 159.60886 C 104.94231 158.40386 106.26041 156.30955 106.23434 153.75341 C 106.22434 152.76427 105.87921 151.76536 105.43698 150.76444 C 107.38772 151.75028 109.42186 152.40813 111.38545 151.70444 C 113.31551 151.01277 114.81442 149.28838 115.26842 146.8577 C 115.45394 145.86447 115.19884 144.63398 115.02347 143.44551 C 115.33915 143.73706 115.60416 144.06547 115.96295 144.32142 C 117.95883 145.74524 120.18058 146.71572 122.35377 146.74091 C 124.58062 146.76611 126.74573 145.53202 127.65009 143.09618 C 127.9752 142.22054 128.04845 141.1774 128.0356 140.06949 C 128.84031 141.18842 129.67795 142.20593 130.62407 142.90342 C 133.0093 144.66178 135.64901 145.14715 137.89546 144.36431 C 140.13833 143.5827 141.82266 141.61836 142.5851 139.07937 C 142.74872 138.5345 142.69649 137.91475 142.74943 137.33064 z M 222.37712 139.66228 C 230.21448 163.64198 233.72143 192.65928 229.64335 226.34277 C 228.63624 226.29357 227.63219 226.25012 226.63113 226.20273 C 227.96946 197.22056 222.10761 172.25711 211.86045 152.50645 C 213.78252 152.58725 215.64931 152.27797 217.26167 151.37371 A 0.60916071 0.60917971 0 0 0 217.26374 151.37164 C 221.17368 149.15824 222.82546 144.56022 222.37661 139.66279 L 222.37712 139.66228 z " /><path
       style="color:#000000;mix-blend-mode:normal;fill:none;fill-opacity:1;stroke:none;stroke-width:2;stroke-dasharray:none"
       d="m 66.262786,221.74131 c 55.488554,-3.19706 110.345004,-2.40264 164.946744,0 7.65322,-140.793192 -154.763119,-187.344414 -164.946744,0 z"
       id="path910" /></g></svg>
